<svg width="77" height="15">
  <path d="M2.975 5.306l-.18.07c-.13.046-.317.093-.558.14-.242.046-.511.078-.808.097h-.265v-.641h.265c.436-.019.84-.089 1.212-.21.371-.12.632-.232.78-.334.149-.102.279-.204.39-.306.019-.028.075-.042.168-.042.083 0 .162.028.236.084V8.33l.014 4.18a.55.55 0 00.168.126c.046.018.158.037.334.055.177.019.464.028.864.028h.362v.641h-.153c-.195-.028-.934-.042-2.216-.042-1.263 0-1.992.014-2.187.042h-.167v-.64h.892c.148 0 .264-.006.348-.015.083-.01.158-.023.223-.042a.834.834 0 01.111-.027c.01 0 .037-.024.084-.07.046-.047.074-.065.083-.056V5.306zm5.518 2.076a.762.762 0 01-.599-.25.89.89 0 01-.223-.614c0-.66.246-1.23.739-1.713.492-.484 1.105-.725 1.839-.725.845 0 1.551.26 2.118.78s.855 1.194.864 2.02c0 .4-.093.781-.279 1.143a3.944 3.944 0 01-.669.948c-.26.27-.631.613-1.114 1.031-.335.288-.8.715-1.394 1.282l-.822.78 1.06.014c1.457 0 2.233-.023 2.326-.07.065-.018.177-.431.335-1.24v-.042h.557v.042c-.01.028-.07.45-.181 1.268-.112.818-.181 1.245-.21 1.282v.042H7.672V12.928c0-.065.028-.135.084-.209.055-.074.195-.237.418-.488.27-.297.501-.557.696-.78.084-.093.242-.265.474-.515.232-.251.39-.423.474-.516.084-.093.218-.246.404-.46.186-.213.316-.371.39-.474.075-.102.181-.241.32-.418.14-.176.238-.325.293-.446.056-.12.126-.255.21-.404.083-.148.143-.297.18-.446.038-.148.07-.287.098-.418.028-.13.042-.283.042-.46 0-.585-.158-1.09-.474-1.518-.316-.428-.766-.641-1.352-.641-.306 0-.575.079-.808.237-.232.158-.395.31-.487.46-.093.148-.14.236-.14.264 0 .01.023.014.07.014.167 0 .339.065.515.195.177.13.265.344.265.641a.821.821 0 01-.223.586c-.148.157-.357.241-.627.25zm6.55 5.142c0-.223.078-.418.236-.585a.789.789 0 01.6-.251c.222 0 .417.074.585.223a.804.804 0 01.264.6.842.842 0 01-.237.598.79.79 0 01-.599.251.812.812 0 01-.599-.237.862.862 0 01-.25-.599zm4.556-5.615c-.251 0-.446-.08-.585-.237a.948.948 0 01-.223-.613c0-.511.223-.967.668-1.366.446-.4.985-.6 1.617-.6.325 0 .53.006.613.015.687.111 1.212.357 1.575.738.362.381.548.795.557 1.24 0 .483-.158.953-.474 1.408a2.661 2.661 0 01-1.31.99l-.041.027c0 .01.041.023.125.042.084.018.218.06.404.125.186.065.362.163.53.293.761.492 1.142 1.142 1.142 1.95 0 .735-.288 1.376-.864 1.924-.576.548-1.305.822-2.188.822-.743 0-1.384-.2-1.922-.6-.54-.399-.809-.905-.809-1.518 0-.26.084-.47.251-.627a.93.93 0 01.627-.251c.26 0 .474.083.641.25a.85.85 0 01.251.628.877.877 0 01-.042.278 1.23 1.23 0 01-.097.223.526.526 0 01-.154.167c-.065.047-.12.084-.167.112a.44.44 0 01-.14.056.31.31 0 00-.11.042l-.056.013c.473.418 1.05.628 1.727.628.511 0 .897-.247 1.157-.739.158-.307.237-.776.237-1.407v-.28c0-.882-.297-1.471-.892-1.769-.14-.055-.422-.088-.85-.097l-.585-.014-.042-.028c-.019-.028-.028-.102-.028-.223 0-.167.037-.25.112-.25.26 0 .53-.024.808-.07.316-.047.604-.242.864-.586.26-.343.39-.864.39-1.56v-.112c0-.53-.163-.896-.488-1.1a1.199 1.199 0 00-.655-.196c-.297 0-.57.051-.822.154-.25.102-.427.209-.53.32l-.152.167h.041c.028.01.065.019.112.028.046.01.093.033.14.07a.72.72 0 00.166.097.254.254 0 01.14.154.908.908 0 00.111.209c.047.065.06.158.042.278a.83.83 0 01-.195.544c-.13.158-.34.241-.627.25zm11.649 6.451c-.167-.028-.767-.042-1.798-.042-1.077 0-1.7.014-1.867.042h-.125v-.64h.808c.065 0 .144-.01.237-.029a.51.51 0 00.195-.07.382.382 0 00.097-.11c.01-.02.014-.27.014-.753v-.697H25.2v-.641l2.104-3.219c1.422-2.155 2.142-3.237 2.16-3.246.019-.02.116-.028.293-.028h.25l.084.083v6.41h1.282v.641h-1.282v1.38c0 .064.028.12.084.167.074.065.339.102.794.111h.404v.641h-.125zm-2.355-2.94V5.766l-3.052 4.64 1.52.014h1.532zm5.17.752a.756.756 0 01-.224.558.74.74 0 01-.543.223H33.2c.427.734.994 1.1 1.7 1.1.65 0 1.124-.278 1.42-.836.177-.306.266-.9.266-1.783 0-.957-.126-1.603-.377-1.937-.241-.306-.51-.46-.808-.46h-.083c-.725 0-1.273.316-1.645.948-.037.065-.07.102-.097.111-.028.01-.098.019-.21.028-.157 0-.245-.028-.264-.084-.019-.037-.028-.85-.028-2.438V4.805c0-.465.023-.697.07-.697.018-.019.037-.028.056-.028.009 0 .106.037.292.111.186.075.441.149.767.223.325.075.673.112 1.045.112.66 0 1.29-.13 1.895-.39a.434.434 0 01.18-.056c.075 0 .112.084.112.25v.182c-.761.901-1.714 1.352-2.856 1.352a3.35 3.35 0 01-.78-.084l-.14-.028v2.397l.418-.307c.102-.074.27-.148.502-.223.232-.074.469-.111.71-.111.753 0 1.39.302 1.91.905.52.604.78 1.32.78 2.146 0 .855-.297 1.584-.892 2.188-.595.604-1.32.91-2.174.92-.752 0-1.356-.251-1.811-.753-.455-.501-.683-1.068-.683-1.7 0-.223.051-.4.153-.53a.71.71 0 01.32-.25c.112-.037.219-.056.321-.056a.75.75 0 01.572.237.786.786 0 01.222.557zm16.567 1.784c0 .186-.097.279-.292.279-.047 0-.149-.075-.307-.223-.158-.149-.594-.58-1.31-1.296l-1.449-1.45-1.463 1.464a94.685 94.685 0 01-1.519 1.477.225.225 0 01-.097.028.267.267 0 01-.195-.084.327.327 0 01-.098-.195c0-.065.065-.167.195-.307.13-.139.567-.58 1.31-1.323l1.45-1.45-1.45-1.449a90.035 90.035 0 01-1.31-1.323c-.12-.13-.186-.233-.195-.307a.24.24 0 01.084-.195.316.316 0 01.209-.07.24.24 0 01.097.014c.028.019.534.511 1.519 1.477l1.463 1.463 1.45-1.449a93.264 93.264 0 011.31-1.296c.157-.148.26-.223.306-.223.195 0 .292.093.292.28 0 .064-.046.148-.14.25-.092.102-.547.557-1.365 1.365l-1.449 1.464 1.45 1.463c.78.78 1.226 1.23 1.337 1.351.111.121.167.21.167.265zm8.124-7.65l-.181.07c-.13.046-.316.093-.558.14a6.42 6.42 0 01-.808.097h-.265v-.641h.265a4.53 4.53 0 001.212-.21c.372-.12.632-.232.78-.334.15-.102.28-.204.39-.306.02-.028.075-.042.168-.042.084 0 .163.028.237.084V8.33l.014 4.18c.065.065.12.107.167.126.047.018.158.037.335.055.176.019.464.028.864.028h.362v.641h-.153c-.196-.028-.934-.042-2.216-.042-1.263 0-1.993.014-2.188.042h-.167v-.64h.892c.148 0 .265-.006.348-.015.084-.01.158-.023.223-.042a.837.837 0 01.112-.027c.009 0 .037-.024.083-.07.047-.047.075-.065.084-.056V5.306zm5.337-.097c.52-.753 1.23-1.13 2.132-1.13.445 0 .891.122 1.337.363.446.242.808.67 1.087 1.282.344.771.516 1.83.516 3.177 0 1.44-.2 2.54-.6 3.303-.185.39-.44.7-.766.933-.325.232-.608.376-.85.432a3.836 3.836 0 01-.71.098 3.21 3.21 0 01-.725-.084c-.242-.056-.525-.204-.85-.446a2.516 2.516 0 01-.766-.933c-.4-.762-.6-1.863-.6-3.303 0-1.616.265-2.847.795-3.692zm3.135-.168c-.279-.297-.609-.446-.99-.446-.39 0-.724.15-1.003.446-.232.242-.385.576-.46 1.004-.074.427-.111 1.319-.111 2.675 0 1.468.037 2.434.111 2.898.075.465.242.832.502 1.101.26.279.58.418.962.418.371 0 .687-.14.947-.418.27-.279.437-.669.502-1.17.065-.502.102-1.445.111-2.829 0-1.347-.037-2.234-.111-2.661-.075-.428-.228-.767-.46-1.018zm3.75-1.986a.523.523 0 01-.413-.167.67.67 0 01-.158-.433c0-.362.158-.684.473-.966a1.653 1.653 0 011.143-.424c.23 0 .374.004.433.01.487.08.858.253 1.114.522.256.27.387.562.394.877 0 .342-.112.673-.335.995a1.882 1.882 0 01-.926.7l-.03.02c0 .006.03.016.089.029.059.013.154.043.286.089.131.046.256.115.374.206.538.349.808.808.808 1.38 0 .519-.204.972-.611 1.36-.407.387-.923.58-1.547.58-.525 0-.978-.14-1.36-.423-.38-.283-.57-.64-.57-1.074 0-.184.059-.332.177-.443a.658.658 0 01.443-.178c.184 0 .335.06.453.178a.602.602 0 01.178.443.62.62 0 01-.03.197.88.88 0 01-.069.158.37.37 0 01-.108.118c-.046.033-.086.059-.118.079a.31.31 0 01-.099.04.22.22 0 00-.079.029l-.04.01c.336.295.743.443 1.222.443.362 0 .634-.174.818-.522.112-.217.167-.549.167-.995v-.197c0-.624-.21-1.041-.63-1.251-.099-.04-.299-.063-.601-.07l-.414-.01-.03-.019c-.012-.02-.019-.072-.019-.158 0-.118.026-.177.079-.177.184 0 .374-.016.571-.05.224-.032.427-.17.611-.413.184-.243.276-.61.276-1.103v-.08c0-.374-.115-.633-.345-.777a.848.848 0 00-.463-.138c-.21 0-.404.036-.581.108-.177.072-.302.148-.375.227l-.108.118h.03c.02.006.046.013.078.02a.232.232 0 01.099.049c.033.026.072.049.118.069a.18.18 0 01.099.108c.02.053.046.102.078.148.033.046.043.112.03.197a.587.587 0 01-.138.384c-.092.112-.24.17-.443.177z"/>
</svg>