<svg width="25" height="12" fill="currentColor" xmlns="http://www.w3.org/2000/svg"><path d="M2.965 2.343l-.18.07c-.13.046-.316.092-.558.139-.24.046-.51.079-.807.097h-.265v-.64h.265c.436-.019.84-.088 1.211-.209.371-.12.631-.232.78-.334.148-.102.278-.204.39-.306.018-.028.074-.042.167-.042.083 0 .162.028.236.083v4.163l.014 4.176c.065.065.12.107.167.126.047.018.158.037.334.055.177.019.464.028.863.028h.362v.64h-.153c-.195-.027-.932-.041-2.213-.041-1.262 0-1.991.014-2.186.041h-.167v-.64h.891c.149 0 .265-.005.348-.014.084-.01.158-.023.223-.042a.834.834 0 01.111-.027c.01 0 .037-.024.084-.07.046-.046.074-.065.083-.056V2.343zm5.082 7.211c0-.223.078-.417.236-.585a.788.788 0 01.599-.25c.223 0 .417.074.585.223a.803.803 0 01.264.598.842.842 0 01-.237.599.788.788 0 01-.598.25.811.811 0 01-.599-.236.86.86 0 01-.25-.599zm4.315-5.137a.76.76 0 01-.598-.25.89.89 0 01-.223-.613c0-.659.246-1.23.738-1.712.492-.483 1.104-.724 1.837-.724.845 0 1.55.26 2.116.78.566.52.854 1.192.863 2.018 0 .4-.092.78-.278 1.142a3.94 3.94 0 01-.668.946c-.26.27-.631.613-1.114 1.03-.334.288-.798.715-1.392 1.281l-.821.78 1.058.014c1.457 0 2.232-.024 2.324-.07.065-.018.177-.431.335-1.239v-.042h.556V7.8c-.009.028-.07.45-.18 1.267-.112.817-.181 1.244-.21 1.28v.043h-5.164V9.957c0-.065.028-.135.083-.209.056-.074.195-.237.418-.487.27-.297.501-.557.696-.78.084-.093.241-.264.473-.515.232-.25.39-.422.474-.515.083-.093.218-.246.403-.46.186-.213.316-.37.39-.473.075-.102.181-.241.32-.417.14-.177.237-.325.293-.446a5.68 5.68 0 01.209-.404c.083-.148.143-.297.18-.445.038-.149.07-.288.098-.418a2.22 2.22 0 00.042-.46c0-.584-.158-1.09-.474-1.516-.315-.427-.765-.64-1.35-.64-.306 0-.575.078-.807.236-.232.158-.395.31-.488.46-.092.148-.139.236-.139.264 0 .009.023.014.07.014.167 0 .338.065.515.195.176.13.264.343.264.64a.82.82 0 01-.222.585c-.149.157-.358.24-.627.25zm7.211-.473c-.25 0-.445-.079-.584-.237a.947.947 0 01-.223-.612c0-.51.223-.966.668-1.365.446-.399.984-.598 1.615-.598.325 0 .53.004.613.014.686.111 1.21.357 1.573.738.362.38.547.793.557 1.239 0 .482-.158.95-.474 1.406a2.66 2.66 0 01-1.308.988l-.042.028c0 .01.042.023.125.042.084.018.218.06.404.125.186.065.362.162.529.292.76.492 1.142 1.142 1.142 1.95 0 .732-.288 1.373-.864 1.92-.575.548-1.304.822-2.185.822-.743 0-1.383-.2-1.921-.599-.539-.399-.808-.905-.808-1.517 0-.26.084-.469.25-.627a.93.93 0 01.627-.25c.26 0 .474.083.64.25a.85.85 0 01.251.627.875.875 0 01-.042.278c-.027.084-.06.158-.097.223a.524.524 0 01-.153.167c-.065.046-.12.083-.167.111a.437.437 0 01-.14.056.311.311 0 00-.11.042l-.057.014c.474.417 1.05.626 1.727.626.51 0 .895-.246 1.155-.738.158-.306.237-.775.237-1.406v-.278c0-.882-.297-1.471-.891-1.768-.14-.056-.422-.088-.85-.098l-.584-.014-.042-.027c-.018-.028-.028-.103-.028-.223 0-.167.038-.25.112-.25.26 0 .529-.024.807-.07.316-.047.603-.242.863-.585.26-.343.39-.863.39-1.56v-.11c0-.53-.162-.896-.487-1.1a1.197 1.197 0 00-.654-.195c-.297 0-.571.05-.822.153-.25.102-.427.209-.529.32l-.153.167h.042c.028.01.065.019.111.028.047.01.093.032.14.07a.72.72 0 00.166.097.254.254 0 01.14.153.907.907 0 00.111.209c.046.065.06.158.042.278a.83.83 0 01-.195.543c-.13.158-.339.242-.627.25z"/></svg>