<svg width="31" height="35" fill="currentColor" xmlns="http://www.w3.org/2000/svg"><path d="M28.919 19.936H1.674v-.837H28.92v.837zM4.03 7.596a.762.762 0 01-.6-.25.89.89 0 01-.222-.614c0-.66.246-1.232.739-1.715.492-.484 1.106-.725 1.84-.725.846 0 1.553.26 2.12.78.567.521.855 1.195.864 2.022 0 .4-.093.781-.279 1.144a3.946 3.946 0 01-.669.948c-.26.27-.632.613-1.115 1.031-.335.289-.8.716-1.395 1.283l-.822.781 1.06.014c1.459 0 2.235-.023 2.328-.07.065-.018.176-.432.334-1.24v-.042h.558v.041c-.01.028-.07.451-.181 1.27-.112.817-.181 1.245-.21 1.282v.042H3.209V13.146c0-.066.028-.135.083-.21.056-.074.196-.237.419-.488.27-.297.502-.557.697-.78.084-.093.242-.265.474-.516.232-.251.39-.423.474-.516.084-.093.219-.246.404-.46.186-.214.316-.372.39-.474.075-.103.182-.242.322-.419a2.38 2.38 0 00.292-.446c.056-.12.126-.255.21-.404.083-.149.144-.298.18-.446.038-.15.07-.289.098-.419a2.22 2.22 0 00.042-.46c0-.585-.158-1.092-.474-1.52-.316-.427-.767-.641-1.352-.641-.307 0-.577.079-.81.237-.231.158-.394.311-.487.46-.093.149-.14.237-.14.265 0 .01.024.014.07.014.168 0 .34.065.516.195.177.13.265.344.265.642a.822.822 0 01-.223.585c-.149.158-.358.242-.628.251zm6.777 2.928c-.056 0-.121-.037-.195-.111-.075-.075-.117-.14-.126-.196-.01-.055.135-.195.432-.418.298-.223.605-.455.92-.697l.53-.404a.095.095 0 01.07-.028h.014c.056 0 .121.079.195.237.075.158.326.702.753 1.631.177.4.32.72.432.962l1.186 2.58c.009 0 .492-.99 1.45-2.97.957-1.98 1.915-3.974 2.872-5.982.957-2.008 1.455-3.035 1.492-3.081.056-.13.149-.195.279-.195.065 0 .12.028.167.083a.522.522 0 01.098.168v.083l-3.249 6.735-3.277 6.776c-.037.065-.125.098-.265.098-.083 0-.139-.014-.167-.042-.018-.019-.474-1.004-1.366-2.956l-1.339-2.928-.223.153c-.14.112-.284.223-.432.335-.149.112-.233.167-.251.167zm17.261-7.85h-6.971v-.836h6.971v.836zm-5.2 4.448c-.251 0-.447-.079-.586-.237a.949.949 0 01-.223-.613c0-.512.223-.967.67-1.367.445-.4.985-.6 1.617-.6.325 0 .53.005.613.015.688.111 1.213.357 1.576.739.362.38.548.794.557 1.24 0 .484-.158.953-.474 1.409a2.663 2.663 0 01-1.31.99l-.042.028c0 .009.042.023.125.041.084.019.219.06.405.126.186.065.362.163.53.293.762.492 1.143 1.143 1.143 1.952 0 .734-.288 1.376-.865 1.924-.576.548-1.306.822-2.189.822-.743 0-1.385-.2-1.924-.599-.539-.4-.808-.906-.808-1.52 0-.26.083-.47.25-.627a.931.931 0 01.628-.251c.26 0 .474.083.641.25.168.168.251.377.251.628a.877.877 0 01-.042.279c-.027.084-.06.158-.097.223a.525.525 0 01-.154.168c-.065.046-.12.083-.167.111a.438.438 0 01-.14.056.311.311 0 00-.11.042l-.057.014c.474.418 1.05.627 1.73.627.51 0 .896-.246 1.157-.739.158-.307.237-.776.237-1.408v-.28c0-.882-.298-1.472-.893-1.77-.14-.056-.423-.088-.85-.097l-.586-.014-.042-.028c-.018-.028-.028-.103-.028-.223 0-.168.038-.251.112-.251.26 0 .53-.024.809-.07.316-.047.604-.242.864-.586s.39-.864.39-1.561v-.112c0-.53-.162-.897-.487-1.101a1.2 1.2 0 00-.656-.196 2.16 2.16 0 00-.822.154c-.251.102-.428.209-.53.32l-.154.168h.042c.028.01.065.018.112.028.046.009.093.032.14.07.046.037.101.07.166.097a.255.255 0 01.14.153.908.908 0 00.111.21c.047.065.06.158.042.278a.831.831 0 01-.195.544c-.13.158-.34.242-.627.251zm-9.286 18.99c-.252 0-.447-.078-.586-.236a.949.949 0 01-.223-.614c0-.511.223-.967.67-1.366.445-.4.984-.6 1.617-.6.325 0 .53.005.613.014.688.112 1.213.358 1.576.74.362.38.548.794.557 1.24 0 .483-.158.953-.474 1.408a2.663 2.663 0 01-1.31.99l-.042.028c0 .01.042.023.125.042.084.019.219.06.405.126.185.064.362.162.53.292.762.493 1.143 1.144 1.143 1.952 0 .735-.288 1.376-.865 1.924-.576.549-1.306.823-2.189.823-.743 0-1.385-.2-1.924-.6-.54-.4-.809-.906-.809-1.52 0-.26.084-.469.251-.627a.931.931 0 01.628-.25c.26 0 .474.083.641.25a.851.851 0 01.251.628.878.878 0 01-.042.279c-.028.083-.06.158-.097.223a.524.524 0 01-.154.167c-.065.046-.12.084-.167.112a.44.44 0 01-.14.055.311.311 0 00-.111.042l-.056.014c.474.418 1.05.628 1.73.628.51 0 .896-.247 1.156-.74.159-.306.237-.776.237-1.408v-.279c0-.883-.297-1.473-.892-1.77-.14-.056-.423-.089-.85-.098l-.586-.014-.042-.028c-.018-.028-.028-.102-.028-.223 0-.167.037-.25.112-.25.26 0 .53-.024.809-.07.316-.047.604-.242.864-.586s.39-.865.39-1.562v-.111c0-.53-.162-.897-.488-1.102a1.199 1.199 0 00-.655-.195c-.297 0-.572.051-.823.153-.25.103-.427.21-.53.321l-.153.167h.042c.028.01.065.019.112.028.046.01.093.033.139.07.046.037.102.07.167.098.065.027.112.079.14.153a.905.905 0 00.111.21c.047.064.06.157.042.278a.831.831 0 01-.195.544c-.13.158-.34.241-.627.25z"/></svg>