<svg width="80" height="80" viewBox="0 0 80 80" fill="none" xmlns="http://www.w3.org/2000/svg">
<rect width="80" height="80" rx="24" fill="#2771F9"/>
<path d="M44.4432 65.2164H41.2049V14.7828H44.4432V65.2164ZM30.7834 64.4281H35.1462C35.5487 64.4281 35.8713 64.1052 35.8713 63.7033C35.8713 63.3033 35.5487 62.9788 35.1462 62.9788H30.7834V60.0914H36.2584C36.6578 60.0914 36.9804 59.767 36.9804 59.3669C36.9804 58.9666 36.6578 58.6422 36.2584 58.6422H30.7834V55.823H35.1462C35.5487 55.823 35.8713 55.4982 35.8713 55.0979C35.8713 54.6982 35.5487 54.3731 35.1462 54.3731H30.7834V51.4845H36.2584C36.6578 51.4845 36.9804 51.1597 36.9804 50.7615C36.9804 50.3597 36.6578 50.0349 36.2584 50.0349H30.7834V47.4357H35.1462C35.5487 47.4357 35.8713 47.1128 35.8713 46.7112C35.8713 46.3112 35.5487 45.9864 35.1462 45.9864H30.7834V43.0993H36.2584C36.6578 43.0993 36.9804 42.7724 36.9804 42.3724C36.9804 41.9727 36.6578 41.6479 36.2584 41.6479H30.7834V39.2014H35.1462C35.5487 39.2014 35.8713 38.877 35.8713 38.4788C35.8713 38.0766 35.5487 37.754 35.1462 37.754H30.7834V34.8648H36.2584C36.6578 34.8648 36.9804 34.5382 36.9804 34.1384C36.9804 33.7384 36.6578 33.4155 36.2584 33.4155H30.7834V30.5942H35.1462C35.5487 30.5942 35.8713 30.2694 35.8713 29.8715C35.8713 29.4694 35.5487 29.1468 35.1462 29.1468H30.7834V26.2575H36.2584C36.6578 26.2575 36.9804 25.9331 36.9804 25.5312C36.9804 25.1309 36.6578 24.8083 36.2584 24.8083H30.7834V22.2072H35.1462C35.5487 22.2072 35.8713 21.8846 35.8713 21.4843C35.8713 21.0824 35.5487 20.7598 35.1462 20.7598H30.7834V17.8705H36.2584C36.6578 17.8705 36.9804 17.5461 36.9804 17.1479C36.9804 16.746 36.6578 16.4216 36.2584 16.4216H30.7834V14.7828H39.7578V65.2164H30.7834V64.4281ZM45.1683 13.3333H30.0583C29.6589 13.3333 29.3333 13.658 29.3333 14.0577V65.9412C29.3333 66.3431 29.6589 66.666 30.0583 66.666H45.1683C45.5677 66.666 45.8903 66.3431 45.8903 65.9412V14.0577C45.8903 13.658 45.5677 13.3333 45.1683 13.3333Z" fill="white"/>
<path d="M49.1133 14.6667C48.7139 14.6667 48.3882 14.9933 48.3882 15.3912V17.148C48.3882 17.5462 48.7139 17.8706 49.1133 17.8706C49.5127 17.8706 49.8383 17.5462 49.8383 17.148V15.3912C49.8383 14.9933 49.5127 14.6667 49.1133 14.6667Z" fill="white"/>
<path d="M49.1133 40.5483C48.7139 40.5483 48.3882 40.8709 48.3882 41.2728V44.7185C48.3882 45.1188 48.7139 45.4436 49.1133 45.4436C49.5127 45.4436 49.8383 45.1188 49.8383 44.7185V41.2728C49.8383 40.8709 49.5127 40.5483 49.1133 40.5483Z" fill="white"/>
<path d="M49.1133 47.4397C48.7139 47.4397 48.3882 47.7663 48.3882 48.1642V51.6098C48.3882 52.0102 48.7139 52.3364 49.1133 52.3364C49.5127 52.3364 49.8383 52.0102 49.8383 51.6098V48.1642C49.8383 47.7663 49.5127 47.4397 49.1133 47.4397Z" fill="white"/>
<path d="M49.1133 26.762C48.7139 26.762 48.3882 27.0849 48.3882 27.4867V30.9324C48.3882 31.3321 48.7139 31.6572 49.1133 31.6572C49.5127 31.6572 49.8383 31.3321 49.8383 30.9324V27.4867C49.8383 27.0849 49.5127 26.762 49.1133 26.762Z" fill="white"/>
<path d="M49.1133 33.6533C48.7139 33.6533 48.3882 33.9796 48.3882 34.3781V37.8256C48.3882 38.2235 48.7139 38.5501 49.1133 38.5501C49.5127 38.5501 49.8383 38.2235 49.8383 37.8256V34.3781C49.8383 33.9796 49.5127 33.6533 49.1133 33.6533Z" fill="white"/>
<path d="M49.1133 54.3347C48.7139 54.3347 48.3882 54.6576 48.3882 55.0592V58.5049C48.3882 58.9049 48.7139 59.2296 49.1133 59.2296C49.5127 59.2296 49.8383 58.9049 49.8383 58.5049V55.0592C49.8383 54.6576 49.5127 54.3347 49.1133 54.3347Z" fill="white"/>
<path d="M49.1133 19.8689C48.7139 19.8689 48.3882 20.1918 48.3882 20.5937V24.0393C48.3882 24.4409 48.7139 24.7638 49.1133 24.7638C49.5127 24.7638 49.8383 24.4409 49.8383 24.0393V20.5937C49.8383 20.1918 49.5127 19.8689 49.1133 19.8689Z" fill="white"/>
<path d="M49.1133 61.2261C48.7139 61.2261 48.3882 61.549 48.3882 61.9505V63.7033C48.3882 64.1052 48.7139 64.4281 49.1133 64.4281C49.5127 64.4281 49.8383 64.1052 49.8383 63.7033V61.9505C49.8383 61.549 49.5127 61.2261 49.1133 61.2261Z" fill="white"/>
</svg>
