<svg width="80" height="80" viewBox="0 0 80 80" fill="none" xmlns="http://www.w3.org/2000/svg">
<rect width="80" height="80" rx="24" fill="#2771F9"/>
<path d="M40.9295 13.374C40.5301 13.3488 40.1891 13.6542 40.1645 14.0524C40.1399 14.4543 40.4441 14.7944 40.8466 14.8214C41.5317 14.8601 42.2291 14.932 42.9081 15.0263C42.945 15.0303 42.9757 15.0343 43.0126 15.0343C43.3659 15.0343 43.6762 14.7735 43.7254 14.4119C43.7838 14.0155 43.5072 13.6487 43.1109 13.5925C42.392 13.4898 41.6576 13.4167 40.9295 13.374Z" fill="white"/>
<path d="M36.5481 13.4707C36.1518 13.5116 35.8599 13.8689 35.9029 14.2671C35.9428 14.6398 36.2562 14.9163 36.6219 14.9163C36.6464 14.9163 36.6741 14.9144 36.6987 14.9144C37.3807 14.8407 38.0782 14.7983 38.7694 14.7829C39.1688 14.7734 39.4853 14.4428 39.4791 14.0425C39.4699 13.6428 39.1381 13.3257 38.7356 13.3334C38.0075 13.3488 37.2732 13.3955 36.5481 13.4707Z" fill="white"/>
<path d="M18.6794 37.8686H27.1377L31.0396 42.4754C31.1962 42.6612 31.4328 42.7537 31.6725 42.7285C31.9121 42.7015 32.1241 42.5568 32.2347 42.342L37.1905 32.8094H59.9905V36.5294H40.5824C40.312 36.5294 40.0631 36.6799 39.9371 36.9217L32.6802 50.8857L25.0239 41.8418C24.8856 41.6815 24.6828 41.5865 24.4708 41.5865H18.6794V37.8686ZM17.2292 37.142V42.3113C17.2292 42.7113 17.5549 43.0358 17.9543 43.0358H24.1359L32.2716 52.648C32.4098 52.8124 32.6126 52.9033 32.8246 52.9033C32.8492 52.9033 32.8768 52.9033 32.9045 52.8993C33.1441 52.8723 33.3561 52.7294 33.4667 52.5128L41.0217 37.9805H60.7125C61.115 37.9805 61.4407 37.6539 61.4407 37.2542V32.0846C61.4407 31.6846 61.115 31.3577 60.7125 31.3577H36.7511C36.4807 31.3577 36.2319 31.511 36.109 31.7503L31.4482 40.717L28.0286 36.6723C27.8873 36.5119 27.6876 36.4169 27.4756 36.4169H17.9543C17.5549 36.4169 17.2292 36.7417 17.2292 37.142Z" fill="white"/>
<path d="M46.1649 51.4787L44.1371 49.4516L47.4245 46.1663C47.5597 46.0311 47.6366 45.8458 47.6366 45.6544C47.6366 45.463 47.5597 45.2774 47.4245 45.1423L44.1371 41.857L46.1649 39.832L49.4493 43.117C49.7319 43.3993 50.1928 43.3993 50.4754 43.117L53.7598 39.832L55.7876 41.857L52.5032 45.1423C52.368 45.2774 52.2881 45.463 52.2881 45.6544C52.2881 45.8458 52.368 46.0311 52.5032 46.1663L55.7876 49.4516L53.7598 51.4787L50.4754 48.1916C50.3341 48.0506 50.1497 47.983 49.9623 47.983C49.778 47.983 49.5906 48.0506 49.4493 48.1916L46.1649 51.4787ZM53.2498 53.0152C53.5324 53.2994 53.9902 53.2994 54.2729 53.0152L57.3238 49.9656C57.462 49.8285 57.5357 49.6448 57.5357 49.4516C57.5357 49.2602 57.462 49.0764 57.3238 48.9416L54.0394 45.6544L57.3238 42.3688C57.462 42.234 57.5357 42.0481 57.5357 41.857C57.5357 41.6637 57.462 41.4803 57.3238 41.3445L54.2729 38.2933C53.9902 38.0113 53.5324 38.0113 53.2498 38.2933L49.9623 41.5786L46.678 38.2933C46.3922 38.0113 45.9345 38.0113 45.6518 38.2933L42.6009 41.3445C42.4657 41.4803 42.3889 41.6637 42.3889 41.857C42.3889 42.0481 42.4657 42.234 42.6009 42.3688L45.8884 45.6544L42.6009 48.9416C42.4657 49.0764 42.3889 49.2602 42.3889 49.4516C42.3889 49.6448 42.4657 49.8285 42.6009 49.9656L45.6518 53.0152C45.7931 53.1584 45.9805 53.2278 46.1649 53.2278C46.3523 53.2278 46.5366 53.1584 46.678 53.0152L49.9623 49.7299L53.2498 53.0152Z" fill="white"/>
<path d="M65.9876 39.1979C65.9753 38.7979 65.6435 38.4848 65.2441 38.4944C64.8447 38.506 64.5282 38.8424 64.5405 39.2403C64.5497 39.4876 64.5528 39.7411 64.5528 39.9921C64.5528 40.684 64.5221 41.3815 64.4668 42.0657C64.4361 42.4639 64.731 42.8153 65.1304 42.8464C65.1519 42.8485 65.1704 42.8504 65.1919 42.8504C65.5636 42.8504 65.8801 42.5622 65.9108 42.1855C65.9722 41.4607 66.003 40.7246 66.003 39.9921C66.003 39.7276 65.9968 39.4588 65.9876 39.1979Z" fill="white"/>
<path d="M32.4344 15.7047C32.4958 15.7047 32.5603 15.6952 32.6249 15.6796C33.2885 15.4961 33.9705 15.3394 34.6465 15.2122C35.0367 15.1382 35.2978 14.7597 35.2241 14.3655C35.1503 13.9713 34.7724 13.7126 34.3761 13.7876C33.6633 13.9231 32.9444 14.0874 32.2408 14.2804C31.8537 14.3888 31.6294 14.7867 31.7339 15.1714C31.823 15.4943 32.1148 15.7047 32.4344 15.7047Z" fill="white"/>
<path d="M53.225 61.0444C52.6474 61.4257 52.0514 61.787 51.4492 62.1151C51.0959 62.3065 50.9699 62.7493 51.1634 63.1011C51.2925 63.3386 51.5413 63.4777 51.7994 63.4777C51.9161 63.4777 52.036 63.4467 52.1466 63.3871C52.7826 63.0371 53.4155 62.6546 54.0238 62.2525C54.3587 62.0322 54.4509 61.5839 54.2266 61.2478C54.0084 60.9154 53.5599 60.8226 53.225 61.0444Z" fill="white"/>
<path d="M60.3009 55.2935C59.9844 55.048 59.5297 55.1061 59.2839 55.4213C58.863 55.9642 58.4144 56.5012 57.9443 57.0097C57.674 57.3056 57.6955 57.7615 57.9904 58.0319C58.1318 58.1594 58.3038 58.2233 58.482 58.2233C58.6756 58.2233 58.8722 58.144 59.0166 57.9895C59.5082 57.4481 59.9844 56.884 60.4299 56.308C60.6757 55.993 60.6173 55.5371 60.3009 55.2935Z" fill="white"/>
<path d="M13.3949 41.1052H13.4072C13.8066 41.0994 14.1262 40.7709 14.12 40.3706C14.12 40.2453 14.1169 40.1196 14.1169 39.9921C14.1169 39.428 14.1354 38.8581 14.1722 38.2974C14.1999 37.8955 13.8988 37.5517 13.4994 37.5244C13.1031 37.4995 12.7559 37.8024 12.7282 38.2009C12.6883 38.792 12.6667 39.397 12.6667 39.9921C12.6667 40.1254 12.6698 40.2609 12.6698 40.3924C12.676 40.7885 13.0016 41.1052 13.3949 41.1052Z" fill="white"/>
<path d="M49.5905 63.0371C48.9637 63.3173 48.3154 63.5763 47.6671 63.8025C47.2892 63.9339 47.0896 64.349 47.2217 64.726C47.3261 65.0237 47.6057 65.2111 47.9037 65.2111C47.9836 65.2111 48.0635 65.1976 48.1434 65.1706C48.8285 64.9309 49.5167 64.6563 50.1804 64.3629C50.549 64.1966 50.7119 63.7696 50.549 63.404C50.3862 63.0393 49.9561 62.8749 49.5905 63.0371Z" fill="white"/>
<path d="M64.1259 47.6952C63.748 47.564 63.3363 47.7668 63.2073 48.1453C62.983 48.7985 62.731 49.4477 62.4545 50.0797C62.2948 50.4468 62.4607 50.8739 62.8294 51.0343C62.9215 51.0748 63.0199 51.0963 63.1182 51.0963C63.3978 51.0963 63.665 50.932 63.7818 50.6616C64.0737 49.9909 64.341 49.3048 64.5776 48.6129C64.7066 48.236 64.5038 47.8224 64.1259 47.6952Z" fill="white"/>
<path d="M62.5282 51.6526C62.1749 51.4634 61.7356 51.5927 61.5451 51.9464C61.2194 52.5535 60.863 53.1523 60.4851 53.7302C60.267 54.0663 60.3622 54.5149 60.6971 54.7348C60.82 54.8123 60.9583 54.851 61.0904 54.851C61.327 54.851 61.5605 54.7348 61.6987 54.5204C62.0981 53.9099 62.476 53.2739 62.8201 52.6343C63.0106 52.2828 62.8785 51.8401 62.5282 51.6526Z" fill="white"/>
<path d="M58.8198 23.9817C59.2561 24.515 59.677 25.0715 60.0702 25.6355C60.2116 25.8389 60.4359 25.9486 60.6632 25.9486C60.8076 25.9486 60.952 25.9062 61.0749 25.8193C61.4067 25.5913 61.4866 25.139 61.2592 24.8106C60.8445 24.2115 60.399 23.6256 59.9351 23.0618C59.68 22.7506 59.2253 22.7082 58.915 22.9632C58.6078 23.2164 58.5617 23.6726 58.8198 23.9817Z" fill="white"/>
<path d="M65.0506 43.5309C64.6543 43.4648 64.2794 43.7293 64.2149 44.1257C64.1012 44.8059 63.9599 45.4901 63.794 46.1587C63.6957 46.5452 63.9322 46.9393 64.3194 47.0361C64.3777 47.0496 64.4392 47.0573 64.4976 47.0573C64.8202 47.0573 65.1182 46.8389 65.1981 46.5083C65.3763 45.805 65.5268 45.0806 65.6436 44.3616C65.7112 43.9671 65.4439 43.5945 65.0506 43.5309Z" fill="white"/>
<path d="M57.4343 22.434C57.5756 22.5806 57.7661 22.6561 57.9565 22.6561C58.1378 22.6561 58.3191 22.5867 58.4604 22.4509C58.7461 22.1729 58.7523 21.7129 58.4758 21.4269C57.9658 20.9034 57.4312 20.3952 56.8843 19.9156C56.5801 19.6529 56.1254 19.6839 55.8612 19.9835C55.597 20.283 55.6277 20.743 55.9288 21.0035C56.448 21.4598 56.955 21.9409 57.4343 22.434Z" fill="white"/>
<path d="M61.1795 27.3865C61.5267 27.9838 61.8493 28.6041 62.1442 29.2244C62.2671 29.4856 62.5283 29.6379 62.7987 29.6379C62.9031 29.6379 63.0076 29.6167 63.109 29.57C63.4715 29.3986 63.6251 28.9654 63.4531 28.6041C63.1428 27.9469 62.8017 27.2919 62.4361 26.6639C62.2333 26.3158 61.7909 26.1984 61.4437 26.3994C61.0996 26.5978 60.9798 27.0409 61.1795 27.3865Z" fill="white"/>
<path d="M62.9522 31.1318C63.1949 31.7773 63.41 32.4403 63.6005 33.1027C63.6896 33.4219 63.9814 33.6327 64.2948 33.6327C64.3624 33.6327 64.4269 33.6207 64.4945 33.6013C64.8786 33.4935 65.1029 33.0913 64.9953 32.7085C64.7956 32.0052 64.5652 31.3038 64.3071 30.6236C64.1689 30.2506 63.751 30.061 63.3762 30.2002C63.0014 30.3412 62.8109 30.7588 62.9522 31.1318Z" fill="white"/>
<path d="M52.5952 18.5397C53.1789 18.9032 53.7596 19.2955 54.3126 19.7051C54.4447 19.7997 54.5922 19.8461 54.7428 19.8461C54.967 19.8461 55.1852 19.7459 55.3234 19.5527C55.5662 19.2316 55.4986 18.7772 55.1729 18.5397C54.5892 18.1071 53.9777 17.6914 53.3571 17.3068C53.0192 17.0982 52.5706 17.2026 52.3617 17.5427C52.1497 17.8825 52.2541 18.329 52.5952 18.5397Z" fill="white"/>
<path d="M19.6133 55.7128C19.1862 55.1739 18.7714 54.6113 18.3904 54.0393C18.1662 53.709 17.7145 53.6181 17.3827 53.8423C17.0509 54.0663 16.9618 54.5167 17.1861 54.8473C17.5916 55.4501 18.0279 56.0492 18.4826 56.617C18.624 56.797 18.8359 56.8895 19.0479 56.8895C19.2077 56.8895 19.3675 56.8376 19.4996 56.7331C19.8129 56.4803 19.8652 56.0262 19.6133 55.7128Z" fill="white"/>
<path d="M17.3029 52.2733C16.968 51.6702 16.6515 51.0477 16.3658 50.4219C16.2029 50.0584 15.7697 49.8962 15.4072 50.0642C15.0446 50.2283 14.8818 50.6575 15.0477 51.0225C15.3488 51.6837 15.6837 52.3427 16.037 52.9784C16.1722 53.2159 16.4149 53.3514 16.673 53.3514C16.7928 53.3514 16.9127 53.3225 17.0233 53.2567C17.3735 53.0635 17.4995 52.6208 17.3029 52.2733Z" fill="white"/>
<path d="M20.9744 57.2804C20.7009 56.9882 20.2432 56.9747 19.9513 57.2512C19.6594 57.524 19.6471 57.9837 19.9206 58.2755C20.4214 58.8049 20.9467 59.3211 21.4875 59.8077C21.6257 59.9334 21.8008 59.9952 21.9729 59.9952C22.1726 59.9952 22.3692 59.9122 22.5106 59.7555C22.7779 59.4578 22.7563 59 22.4583 58.7315C21.9483 58.2715 21.4475 57.7824 20.9744 57.2804Z" fill="white"/>
<path d="M13.9356 45.3393C14.3289 45.2659 14.59 44.891 14.5194 44.4968C14.3965 43.8206 14.3012 43.1287 14.2337 42.4427C14.1968 42.0445 13.8434 41.7526 13.444 41.791C13.0477 41.83 12.7558 42.1818 12.7927 42.5797C12.8634 43.3063 12.9647 44.0369 13.0938 44.7558C13.1552 45.1036 13.4594 45.3506 13.8035 45.3506C13.8465 45.3506 13.8895 45.3473 13.9356 45.3393Z" fill="white"/>
<path d="M64.6544 34.268C64.2611 34.3472 64.0061 34.7282 64.0798 35.1206C64.215 35.7946 64.3194 36.4847 64.3963 37.1704C64.4362 37.5416 64.7527 37.8144 65.1152 37.8144C65.1429 37.8144 65.1705 37.8123 65.1951 37.8101C65.5945 37.7659 65.8802 37.4082 65.8372 37.0104C65.7543 36.2856 65.6437 35.5553 65.5023 34.8401C65.4255 34.4499 65.0445 34.1927 64.6544 34.268Z" fill="white"/>
<path d="M29.4233 63.188C28.7873 62.9152 28.1575 62.6159 27.5461 62.2933C27.1958 62.1056 26.7564 62.2411 26.569 62.5929C26.3816 62.9481 26.5168 63.3871 26.8702 63.5724C27.5184 63.9143 28.182 64.2332 28.8518 64.5193C28.944 64.5598 29.0392 64.5792 29.1345 64.5792C29.4172 64.5792 29.6844 64.4151 29.8012 64.1386C29.9579 63.7711 29.7889 63.3465 29.4233 63.188Z" fill="white"/>
<path d="M37.4485 65.1414C36.7634 65.0913 36.069 65.0102 35.39 64.9039C34.9937 64.8418 34.6219 65.1125 34.5605 65.5067C34.499 65.9027 34.7694 66.2742 35.1627 66.3338C35.8816 66.4477 36.6159 66.5329 37.3441 66.5872C37.3594 66.5872 37.3809 66.5888 37.3963 66.5888C37.7711 66.5888 38.0906 66.2991 38.1183 65.9165C38.149 65.5184 37.8479 65.1706 37.4485 65.1414Z" fill="white"/>
<path d="M41.5962 65.1087C40.9111 65.1705 40.2167 65.2052 39.5224 65.2089C39.123 65.215 38.8035 65.5413 38.8035 65.9395C38.8065 66.3377 39.1322 66.6584 39.5285 66.6584H39.5347C40.2628 66.6544 41.0033 66.6197 41.7253 66.5543C42.1216 66.5174 42.4197 66.1675 42.3828 65.7693C42.3459 65.3696 41.9957 65.0758 41.5962 65.1087Z" fill="white"/>
<path d="M25.7551 61.2479C25.1744 60.8768 24.6029 60.4746 24.056 60.0573C23.7365 59.814 23.2818 59.8758 23.0421 60.1925C22.7963 60.5114 22.8578 60.9655 23.1773 61.2092C23.7549 61.6495 24.3602 62.075 24.9747 62.467C25.0945 62.5441 25.2297 62.581 25.3649 62.581C25.6045 62.581 25.838 62.4633 25.9763 62.2486C26.1913 61.9106 26.093 61.4623 25.7551 61.2479Z" fill="white"/>
<path d="M33.356 64.4981C32.6832 64.3355 32.0165 64.1423 31.3621 63.9244C30.9811 63.7982 30.5694 64.0034 30.4465 64.3841C30.3174 64.7626 30.5233 65.1724 30.9043 65.2999C31.5956 65.5301 32.3053 65.7347 33.0119 65.9049C33.0703 65.9202 33.1256 65.9261 33.184 65.9261C33.5096 65.9261 33.8077 65.7058 33.8876 65.3734C33.9828 64.9832 33.7432 64.5908 33.356 64.4981Z" fill="white"/>
<path d="M56.4849 58.4823C55.978 58.9518 55.4495 59.404 54.9057 59.8311C54.5923 60.0766 54.537 60.5325 54.7859 60.8456C54.9272 61.0293 55.1392 61.1236 55.3574 61.1236C55.511 61.1236 55.6677 61.0736 55.8028 60.9694C56.3743 60.519 56.9366 60.04 57.4712 59.5432C57.763 59.2725 57.7815 58.8148 57.508 58.521C57.2377 58.2273 56.7798 58.2098 56.4849 58.4823Z" fill="white"/>
<path d="M45.6823 64.4053C45.0125 64.5792 44.3336 64.726 43.6515 64.8418C43.2582 64.9113 42.994 65.2846 43.0616 65.6806C43.123 66.0324 43.4302 66.2837 43.7774 66.2837C43.8174 66.2837 43.8573 66.2797 43.9003 66.2699C44.6162 66.1464 45.3382 65.9918 46.0448 65.8081C46.432 65.7076 46.6624 65.3134 46.5641 64.9251C46.4627 64.5367 46.0694 64.3048 45.6823 64.4053Z" fill="white"/>
<path d="M48.9022 16.6535C49.5382 16.9146 50.1742 17.2062 50.7856 17.5193C50.8931 17.5734 51.0068 17.6004 51.1174 17.6004C51.3785 17.6004 51.6335 17.4535 51.7626 17.2044C51.9439 16.8489 51.8026 16.412 51.4462 16.2286C50.7979 15.898 50.1281 15.5908 49.4491 15.3124C49.0804 15.1619 48.6595 15.3394 48.5059 15.7066C48.3523 16.0777 48.5305 16.5029 48.9022 16.6535Z" fill="white"/>
<path d="M44.9482 15.4035C45.6211 15.5562 46.2939 15.738 46.9514 15.9463C47.0221 15.9697 47.0958 15.9792 47.1696 15.9792C47.4768 15.9792 47.7625 15.7823 47.8608 15.475C47.9807 15.0922 47.7687 14.6845 47.3877 14.5629C46.6903 14.3444 45.9806 14.1515 45.2678 13.9908C44.8776 13.9017 44.4935 14.1453 44.4013 14.5358C44.3153 14.926 44.558 15.3125 44.9482 15.4035Z" fill="white"/>
<path d="M28.431 17.1713C28.5324 17.1713 28.6369 17.1501 28.7352 17.1059C29.3619 16.8159 30.0041 16.547 30.6493 16.3132C31.0272 16.1722 31.2207 15.7568 31.0794 15.3817C30.9442 15.005 30.5264 14.8136 30.1515 14.9509C29.4664 15.2001 28.7874 15.4824 28.1269 15.7915C27.7612 15.9596 27.6045 16.3906 27.7735 16.7516C27.8964 17.0168 28.1576 17.1713 28.431 17.1713Z" fill="white"/>
<path d="M15.5885 48.5008C15.355 47.8516 15.1492 47.1871 14.971 46.5222C14.8665 46.1357 14.4702 45.9056 14.0831 46.01C13.696 46.1124 13.4686 46.5084 13.57 46.897C13.7605 47.6006 13.9786 48.3039 14.2244 48.9896C14.3289 49.2855 14.6085 49.4711 14.9065 49.4711C14.9894 49.4711 15.0693 49.4557 15.1523 49.4284C15.5271 49.2932 15.7237 48.8778 15.5885 48.5008Z" fill="white"/>
<path d="M21.4108 21.9641C21.592 21.9641 21.7702 21.8965 21.9116 21.765C22.4093 21.2879 22.9346 20.8276 23.4692 20.3929C23.7795 20.14 23.8256 19.6838 23.5737 19.3747C23.3218 19.0616 22.8671 19.0152 22.5568 19.2663C21.9884 19.724 21.4384 20.2132 20.913 20.7158C20.6212 20.992 20.6088 21.452 20.8854 21.7398C21.0298 21.8885 21.2203 21.9641 21.4108 21.9641Z" fill="white"/>
<path d="M18.1417 25.0078C18.2738 25.1061 18.4274 25.1547 18.578 25.1547C18.7961 25.1547 19.0173 25.0539 19.1586 24.8628C19.5703 24.314 20.0128 23.7727 20.4705 23.2547C20.7378 22.9591 20.7102 22.4992 20.4091 22.2347C20.1111 21.9677 19.6533 21.9969 19.3891 22.2943C18.9036 22.8396 18.4367 23.4114 18.0004 23.9951C17.7607 24.3141 17.8222 24.7681 18.1417 25.0078Z" fill="white"/>
<path d="M24.7257 19.2801C24.8639 19.2801 25.0053 19.2374 25.1312 19.1522C25.7027 18.7639 26.2926 18.3949 26.8917 18.0529C27.2389 17.8554 27.3618 17.4151 27.1652 17.067C26.9655 16.7174 26.523 16.5957 26.1759 16.7927C25.543 17.154 24.9162 17.5448 24.314 17.9562C23.9852 18.1801 23.8992 18.6327 24.1266 18.963C24.2679 19.1698 24.4922 19.2801 24.7257 19.2801Z" fill="white"/>
<path d="M15.9695 28.6832C16.077 28.7372 16.1938 28.7646 16.3044 28.7646C16.5687 28.7646 16.8175 28.6214 16.9465 28.3725C17.2661 27.7633 17.6132 27.1568 17.9789 26.5752C18.1939 26.2351 18.0925 25.7887 17.7546 25.5739C17.4166 25.3613 16.9681 25.4621 16.7561 25.8019C16.3659 26.4185 15.9972 27.0582 15.6623 27.7058C15.4779 28.0592 15.6162 28.4979 15.9695 28.6832Z" fill="white"/>
<path d="M14.4331 32.666C14.5068 32.689 14.5806 32.701 14.6574 32.701C14.9585 32.701 15.2442 32.5056 15.3426 32.1984C15.5576 31.5455 15.8003 30.8883 16.0676 30.2545C16.2243 29.8852 16.0461 29.4581 15.6774 29.3054C15.3087 29.1487 14.8848 29.3226 14.7312 29.6938C14.4485 30.3663 14.1904 31.0582 13.9661 31.7519C13.8432 32.1329 14.0521 32.5403 14.4331 32.666Z" fill="white"/>
<path d="M13.5731 36.8424C13.61 36.8482 13.6438 36.85 13.6806 36.85C14.0309 36.85 14.3412 36.5929 14.3965 36.2334C14.4979 35.5535 14.63 34.8653 14.7867 34.1967C14.8789 33.8062 14.6361 33.4179 14.249 33.3254C13.8588 33.2342 13.4686 33.476 13.3765 33.8643C13.2075 34.5753 13.0692 35.2985 12.9617 36.0208C12.9033 36.415 13.1768 36.7843 13.5731 36.8424Z" fill="white"/>
</svg>
