<svg width="80" height="80" viewBox="0 0 80 80" fill="none" xmlns="http://www.w3.org/2000/svg">
<rect width="80" height="80" rx="24" fill="#2771F9"/>
<path d="M20.613 34.3337L20.7565 34.8127C21.7835 34.505 22.9385 34.2247 24.1871 33.9841L24.1871 33.9841L24.1891 33.9837C24.3041 33.961 24.4154 34.0293 24.4468 34.1449L24.4506 34.1654C24.4731 34.2844 24.394 34.3999 24.2758 34.422L24.2758 34.422L24.2717 34.4228C23.0469 34.6625 21.9097 34.9359 20.892 35.2422C20.8552 35.252 20.8328 35.254 20.8207 35.254C20.7248 35.254 20.6385 35.1925 20.6092 35.0987L20.6027 35.0781C20.5766 34.9631 20.6432 34.8469 20.7576 34.8123L20.613 34.3337ZM20.613 34.3337C21.6582 34.0206 22.8297 33.7364 24.0925 33.4931C24.4857 33.4157 24.8658 33.6707 24.942 34.0688M20.613 34.3337C20.2296 34.4495 20.0121 34.8535 20.1282 35.2382L24.942 34.0688M24.942 34.0688V34.0728C25.0151 34.4609 24.7601 34.84 24.3678 34.9134L24.942 34.0688Z" fill="white" stroke="white"/>
<path d="M48.4505 34.1436L48.4531 34.1295C48.4835 34.0166 48.5958 33.9434 48.7151 33.965C49.9631 34.2076 51.1174 34.4844 52.1467 34.788C52.2617 34.8222 52.3297 34.9404 52.2995 35.0592C52.2972 35.0661 52.2948 35.0738 52.2925 35.0822C52.2579 35.1741 52.172 35.2308 52.0815 35.2308C52.0697 35.2308 52.0478 35.2287 52.014 35.2195C50.9946 34.9146 49.8552 34.6433 48.6296 34.4089C48.5071 34.3842 48.4277 34.2681 48.4505 34.1436Z" fill="white" stroke="white"/>
<path d="M45.2039 33.8719C45.2037 33.8719 45.2034 33.8719 45.2032 33.8719L45.1954 33.8703L45.1754 33.8679C44.0566 33.732 42.8851 33.6206 41.6953 33.5392C41.5698 33.5297 41.4783 33.4233 41.4861 33.3002L41.4866 33.2921C41.5004 33.1676 41.6091 33.0808 41.7236 33.0892L41.726 33.0894C42.9246 33.1714 44.1041 33.2866 45.2309 33.4248L45.2315 33.4249C45.3473 33.4389 45.4317 33.5396 45.428 33.6536L45.4252 33.6756C45.4104 33.7888 45.3132 33.8719 45.2039 33.8719Z" fill="white" stroke="white"/>
<path d="M27.4757 33.6871L27.4722 33.6605C27.4704 33.5472 27.5548 33.4483 27.6685 33.4344L27.6685 33.4344L27.6695 33.4343C28.7955 33.2944 29.9748 33.1795 31.1739 33.095C31.2945 33.087 31.3995 33.1771 31.4126 33.293L31.4133 33.3043C31.4212 33.43 31.3277 33.5346 31.2067 33.5429L31.2051 33.543C30.0153 33.6287 28.8454 33.7416 27.7252 33.8798L27.7252 33.8797L27.7219 33.8802L27.7023 33.8827L27.6915 33.8839C27.5855 33.8813 27.4903 33.799 27.4757 33.6871Z" fill="white" stroke="white"/>
<path d="M33.9721 33.1801H34.4721C34.4721 33.169 34.4718 33.1584 34.4711 33.1481C34.4756 33.0301 34.5719 32.9362 34.6869 32.934L34.6869 32.934L34.6888 32.934C35.8524 32.9071 37.0466 32.9071 38.2082 32.9321C38.3338 32.9353 38.4307 33.0384 38.428 33.1609L38.4279 33.1609V33.1679C38.4223 33.2825 38.3233 33.3809 38.1971 33.3797C37.0439 33.3563 35.8617 33.3563 34.7064 33.3833H34.6948C34.5745 33.3833 34.4753 33.2868 34.4719 33.1663L33.9721 33.1801ZM33.9721 33.1801C33.9829 33.5703 34.3027 33.8833 34.6948 33.8833H34.7123L34.6773 32.4341C34.2778 32.4418 33.9605 32.776 33.9712 33.1764C33.9712 33.1764 33.9721 33.1782 33.9721 33.1801Z" fill="white" stroke="white"/>
<path d="M17.6754 36.5257C17.0686 36.857 16.5709 37.2136 16.2181 37.5858C15.8714 37.9515 15.616 38.3852 15.616 38.8613C15.616 39.2737 15.8033 39.6517 16.0758 39.9794C16.3492 40.3081 16.7354 40.6203 17.2069 40.9149C18.1507 41.5047 19.5124 42.0706 21.2303 42.5671C24.6724 43.5618 29.6322 44.3024 35.7631 44.357L36.2675 44.3615V43.857V42.1232C36.2675 41.9998 36.3683 41.8988 36.4923 41.8988C36.6164 41.8988 36.7171 41.9996 36.7171 42.1232V43.857V44.3615L37.2215 44.357C43.3535 44.3024 48.3131 43.5618 51.7549 42.5671C53.4727 42.0706 54.8341 41.5047 55.7778 40.9149C56.2492 40.6203 56.6353 40.3081 56.9086 39.9793C57.1733 39.6609 57.3576 39.295 57.3678 38.8963L57.3704 38.8803V38.8401C57.3704 38.8152 57.3687 38.7946 57.3672 38.7808C57.3667 38.7764 57.3662 38.7722 57.3658 38.7686C57.3344 38.3074 57.0682 37.8899 56.7174 37.535C56.3543 37.1678 55.8493 36.8146 55.2368 36.4846L55.2362 36.4843C55.1322 36.4284 55.0885 36.2978 55.1436 36.1864L55.1477 36.1782L55.1514 36.1699C55.1524 36.1677 55.1533 36.1656 55.1542 36.1636C55.2167 36.0683 55.3448 36.0339 55.4482 36.0898L55.4498 36.0906C55.8089 36.2828 56.126 36.4832 56.4072 36.6866L57.3416 37.3622L57.1962 36.2184C55.8914 25.9542 47.1059 17.989 36.4923 17.989C25.879 17.989 17.0934 25.9541 15.7893 36.2162L15.6438 37.361L16.5785 36.6843C16.8384 36.4961 17.1298 36.3102 17.4589 36.1309L17.4608 36.1298C17.5646 36.0726 17.6956 36.1069 17.7587 36.2111M17.6754 36.5257C17.6759 36.5254 17.6764 36.5252 17.6769 36.5249L17.9164 36.9638L17.6747 36.5261C17.6749 36.526 17.6752 36.5258 17.6754 36.5257ZM17.6754 36.5257C17.7806 36.4671 17.8214 36.336 17.7662 36.2264L17.7602 36.2147L17.7587 36.2111M17.7587 36.2111C17.7604 36.214 17.7621 36.217 17.7638 36.22L17.767 36.226L17.791 36.2698L17.8287 36.3122C17.8008 36.2808 17.781 36.25 17.7676 36.2257C17.7665 36.2237 17.7654 36.2217 17.7643 36.2197C17.7609 36.2133 17.758 36.2075 17.7555 36.2023C17.7505 36.1919 17.7474 36.1842 17.7458 36.1803L17.7456 36.1799C17.7429 36.1734 17.7402 36.1659 17.7427 36.1726C17.7438 36.1755 17.7484 36.1879 17.7549 36.2026L17.7587 36.2111ZM36.7171 59.2182V59.7362L37.2347 59.7179C47.5145 59.3553 55.9251 51.5289 57.1962 41.5004L57.3422 40.3486L56.4051 41.0339C55.3456 41.8086 53.7045 42.5193 51.4716 43.1249L51.4716 43.125C47.652 44.1616 42.6116 44.754 37.2124 44.8041L36.7171 44.8087V45.3041V45.6307C36.7171 45.7547 36.6163 45.8554 36.4923 45.8554C36.3684 45.8554 36.2675 45.7546 36.2675 45.6307V45.3041V44.8087L35.7722 44.8041C30.3742 44.754 25.3326 44.1616 21.5133 43.125L21.5132 43.1249C19.2797 42.5193 17.6386 41.8086 16.5795 41.0339L15.6423 40.3484L15.7883 41.5004C17.0595 51.5289 25.4704 59.3553 35.7499 59.7179L36.2675 59.7362V59.2182V56.1551C36.2675 56.0313 36.3686 55.9303 36.4923 55.9303C36.6162 55.9303 36.7171 56.0312 36.7171 56.1551V59.2182ZM57.8118 38.7689L57.8092 38.8096L57.8132 38.8501C57.8137 38.8552 57.8142 38.8599 57.8147 38.8644C57.8157 38.8728 57.8167 38.8801 57.8176 38.8861C57.8168 38.9257 57.8142 38.9682 57.8105 39.0151L57.8091 39.0326L57.8089 39.0502C57.7063 50.7187 48.1835 60.181 36.4923 60.181C24.8011 60.181 15.2786 50.7187 15.1766 39.0502L15.1764 39.0277L15.1742 39.0053C15.1694 38.9576 15.1667 38.9087 15.1667 38.8613C15.1667 38.8196 15.1692 38.7767 15.174 38.7304L15.1764 38.707L15.1766 38.6835C15.2699 27.2473 24.4137 17.9286 35.7839 17.5549L36.2675 17.539V17.0551V14.0577C36.2675 13.9344 36.3684 13.8333 36.4923 13.8333C36.6163 13.8333 36.7171 13.9343 36.7171 14.0577V17.0551V17.539L37.2006 17.5549C48.5726 17.9286 57.7195 27.2533 57.8089 38.6932L57.8091 38.7174L57.8116 38.7416L57.8129 38.7541C57.8125 38.7585 57.8121 38.7635 57.8118 38.7689ZM57.8207 38.9069C57.8209 38.9078 57.8208 38.9074 57.8206 38.9062L57.8207 38.9069Z" fill="white" stroke="white"/>
<path d="M61.3013 59.3379V59.8379H61.8013H64.5655C64.6901 59.8379 64.7903 59.9398 64.7903 60.0608C64.7903 60.1874 64.6886 60.2874 64.5655 60.2874H57.5872C57.4647 60.2874 57.3628 60.1875 57.3628 60.0608C57.3628 59.9396 57.4631 59.8379 57.5872 59.8379H60.3508H60.8508V59.3379V55.7048V55.2048H60.3508H59.5505C59.4269 55.2048 59.326 55.1039 59.326 54.9804C59.326 54.8563 59.4271 54.7556 59.5505 54.7556H60.3508H60.8508V54.2556V23.3782V22.8782H60.3508H59.4464C59.3244 22.8782 59.2219 22.7774 59.2219 22.6516C59.2219 22.528 59.3228 22.4271 59.4464 22.4271H60.3508H60.8508V21.9271V18.4891V17.9891H60.3508H57.5872C57.461 17.9891 57.3628 17.8896 57.3628 17.7665C57.3628 17.6437 57.4648 17.5417 57.5872 17.5417H64.5655C64.6885 17.5417 64.7903 17.6438 64.7903 17.7665C64.7903 17.8895 64.6922 17.9891 64.5655 17.9891H61.8013H61.3013V18.4891V21.9271V22.4271H61.8013H62.4988C62.6219 22.4271 62.7226 22.5273 62.7226 22.6516C62.7226 22.7781 62.6203 22.8782 62.4988 22.8782H61.8013H61.3013V23.3782V54.2556V54.7556H61.8013H62.602C62.726 54.7556 62.8268 54.8563 62.8268 54.9804C62.8268 55.1039 62.7262 55.2048 62.602 55.2048H61.8013H61.3013V55.7048V59.3379Z" fill="white" stroke="white"/>
<path d="M36.2673 63.1721C36.2673 63.0491 36.3695 62.947 36.4921 62.947C36.6149 62.947 36.7169 63.049 36.7169 63.1721V65.9431C36.7169 66.0653 36.6177 66.166 36.4921 66.166C36.3667 66.166 36.2673 66.0652 36.2673 65.9431V63.1721Z" fill="white" stroke="white"/>
<path d="M36.7169 24.5843C36.7169 24.7051 36.617 24.807 36.4921 24.807C36.3674 24.807 36.2673 24.705 36.2673 24.5843V21.0748C36.2673 20.9494 36.37 20.8481 36.4921 20.8481C36.6143 20.8481 36.7169 20.9492 36.7169 21.0748V24.5843Z" fill="white" stroke="white"/>
<path d="M36.7169 31.5993C36.7169 31.7229 36.6163 31.8237 36.4921 31.8237C36.3681 31.8237 36.2673 31.7227 36.2673 31.5993V28.0919C36.2673 27.9663 36.3699 27.8652 36.4921 27.8652C36.6145 27.8652 36.7169 27.9661 36.7169 28.0919V31.5993Z" fill="white" stroke="white"/>
<path d="M36.2673 49.1381C36.2673 49.0175 36.3674 48.9155 36.4921 48.9155C36.617 48.9155 36.7169 49.0174 36.7169 49.1381V52.6477C36.7169 52.7722 36.617 52.8722 36.4921 52.8722C36.3674 52.8722 36.2673 52.772 36.2673 52.6477V49.1381Z" fill="white" stroke="white"/>
<path d="M36.702 38.6867L36.702 38.6866L36.7004 38.6912C36.6684 38.7795 36.5864 38.8385 36.4921 38.8385C36.3987 38.8385 36.3167 38.7805 36.2836 38.693C36.2704 38.6542 36.2673 38.631 36.2673 38.6141V35.1067C36.2673 34.9847 36.3663 34.884 36.4921 34.884C36.6181 34.884 36.7169 34.9845 36.7169 35.1067V38.6141C36.7169 38.6343 36.7134 38.6561 36.702 38.6867Z" fill="white" stroke="white"/>
</svg>
