<svg width="80" height="80" viewBox="0 0 80 80" fill="none" xmlns="http://www.w3.org/2000/svg">
<rect width="80" height="80" rx="24" fill="#2771F9"/>
<path d="M16.9114 36.2584L16.9132 36.2661V36.2507L16.9114 36.2584Z" fill="white"/>
<path d="M19.3133 36.9811C19.7155 36.9811 20.039 36.6582 20.039 36.2585C20.039 35.8584 19.7155 35.5337 19.3133 35.5337H18.3606V36.9811H19.3133Z" fill="white"/>
<path d="M47.1448 61.3596V61.1642C47.1448 60.7644 46.8213 60.4397 46.4207 60.4397C46.0204 60.4397 45.6965 60.7644 45.6965 61.1642V61.3596C45.6965 61.46 45.7171 61.5547 45.7518 61.6401H47.0889C47.1258 61.5547 47.1448 61.46 47.1448 61.3596Z" fill="white"/>
<path d="M45.6965 39.1742V39.3524C45.6965 39.7521 46.0204 40.075 46.4207 40.075C46.8213 40.075 47.1448 39.7521 47.1448 39.3524V38.9871L46.4551 38.251L45.6965 39.1742Z" fill="white"/>
<path d="M46.398 36.4302C46.5479 36.4247 46.6957 36.4671 46.8201 36.5519C46.8591 36.4612 46.8834 36.3626 46.8834 36.2585C46.8834 35.8584 46.5596 35.5337 46.1595 35.5337H44.4811C44.0808 35.5337 43.7576 35.8584 43.7576 36.2585C43.7576 36.6582 44.0808 36.9811 44.4811 36.9811H45.6231L45.8618 36.6951C45.9943 36.5328 46.1906 36.4361 46.398 36.4302Z" fill="white"/>
<path d="M47.1448 54.451C47.1448 54.0525 46.8213 53.728 46.4207 53.728C46.0204 53.728 45.6965 54.0525 45.6965 54.451V56.13C45.6965 56.5303 46.0204 56.8548 46.4207 56.8548C46.8213 56.8548 47.1448 56.5303 47.1448 56.13V54.451Z" fill="white"/>
<path d="M31.059 36.9811H32.7365C33.1362 36.9811 33.461 36.6582 33.461 36.2585C33.461 35.8584 33.1362 35.5337 32.7365 35.5337H31.059C30.659 35.5337 30.3342 35.8584 30.3342 36.2585C30.3342 36.6582 30.659 36.9811 31.059 36.9811Z" fill="white"/>
<path d="M29.3815 35.5337H27.7025C27.3022 35.5337 26.9792 35.8584 26.9792 36.2585C26.9792 36.6582 27.3022 36.9811 27.7025 36.9811H29.3815C29.7816 36.9811 30.1045 36.6582 30.1045 36.2585C30.1045 35.8584 29.7816 35.5337 29.3815 35.5337Z" fill="white"/>
<path d="M37.0449 36.2585C37.0449 36.6582 37.3706 36.9811 37.7703 36.9811H39.4478C39.8478 36.9811 40.1726 36.6582 40.1726 36.2585C40.1726 35.8584 39.8478 35.5337 39.4478 35.5337H37.7703C37.3706 35.5337 37.0449 35.8584 37.0449 36.2585Z" fill="white"/>
<path d="M41.1254 35.5337C40.7254 35.5337 40.4006 35.8584 40.4006 36.2585C40.4006 36.6582 40.7254 36.9811 41.1254 36.9811H42.8026C43.2029 36.9811 43.5277 36.6582 43.5277 36.2585C43.5277 35.8584 43.2029 35.5337 42.8026 35.5337H41.1254Z" fill="white"/>
<path d="M46.4207 57.083C46.0204 57.083 45.6965 57.4075 45.6965 57.8078V59.485C45.6965 59.8847 46.0204 60.2098 46.4207 60.2098C46.8213 60.2098 47.1448 59.8847 47.1448 59.485V57.8078C47.1448 57.4075 46.8213 57.083 46.4207 57.083Z" fill="white"/>
<path d="M33.6899 36.2585C33.6899 36.6582 34.0147 36.9811 34.415 36.9811H36.0932C36.4932 36.9811 36.817 36.6582 36.817 36.2585C36.817 35.8584 36.4932 35.5337 36.0932 35.5337H34.415C34.0147 35.5337 33.6899 35.8584 33.6899 36.2585Z" fill="white"/>
<path d="M47.1448 41.0299C47.1448 40.6296 46.8213 40.303 46.4207 40.303C46.0204 40.303 45.6965 40.6296 45.6965 41.0299V42.7071C45.6965 43.1071 46.0204 43.4319 46.4207 43.4319C46.8213 43.4319 47.1448 43.1071 47.1448 42.7071V41.0299Z" fill="white"/>
<path d="M47.1448 44.3826C47.1448 43.9847 46.8213 43.6599 46.4207 43.6599C46.0204 43.6599 45.6965 43.9847 45.6965 44.3826V46.0637C45.6965 46.4641 46.0204 46.787 46.4207 46.787C46.8213 46.787 47.1448 46.4641 47.1448 46.0637V44.3826Z" fill="white"/>
<path d="M47.1448 47.739C47.1448 47.3415 46.8213 47.0149 46.4207 47.0149C46.0204 47.0149 45.6965 47.3415 45.6965 47.739V49.4187C45.6965 49.8209 46.0204 50.1432 46.4207 50.1432C46.8213 50.1432 47.1448 49.8209 47.1448 49.4187V47.739Z" fill="white"/>
<path d="M26.025 35.5337H24.3475C23.9475 35.5337 23.623 35.8584 23.623 36.2585C23.623 36.6582 23.9475 36.9811 24.3475 36.9811H26.025C26.4251 36.9811 26.7495 36.6582 26.7495 36.2585C26.7495 35.8584 26.4251 35.5337 26.025 35.5337Z" fill="white"/>
<path d="M47.1448 51.0959C47.1448 50.698 46.8213 50.3711 46.4207 50.3711C46.0204 50.3711 45.6965 50.698 45.6965 51.0959V52.7731C45.6965 53.1734 46.0204 53.4997 46.4207 53.4997C46.8213 53.4997 47.1448 53.1734 47.1448 52.7731V51.0959Z" fill="white"/>
<path d="M22.6691 35.5337H20.9919C20.5906 35.5337 20.2671 35.8584 20.2671 36.2585C20.2671 36.6582 20.5906 36.9811 20.9919 36.9811H22.6691C23.0703 36.9811 23.3938 36.6582 23.3938 36.2585C23.3938 35.8584 23.0703 35.5337 22.6691 35.5337Z" fill="white"/>
<path d="M58.3873 61.6401H18.3607V20.5105H16.9133V62.3642C16.9133 62.7646 17.2368 63.089 17.6369 63.089H58.3873V61.6401Z" fill="white"/>
<path d="M17.6367 15.4265L19.9065 19.0592H15.3653L17.6367 15.4265ZM21.2129 20.5103C21.4777 20.5103 21.7211 20.3674 21.8467 20.1358C21.9764 19.9078 21.9687 19.6255 21.8295 19.3994L18.2505 13.6752C18.119 13.4607 17.8871 13.3333 17.6367 13.3333C17.3866 13.3333 17.1549 13.4607 17.0213 13.6752L13.4444 19.3994C13.3043 19.6255 13.2954 19.9078 13.4247 20.1358C13.5526 20.3674 13.794 20.5103 14.0589 20.5103H21.2129Z" fill="white"/>
<path d="M59.8358 64.6349V60.0918L63.4726 62.3641L59.8358 64.6349ZM65.5633 62.3641C65.5633 62.115 65.4349 61.883 65.2232 61.7497L59.4954 58.171C59.2736 58.0315 58.9912 58.0256 58.7611 58.1516C58.5304 58.2813 58.3872 58.5224 58.3872 58.7854V65.9413C58.3872 66.204 58.5304 66.4476 58.7611 66.5754C58.8693 66.6347 58.9912 66.6661 59.1126 66.6661C59.2453 66.6661 59.3777 66.6295 59.4954 66.5558L65.2232 62.9768C65.4349 62.8453 65.5633 62.6139 65.5633 62.3641Z" fill="white"/>
<path d="M20.7008 54.1378C20.844 54.2804 21.0295 54.3501 21.213 54.3501C21.4004 54.3501 21.5841 54.2804 21.726 54.1378L31.9343 43.9305L36.7558 48.775C36.9008 48.92 37.0981 48.9974 37.3048 48.9897C37.5076 48.9777 37.699 48.8834 37.8287 48.7249L45.6964 39.1741L46.455 38.2509L47.1447 38.987L49.6207 41.6286C49.7575 41.7773 49.9507 41.8511 50.1538 41.8584C50.3547 41.8566 50.548 41.7721 50.6844 41.6206L57.3327 34.3526L56.3087 33.3286L50.1433 40.0672L46.9496 36.6581C46.91 36.6157 46.8667 36.5832 46.82 36.5518C46.6955 36.4671 46.5477 36.4247 46.3978 36.4302C46.1904 36.436 45.9941 36.5328 45.8617 36.695L45.623 36.9811L37.2194 47.1881L32.4502 42.3918C32.3153 42.2551 32.1303 42.1795 31.9383 42.1795H31.9365C31.745 42.1795 31.5604 42.2551 31.424 42.39L20.7008 53.1135C20.4187 53.3955 20.4187 53.8558 20.7008 54.1378Z" fill="white"/>
<path d="M60.3593 30.1885L59.3949 34.3648L56.183 31.1526L60.3593 30.1885ZM59.2944 36.3145C59.4324 36.4518 59.6173 36.525 59.8066 36.525C59.8733 36.525 59.9418 36.5173 60.0054 36.4982C60.2601 36.4248 60.4536 36.2196 60.5139 35.9627L62.0328 29.3848C62.0891 29.1411 62.0153 28.8861 61.8393 28.7082C61.6629 28.5325 61.4067 28.459 61.163 28.5171L54.5832 30.0358C54.327 30.0939 54.123 30.2893 54.0499 30.5424C53.9783 30.7931 54.0477 31.0681 54.2333 31.2534L57.3327 34.3528L59.2944 36.3145Z" fill="white"/>
</svg>
