<svg width="80" height="80" viewBox="0 0 80 80" fill="none" xmlns="http://www.w3.org/2000/svg">
<rect width="80" height="80" rx="24" fill="#2771F9"/>
<path d="M57.4556 36.8896H22.5412V30.9998H57.4556V36.8896ZM58.9058 30.2778C58.9058 29.8784 58.5802 29.5527 58.1808 29.5527H21.8161C21.4167 29.5527 21.0911 29.8784 21.0911 30.2778V37.6146C21.0911 38.014 21.4167 38.3428 21.8161 38.3428H58.1808C58.5802 38.3428 58.9058 38.014 58.9058 37.6146V30.2778Z" fill="white"/>
<path d="M57.4556 48.9854H22.5412V43.0926H57.4556V48.9854ZM58.1808 41.6455H21.8161C21.4167 41.6455 21.0911 41.9712 21.0911 42.3706V49.7105C21.0911 50.1099 21.4167 50.4356 21.8161 50.4356H58.1808C58.5802 50.4356 58.9058 50.1099 58.9058 49.7105V42.3706C58.9058 41.9712 58.5802 41.6455 58.1808 41.6455Z" fill="white"/>
<path d="M21.638 57.2809C21.3645 56.989 20.9067 56.9767 20.6149 57.2502C20.323 57.5236 20.3076 57.9814 20.5841 58.2763C21.0818 58.8048 21.6103 59.3179 22.151 59.8094C22.2924 59.9323 22.4645 59.9938 22.6365 59.9938C22.8331 59.9938 23.0297 59.9139 23.1772 59.7572C23.4414 59.4561 23.4199 59.0014 23.1219 58.731C22.6088 58.2671 22.1081 57.7817 21.638 57.2809Z" fill="white"/>
<path d="M26.4215 61.2473C25.8409 60.8756 25.2663 60.4762 24.7194 60.0583C24.403 59.8125 23.9483 59.877 23.7025 60.1935C23.4598 60.513 23.5213 60.9647 23.8408 61.2105C24.4215 61.6529 25.0267 62.0738 25.6381 62.467C25.761 62.5439 25.8962 62.5807 26.0283 62.5807C26.2648 62.5807 26.5014 62.464 26.6397 62.2489C26.8547 61.911 26.7564 61.4624 26.4215 61.2473Z" fill="white"/>
<path d="M30.084 63.1892C29.4511 62.9157 28.8212 62.6177 28.2129 62.292C27.8596 62.1077 27.4202 62.2398 27.2359 62.5931C27.0454 62.9465 27.1806 63.3858 27.5339 63.5732C28.176 63.9142 28.8427 64.2307 29.5156 64.5195C29.6077 64.5595 29.703 64.581 29.8013 64.581C30.0809 64.581 30.3482 64.412 30.465 64.1385C30.6247 63.7729 30.4527 63.3458 30.084 63.1892Z" fill="white"/>
<path d="M16.2552 48.5002C16.0217 47.855 15.8128 47.1883 15.6346 46.5216C15.5301 46.1344 15.1368 45.9071 14.7466 46.0085C14.3595 46.1129 14.1322 46.5093 14.2336 46.8964C14.421 47.5999 14.6422 48.3035 14.888 48.9918C14.9955 49.2867 15.2721 49.471 15.5701 49.471C15.65 49.471 15.7329 49.4587 15.8158 49.428C16.1907 49.2928 16.3873 48.8781 16.2552 48.5002Z" fill="white"/>
<path d="M66.6543 39.1969C66.642 38.7975 66.3041 38.4841 65.9077 38.4934C65.5083 38.5057 65.1918 38.8375 65.2041 39.24C65.2133 39.4919 65.2164 39.7438 65.2164 39.9958C65.2164 40.684 65.1888 41.3814 65.1335 42.0665C65.0997 42.4629 65.3977 42.8131 65.7972 42.8469C65.8156 42.85 65.834 42.85 65.8555 42.85C66.2273 42.85 66.5437 42.5643 66.5744 42.1833C66.6358 41.4582 66.6635 40.7208 66.6635 39.9958C66.6635 39.7315 66.6604 39.4642 66.6543 39.1969Z" fill="white"/>
<path d="M38.1151 65.1401C37.4238 65.0909 36.7326 65.0111 36.0536 64.9036C35.6572 64.8421 35.2855 65.1094 35.224 65.5088C35.1626 65.9021 35.4329 66.2738 35.8293 66.3353C36.5451 66.4489 37.2794 66.5319 38.0076 66.5872C38.026 66.5903 38.0414 66.5903 38.0629 66.5903C38.4377 66.5903 38.7572 66.2984 38.7818 65.9205C38.8125 65.518 38.5115 65.1708 38.1151 65.1401Z" fill="white"/>
<path d="M20.2799 55.714C19.8467 55.1733 19.4381 54.611 19.051 54.0396C18.8297 53.7077 18.3812 53.6217 18.0463 53.843C17.7145 54.0672 17.6254 54.5158 17.8497 54.8476C18.2552 55.4528 18.6915 56.0458 19.1462 56.6173C19.2906 56.7955 19.4996 56.8907 19.7146 56.8907C19.8713 56.8907 20.0311 56.8385 20.1663 56.731C20.4796 56.479 20.5288 56.0243 20.2799 55.714Z" fill="white"/>
<path d="M14.5992 45.3385C14.9924 45.2678 15.2536 44.8899 15.183 44.4967C15.0601 43.8207 14.9617 43.1294 14.9003 42.4443C14.8603 42.0449 14.504 41.753 14.1107 41.793C13.7113 41.8298 13.4194 42.1832 13.4563 42.5795C13.5239 43.3077 13.6252 44.0358 13.7574 44.7547C13.8188 45.105 14.123 45.3508 14.4702 45.3508C14.5101 45.3508 14.5531 45.3477 14.5992 45.3385Z" fill="white"/>
<path d="M34.0196 64.498C33.3498 64.3352 32.68 64.1416 32.0256 63.9235C31.6477 63.7975 31.236 64.0034 31.11 64.3843C30.9841 64.7653 31.1899 65.1739 31.5678 65.2999C32.2591 65.5303 32.9689 65.7362 33.6786 65.9052C33.7339 65.9205 33.7923 65.9267 33.8476 65.9267C34.1763 65.9267 34.4712 65.7055 34.5511 65.3736C34.6463 64.9865 34.4067 64.5933 34.0196 64.498Z" fill="white"/>
<path d="M63.1919 51.6523C62.8385 51.4649 62.3991 51.5939 62.2087 51.9442C61.883 52.5525 61.5266 53.1516 61.1487 53.7292C60.9306 54.0672 61.0258 54.5157 61.3607 54.7308C61.4836 54.8138 61.6218 54.8506 61.757 54.8506C61.9905 54.8506 62.2271 54.7339 62.3623 54.5219C62.7617 53.9105 63.1396 53.2745 63.4837 52.6355C63.6742 52.2821 63.5452 51.8428 63.1919 51.6523Z" fill="white"/>
<path d="M60.9644 55.293C60.648 55.0472 60.1902 55.1056 59.9474 55.422C59.5265 55.9659 59.0749 56.5005 58.6109 57.0105C58.3406 57.3024 58.359 57.7601 58.6571 58.0336C58.7923 58.1595 58.9704 58.224 59.1424 58.224C59.3422 58.224 59.5388 58.1442 59.6801 57.9844C60.1717 57.4468 60.6479 56.8845 61.0934 56.3069C61.3392 55.9904 61.2809 55.5357 60.9644 55.293Z" fill="white"/>
<path d="M64.7895 47.6919C64.4116 47.5629 63.9969 47.7657 63.8709 48.1466C63.6466 48.798 63.3946 49.4493 63.1181 50.0792C62.9583 50.4448 63.1243 50.8718 63.493 51.0347C63.5852 51.0746 63.6835 51.0961 63.7818 51.0961C64.0614 51.0961 64.3256 50.9333 64.4454 50.6598C64.7373 49.9931 65.0046 49.3019 65.2412 48.6136C65.3702 48.2357 65.1674 47.824 64.7895 47.6919Z" fill="white"/>
<path d="M65.7113 43.529C65.315 43.4645 64.9463 43.7287 64.8787 44.125C64.7681 44.8071 64.6237 45.4922 64.4578 46.1559C64.3625 46.5461 64.596 46.9393 64.9831 47.0376C65.0446 47.0499 65.103 47.0561 65.1614 47.0561C65.484 47.0561 65.7789 46.8379 65.8619 46.5092C66.0401 45.8025 66.1906 45.0805 66.3104 44.3616C66.3719 43.9683 66.1077 43.5935 65.7113 43.529Z" fill="white"/>
<path d="M42.2628 65.1093C41.5777 65.1708 40.8772 65.2046 40.189 65.2107C39.7895 65.2138 39.4669 65.5395 39.47 65.9389C39.47 66.3383 39.7957 66.6578 40.1951 66.6578H40.1982C40.9294 66.6517 41.6667 66.6148 42.3887 66.5534C42.7882 66.5196 43.0831 66.1662 43.0463 65.7668C43.0125 65.3705 42.6591 65.0755 42.2628 65.1093Z" fill="white"/>
<path d="M14.2367 36.8435C14.2705 36.8496 14.3073 36.8527 14.3442 36.8527C14.6975 36.8527 15.0048 36.5946 15.0601 36.2351C15.1614 35.5531 15.2905 34.8649 15.4503 34.1982C15.5424 33.808 15.3028 33.4178 14.9126 33.3256C14.5224 33.2334 14.1322 33.4731 14.04 33.8664C13.8741 34.5761 13.7328 35.2981 13.6253 36.0201C13.5669 36.4164 13.8403 36.7851 14.2367 36.8435Z" fill="white"/>
<path d="M50.2571 63.0385C49.6273 63.3181 48.979 63.5761 48.3307 63.8035C47.9528 63.9325 47.7531 64.3473 47.8852 64.7252C47.9897 65.0232 48.2693 65.2107 48.5704 65.2107C48.6472 65.2107 48.7301 65.1984 48.807 65.1707C49.4952 64.9311 50.1833 64.6576 50.847 64.3627C51.2126 64.1998 51.3754 63.7697 51.2126 63.4041C51.0497 63.0385 50.6227 62.8756 50.2571 63.0385Z" fill="white"/>
<path d="M46.3459 64.4058C45.6792 64.5809 44.9971 64.7253 44.3181 64.8421C43.9218 64.9097 43.6576 65.2845 43.7251 65.6777C43.7866 66.0311 44.0939 66.2799 44.441 66.2799C44.481 66.2799 44.524 66.2769 44.5639 66.2707C45.2798 66.1478 46.0018 65.9911 46.7084 65.8099C47.0955 65.7085 47.329 65.3121 47.2276 64.925C47.1262 64.5379 46.7299 64.3044 46.3459 64.4058Z" fill="white"/>
<path d="M53.8887 61.0415C53.3142 61.4225 52.7151 61.785 52.1129 62.1168C51.7626 62.3104 51.6335 62.7497 51.8271 63.1C51.9592 63.3396 52.205 63.4779 52.4631 63.4779C52.5799 63.4779 52.6997 63.4471 52.8103 63.3857C53.4494 63.0385 54.0792 62.6545 54.6875 62.252C55.0224 62.0308 55.1115 61.5822 54.8934 61.2473C54.6722 60.9155 54.2205 60.8264 53.8887 61.0415Z" fill="white"/>
<path d="M57.1485 58.4822C56.6416 58.9492 56.1101 59.4039 55.5693 59.8279C55.2559 60.0767 55.2006 60.5314 55.4495 60.8479C55.5908 61.0291 55.8028 61.1275 56.021 61.1275C56.1746 61.1275 56.3343 61.0752 56.4664 60.9708C57.0379 60.5191 57.6001 60.0398 58.1347 59.5421C58.4266 59.2717 58.4451 58.814 58.1716 58.519C57.9013 58.2271 57.4404 58.2087 57.1485 58.4822Z" fill="white"/>
<path d="M17.9666 52.2729C17.6317 51.6707 17.3183 51.0471 17.0325 50.4234C16.8666 50.0578 16.4365 49.8949 16.074 50.0639C15.7084 50.2298 15.5456 50.66 15.7146 51.0225C16.0156 51.6831 16.3475 52.3436 16.7008 52.9796C16.836 53.2162 17.0818 53.3513 17.3368 53.3513C17.4566 53.3513 17.5764 53.3206 17.687 53.2592C18.0372 53.0626 18.1632 52.6201 17.9666 52.2729Z" fill="white"/>
<path d="M37.2854 14.9159C37.3131 14.9159 37.3377 14.9159 37.3622 14.9128C38.0474 14.8421 38.7448 14.7961 39.433 14.7838C39.8355 14.7746 40.152 14.4427 40.1428 14.0403C40.1305 13.6439 39.7986 13.3213 39.4023 13.3336C38.671 13.349 37.9368 13.3951 37.2117 13.4719C36.8123 13.5118 36.5265 13.8682 36.5665 14.2645C36.6033 14.6394 36.9198 14.9159 37.2854 14.9159Z" fill="white"/>
<path d="M41.507 14.8207C42.1952 14.8607 42.8927 14.9313 43.5717 15.0266C43.6055 15.0327 43.6423 15.0358 43.6731 15.0358C44.0295 15.0358 44.3397 14.7746 44.392 14.4121C44.4473 14.0157 44.1738 13.6502 43.7775 13.5918C43.0524 13.4904 42.3212 13.4136 41.5931 13.3736C41.1906 13.3552 40.8496 13.6532 40.8281 14.0526C40.8035 14.452 41.1076 14.7961 41.507 14.8207Z" fill="white"/>
<path d="M49.5658 16.6548C50.2018 16.916 50.8377 17.2078 51.4491 17.5182C51.5567 17.5735 51.6704 17.598 51.781 17.598C52.0421 17.598 52.2972 17.4537 52.4262 17.2048C52.6075 16.8484 52.4661 16.4121 52.1097 16.2278C51.4615 15.899 50.7886 15.5918 50.1158 15.3122C49.744 15.1617 49.3231 15.3368 49.1694 15.7085C49.0158 16.0772 49.194 16.5043 49.5658 16.6548Z" fill="white"/>
<path d="M45.6115 15.4013C46.2844 15.5549 46.9573 15.7392 47.6147 15.9451C47.6854 15.9666 47.7591 15.9789 47.8329 15.9789C48.1401 15.9789 48.4258 15.7823 48.5242 15.4751C48.644 15.091 48.432 14.6854 48.0511 14.5625C47.3567 14.3444 46.6439 14.1508 45.9342 13.9911C45.544 13.902 45.1568 14.1447 45.0677 14.5349C44.9786 14.9251 45.2214 15.3122 45.6115 15.4013Z" fill="white"/>
<path d="M33.0949 15.7026C33.1594 15.7026 33.2239 15.6964 33.2885 15.681C33.9521 15.4967 34.6311 15.3369 35.3101 15.211C35.7034 15.1372 35.9614 14.7593 35.8877 14.3661C35.8139 13.9728 35.436 13.7117 35.0428 13.7854C34.3238 13.9206 33.608 14.0865 32.9044 14.2801C32.5173 14.3876 32.293 14.787 32.3974 15.171C32.4865 15.4936 32.7784 15.7026 33.0949 15.7026Z" fill="white"/>
<path d="M14.0583 41.1048H14.0706C14.47 41.0986 14.7895 40.7699 14.7834 40.3705C14.7803 40.2445 14.7803 40.1185 14.7803 39.9956C14.7803 39.4303 14.7987 38.8589 14.8387 38.2966C14.8633 37.8972 14.5622 37.5531 14.1628 37.5254C13.7634 37.4978 13.4193 37.7989 13.3916 38.2014C13.3517 38.7944 13.3333 39.3965 13.3333 39.9956C13.3333 40.1247 13.3333 40.2599 13.3363 40.392C13.3394 40.7883 13.665 41.1048 14.0583 41.1048Z" fill="white"/>
<path d="M22.0743 21.9639C22.2556 21.9639 22.4337 21.8963 22.5751 21.7642C23.0728 21.2849 23.5982 20.8241 24.1328 20.3909C24.4431 20.1389 24.4892 19.6842 24.2403 19.3739C23.9884 19.0605 23.5306 19.0144 23.2203 19.2664C22.655 19.7242 22.1019 20.2127 21.5735 20.7165C21.2847 20.99 21.2755 21.4508 21.552 21.7396C21.6933 21.8902 21.8838 21.9639 22.0743 21.9639Z" fill="white"/>
<path d="M25.3862 19.2788C25.5276 19.2788 25.6719 19.2388 25.7979 19.1528C26.3663 18.7626 26.9562 18.3939 27.5553 18.0559C27.9025 17.8562 28.0254 17.4138 27.8288 17.0666C27.6291 16.7195 27.1866 16.5966 26.8395 16.7932C26.2066 17.1557 25.5798 17.5459 24.9776 17.9576C24.6488 18.1819 24.5628 18.6336 24.7901 18.9623C24.9284 19.1682 25.1558 19.2788 25.3862 19.2788Z" fill="white"/>
<path d="M29.0946 17.171C29.1991 17.171 29.3005 17.1495 29.3988 17.1065C30.0255 16.8146 30.6677 16.5473 31.3129 16.3107C31.6908 16.1725 31.8813 15.7577 31.7461 15.3829C31.6048 15.005 31.19 14.8145 30.8152 14.9497C30.13 15.2016 29.451 15.4843 28.7874 15.7915C28.4279 15.9574 28.2682 16.3906 28.4372 16.7531C28.56 17.0174 28.8212 17.171 29.0946 17.171Z" fill="white"/>
<path d="M61.8462 27.3868C62.1903 27.9828 62.5129 28.6004 62.8079 29.2241C62.9308 29.4852 63.1919 29.6388 63.4623 29.6388C63.5667 29.6388 63.6743 29.6173 63.7726 29.5651C64.132 29.3961 64.2887 28.966 64.1166 28.6034C63.8063 27.946 63.4654 27.2915 63.0997 26.6617C62.897 26.3145 62.4546 26.1978 62.1074 26.3975C61.7633 26.5972 61.6434 27.0396 61.8462 27.3868Z" fill="white"/>
<path d="M59.4803 23.9825C59.9197 24.5141 60.3406 25.0732 60.7308 25.6355C60.8721 25.8383 61.0995 25.9489 61.3299 25.9489C61.4712 25.9489 61.6156 25.9058 61.7415 25.8198C62.0703 25.5894 62.1502 25.1377 61.9228 24.8121C61.5081 24.213 61.0626 23.6231 60.6017 23.0608C60.3467 22.7505 59.889 22.7075 59.5817 22.9625C59.2714 23.2175 59.2253 23.6722 59.4803 23.9825Z" fill="white"/>
<path d="M53.2589 18.5415C53.8457 18.904 54.4232 19.2942 54.9763 19.7028C55.1053 19.8011 55.2559 19.8472 55.4065 19.8472C55.6277 19.8472 55.8458 19.7427 55.9902 19.5522C56.2267 19.2296 56.1592 18.775 55.8396 18.5415C55.2528 18.1083 54.6414 17.6904 54.0239 17.3064C53.6798 17.0974 53.2343 17.2019 53.0223 17.5399C52.8134 17.884 52.9178 18.3295 53.2589 18.5415Z" fill="white"/>
<path d="M18.8051 25.0086C18.9372 25.1069 19.0909 25.1561 19.2415 25.1561C19.4627 25.1561 19.6808 25.0516 19.8221 24.8642C20.2338 24.3143 20.6762 23.7704 21.134 23.2574C21.4013 22.9593 21.3737 22.5016 21.0726 22.2343C20.7746 21.967 20.3168 21.9946 20.0525 22.2957C19.5671 22.8426 19.1001 23.411 18.6638 23.9947C18.4211 24.3143 18.4856 24.7659 18.8051 25.0086Z" fill="white"/>
<path d="M16.6361 28.6803C16.7405 28.7386 16.8572 28.7663 16.9678 28.7663C17.229 28.7663 17.484 28.625 17.61 28.373C17.9295 27.7647 18.2767 27.1564 18.6453 26.5726C18.8573 26.2347 18.756 25.7892 18.4149 25.5741C18.077 25.3621 17.6315 25.4635 17.4195 25.8015C17.0293 26.419 16.6607 27.058 16.3258 27.7063C16.1414 28.0627 16.2797 28.499 16.6361 28.6803Z" fill="white"/>
<path d="M58.0978 22.434C58.2422 22.5815 58.4296 22.6521 58.6171 22.6521C58.7983 22.6521 58.9826 22.5876 59.124 22.4524C59.4097 22.1698 59.4189 21.712 59.1393 21.4263C58.6324 20.904 58.0978 20.3939 57.5479 19.9146C57.2468 19.6535 56.789 19.6811 56.5248 19.9822C56.2636 20.2833 56.2912 20.7411 56.5923 21.0054C57.1116 21.457 57.6186 21.9424 58.0978 22.434Z" fill="white"/>
<path d="M63.6158 31.135C63.8585 31.774 64.0767 32.4377 64.2641 33.1044C64.3532 33.4209 64.645 33.6298 64.9614 33.6298C65.026 33.6298 65.0905 33.6206 65.1581 33.6021C65.5422 33.4915 65.7695 33.0921 65.6589 32.708C65.4592 32.0045 65.2257 31.307 64.9707 30.625C64.8324 30.2501 64.4146 30.0597 64.0397 30.201C63.6649 30.3392 63.4745 30.7602 63.6158 31.135Z" fill="white"/>
<path d="M15.0937 32.6651C15.1705 32.6897 15.2442 32.6989 15.318 32.6989C15.6221 32.6989 15.9109 32.5053 16.0093 32.1981C16.2213 31.5467 16.4639 30.8893 16.7312 30.2564C16.8848 29.8846 16.7097 29.4575 16.341 29.307C15.9723 29.1503 15.5484 29.3254 15.3948 29.6941C15.1121 30.3669 14.8541 31.0583 14.6298 31.7495C14.5069 32.1336 14.7127 32.5391 15.0937 32.6651Z" fill="white"/>
<path d="M65.3178 34.272C64.9245 34.3488 64.6695 34.7267 64.7463 35.1199C64.8784 35.7959 64.9829 36.4841 65.0597 37.1723C65.1027 37.541 65.4131 37.8144 65.7787 37.8144C65.8063 37.8144 65.8309 37.8113 65.8586 37.8113C66.258 37.7653 66.5436 37.4058 66.5006 37.0095C66.4207 36.2844 66.3102 35.5562 66.1689 34.8434C66.0921 34.4471 65.7111 34.1921 65.3178 34.272Z" fill="white"/>
</svg>
