<svg width="80" height="80" viewBox="0 0 80 80" fill="none" xmlns="http://www.w3.org/2000/svg">
<rect width="80" height="80" rx="24" fill="#2771F9"/>
<path d="M30.7507 20.4613C30.7507 20.8637 31.0764 21.1864 31.4758 21.1864H33.6111C34.0105 21.1864 34.3362 20.8637 34.3362 20.4613C34.3362 20.0618 34.0105 19.7393 33.6111 19.7393H31.4758C31.0764 19.7393 30.7507 20.0618 30.7507 20.4613Z" fill="white"/>
<path d="M56.6569 53.9287H56.4387C56.0362 53.9287 55.7136 54.2513 55.7136 54.6538C55.7136 55.0532 56.0362 55.3789 56.4387 55.3789H56.6569C57.0593 55.3789 57.3819 55.0532 57.3819 54.6538C57.3819 54.2513 57.0593 53.9287 56.6569 53.9287Z" fill="white"/>
<path d="M50.033 53.9287H47.8946C47.4952 53.9287 47.1726 54.2513 47.1726 54.6538C47.1726 55.0532 47.4952 55.3789 47.8946 55.3789H50.033C50.4324 55.3789 50.755 55.0532 50.755 54.6538C50.755 54.2513 50.4324 53.9287 50.033 53.9287Z" fill="white"/>
<path d="M54.3004 53.9287H52.1651C51.7657 53.9287 51.4431 54.2513 51.4431 54.6538C51.4431 55.0532 51.7657 55.3789 52.1651 55.3789H54.3004C54.7029 55.3789 55.0255 55.0532 55.0255 54.6538C55.0255 54.2513 54.7029 53.9287 54.3004 53.9287Z" fill="white"/>
<path d="M64.3869 41.0215C63.8216 41.0215 63.3638 40.5637 63.3638 40.0015C63.3638 39.4331 63.8216 38.9784 64.3869 38.9784C64.9492 38.9784 65.4069 39.4331 65.4069 40.0015C65.4069 40.5637 64.9492 41.0215 64.3869 41.0215ZM41.212 64.1933C41.212 64.7587 40.7542 65.2164 40.192 65.2164C39.6297 65.2164 39.1688 64.7587 39.1688 64.1933C39.1688 63.628 39.6297 63.1733 40.192 63.1733C40.7542 63.1733 41.212 63.628 41.212 64.1933ZM15.8035 40.8279C15.2381 40.8279 14.7803 40.3702 14.7803 39.8079C14.7803 39.2395 15.2381 38.7848 15.8035 38.7848C16.3688 38.7848 16.8265 39.2395 16.8265 39.8079C16.8265 40.3702 16.3688 40.8279 15.8035 40.8279ZM39.1688 15.8035C39.1688 15.2381 39.6297 14.7803 40.192 14.7803C40.7542 14.7803 41.212 15.2381 41.212 15.8035C41.212 16.3688 40.7542 16.8265 40.192 16.8265C39.6297 16.8265 39.1688 16.3688 39.1688 15.8035ZM64.3869 37.5282C63.3054 37.5282 62.3868 38.2256 62.0519 39.1934H60.5341V37.9399C60.5341 37.5405 60.2085 37.2148 59.8091 37.2148C59.4097 37.2148 59.084 37.5405 59.084 37.9399V39.1934H52.8594V37.9399C52.8594 37.5405 52.5306 37.2148 52.1312 37.2148C51.7318 37.2148 51.4092 37.5405 51.4092 37.9399V39.1934H44.3489V37.9399C44.3489 37.5405 44.0263 37.2148 43.6238 37.2148C43.2244 37.2148 42.9018 37.5405 42.9018 37.9399V39.1934H41.0768V37.3715H42.3303C42.7297 37.3715 43.0554 37.0458 43.0554 36.6464C43.0554 36.247 42.7297 35.9214 42.3303 35.9214H41.0768V28.8641H42.3303C42.7297 28.8641 43.0554 28.5385 43.0554 28.139C43.0554 27.7396 42.7297 27.4139 42.3303 27.4139H41.0768V21.1863H42.3303C42.7297 21.1863 43.0554 20.8636 43.0554 20.4611C43.0554 20.0617 42.7297 19.7391 42.3303 19.7391H41.0768V18.1077C42.0046 17.7513 42.6621 16.8542 42.6621 15.8035C42.6621 14.4424 41.553 13.3333 40.192 13.3333C38.8278 13.3333 37.7218 14.4424 37.7218 15.8035C37.7218 16.971 38.5359 17.951 39.6297 18.206V19.7391H38.3762C38.2871 19.7391 38.2072 19.7545 38.1304 19.7852C38.0536 19.7545 37.9676 19.7391 37.8815 19.7391H35.7462C35.3468 19.7391 35.0211 20.0617 35.0211 20.4611C35.0211 20.8636 35.3468 21.1863 35.7462 21.1863H37.8815C37.9676 21.1863 38.0536 21.1678 38.1304 21.1402C38.2072 21.1678 38.2871 21.1863 38.3762 21.1863H39.6297V27.4139H38.3762C37.9737 27.4139 37.6511 27.7396 37.6511 28.139C37.6511 28.5385 37.9737 28.8641 38.3762 28.8641H39.6297V35.9214H38.3762C37.9737 35.9214 37.6511 36.247 37.6511 36.6464C37.6511 37.0458 37.9737 37.3715 38.3762 37.3715H39.6297V38.8647C35.8169 37.3008 33.1286 34.886 31.6262 31.6692C28.5999 25.1896 31.3834 17.5271 31.4111 17.4502C31.5524 17.0754 31.3619 16.6576 30.9871 16.5193C30.6123 16.378 30.1945 16.5685 30.0531 16.9433C29.9302 17.2782 27.0299 25.2356 30.3081 32.2744C31.2606 34.3176 32.6339 36.0627 34.422 37.5036C34.3268 37.6265 34.2715 37.7771 34.2715 37.9399V39.1934H26.3417V37.9399C26.3417 37.5405 26.0191 37.2148 25.6197 37.2148C25.2172 37.2148 24.8915 37.5405 24.8915 37.9399V39.1934H18.1937C17.9203 38.1273 16.9556 37.3346 15.8035 37.3346C14.4424 37.3346 13.3333 38.4438 13.3333 39.8079C13.3333 41.169 14.4424 42.275 15.8035 42.275C16.8726 42.275 17.782 41.596 18.1261 40.6436H24.8915V41.8971C24.8915 42.2965 25.2172 42.6222 25.6197 42.6222C26.0191 42.6222 26.3417 42.2965 26.3417 41.8971V40.6436H34.2715V41.8971C34.2715 42.2965 34.5972 42.6222 34.9966 42.6222C35.396 42.6222 35.7216 42.2965 35.7216 41.8971V40.6436H39.6297V44.5516H38.3762C37.9737 44.5516 37.6511 44.8773 37.6511 45.2736C37.6511 45.6761 37.9737 45.9987 38.3762 45.9987H39.6297V53.9285H38.3762C37.9737 53.9285 37.6511 54.2511 37.6511 54.6536C37.6511 55.053 37.9737 55.3787 38.3762 55.3787H39.6297V61.7877C38.5359 62.0488 37.7218 63.0258 37.7218 64.1933C37.7218 65.5575 38.8278 66.6666 40.192 66.6666C41.553 66.6666 42.6621 65.5575 42.6621 64.1933C42.6621 63.1426 42.0046 62.2455 41.0768 61.8891V55.3787H42.3303C42.6161 55.3787 42.8588 55.2128 42.9786 54.9762C43.0953 55.2128 43.338 55.3787 43.6238 55.3787H45.7621C46.1615 55.3787 46.4842 55.053 46.4842 54.6536C46.4842 54.2511 46.1615 53.9285 45.7621 53.9285H43.6238C43.338 53.9285 43.0953 54.0944 42.9786 54.3341C42.8588 54.0944 42.6161 53.9285 42.3303 53.9285H41.0768V45.9987H42.3303C42.7297 45.9987 43.0554 45.6761 43.0554 45.2736C43.0554 44.8773 42.7297 44.5516 42.3303 44.5516H41.0768V40.7818C41.5315 40.8771 42.1552 41.0215 42.9018 41.2427V41.8971C42.9018 42.2965 43.2244 42.6222 43.6238 42.6222C44.0263 42.6222 44.3489 42.2965 44.3489 41.8971V41.7189C45.6208 42.1767 47.0864 42.8188 48.5949 43.7098C54.3617 47.114 57.898 52.3248 59.0963 59.1946C59.1546 59.5448 59.4619 59.7937 59.8091 59.7937C59.849 59.7937 59.892 59.7906 59.935 59.7814C60.3283 59.7138 60.5925 59.339 60.5218 58.9426C58.9334 49.8423 53.5599 44.9572 49.3292 42.4624C48.0296 41.6944 46.7607 41.0983 45.6116 40.6436H51.4092V41.8971C51.4092 42.2965 51.7318 42.6222 52.1312 42.6222C52.5306 42.6222 52.8594 42.2965 52.8594 41.8971V40.6436H59.084V41.8971C59.084 42.2965 59.4097 42.6222 59.8091 42.6222C60.2085 42.6222 60.5341 42.2965 60.5341 41.8971V40.6436H62.0027C62.2885 41.6943 63.2471 42.4716 64.3869 42.4716C65.748 42.4716 66.8571 41.3595 66.8571 40.0015C66.8571 38.6373 65.748 37.5282 64.3869 37.5282Z" fill="white"/>
</svg>
