<svg width="80" height="80" viewBox="0 0 80 80" fill="none" xmlns="http://www.w3.org/2000/svg">
<rect width="80" height="80" rx="24" fill="#2771F9"/>
<path d="M25.3914 19.2817C25.5312 19.2817 25.6741 19.2417 25.7979 19.1557C26.3669 18.7686 26.9592 18.3969 27.5583 18.0558C27.9061 17.8592 28.0281 17.4168 27.8309 17.0696C27.6318 16.7224 27.1903 16.5995 26.8434 16.7992C26.2096 17.1587 25.5834 17.5489 24.9822 17.9606C24.6506 18.1848 24.5658 18.6365 24.7917 18.9652C24.9321 19.1711 25.1604 19.2817 25.3914 19.2817Z" fill="white"/>
<path d="M29.0968 17.1742C29.1991 17.1742 29.3036 17.1527 29.4022 17.1066C30.0262 16.8178 30.6717 16.5504 31.3154 16.3139C31.6921 16.1756 31.8853 15.7609 31.7461 15.386C31.6088 15.0081 31.1922 14.8176 30.8186 14.9528C30.1344 15.2048 29.4532 15.4843 28.7924 15.7916C28.428 15.9636 28.2719 16.3907 28.4397 16.7563C28.5625 17.0205 28.8231 17.1742 29.0968 17.1742Z" fill="white"/>
<path d="M14.238 36.8464C14.2745 36.8526 14.3114 36.8526 14.3461 36.8526C14.6988 36.8526 15.0091 36.5976 15.0611 36.235C15.1637 35.5561 15.2952 34.8678 15.4537 34.2011C15.5443 33.8109 15.3038 33.4177 14.9133 33.3286C14.524 33.2364 14.1335 33.476 14.0416 33.8662C13.8748 34.5759 13.7356 35.301 13.6293 36.023C13.5694 36.4194 13.8429 36.785 14.238 36.8464Z" fill="white"/>
<path d="M15.0978 32.6682C15.1721 32.6897 15.2465 32.702 15.322 32.702C15.6271 32.702 15.9113 32.5084 16.0118 32.2042C16.2247 31.5467 16.468 30.8923 16.7335 30.2563C16.8871 29.8876 16.7132 29.4637 16.3451 29.307C15.9761 29.1533 15.5519 29.3285 15.397 29.6941C15.115 30.3669 14.8581 31.0582 14.632 31.7526C14.5085 32.1335 14.7171 32.5453 15.0978 32.6682Z" fill="white"/>
<path d="M22.077 21.9702C22.2577 21.9702 22.4371 21.8995 22.5781 21.7643C23.0761 21.2881 23.6006 20.8303 24.1352 20.3971C24.4461 20.1421 24.4937 19.6843 24.2421 19.3771C23.9902 19.0637 23.5342 19.0176 23.223 19.2695C22.6577 19.7273 22.1028 20.2159 21.5765 20.7197C21.2874 20.9962 21.277 21.454 21.5541 21.7428C21.6954 21.8934 21.8865 21.9702 22.077 21.9702Z" fill="white"/>
<path d="M20.2805 55.7172C19.8495 55.1764 19.4381 54.6142 19.0534 54.0458C18.8313 53.7109 18.3812 53.6218 18.0488 53.8461C17.7163 54.0673 17.6281 54.5189 17.8512 54.8508C18.2574 55.4529 18.694 56.049 19.148 56.6205C19.2912 56.7986 19.5026 56.8939 19.7146 56.8939C19.8737 56.8939 20.0332 56.8417 20.1665 56.7341C20.4796 56.4822 20.5306 56.0275 20.2805 55.7172Z" fill="white"/>
<path d="M14.5991 45.3416C14.9933 45.2709 15.2551 44.896 15.1838 44.4997C15.0627 43.8238 14.9663 43.1325 14.9008 42.4443C14.8618 42.0449 14.5085 41.7561 14.1103 41.793C13.7121 41.8329 13.4206 42.1862 13.459 42.5856C13.5275 43.3107 13.6292 44.042 13.7576 44.7578C13.8203 45.1081 14.1266 45.3538 14.4707 45.3538C14.5131 45.3538 14.5558 45.3508 14.5991 45.3416Z" fill="white"/>
<path d="M16.6381 28.6863C16.7444 28.7416 16.8583 28.7692 16.9705 28.7692C17.2323 28.7692 17.4842 28.6248 17.6138 28.376C17.9318 27.7676 18.2787 27.1593 18.6468 26.5756C18.8603 26.2376 18.7589 25.7921 18.4197 25.577C18.0818 25.365 17.6341 25.4664 17.4206 25.8044C17.0322 26.4219 16.6651 27.061 16.3281 27.7093C16.1434 28.0626 16.2823 28.5019 16.6381 28.6863Z" fill="white"/>
<path d="M14.062 41.1079H14.0728C14.4722 41.1018 14.792 40.773 14.7856 40.3736C14.7837 40.2477 14.7837 40.1217 14.7837 39.9988C14.7837 39.4304 14.8021 38.862 14.8396 38.2998C14.8661 37.9004 14.564 37.5532 14.1643 37.5286C13.7643 37.501 13.4205 37.8051 13.3935 38.2014C13.3538 38.7944 13.3333 39.3997 13.3333 39.9988C13.3333 40.1278 13.3351 40.263 13.3369 40.3951C13.3431 40.7884 13.6657 41.1079 14.062 41.1079Z" fill="white"/>
<path d="M21.6411 57.2841C21.3667 56.9922 20.9071 56.9799 20.6161 57.2533C20.3249 57.5268 20.3117 57.9876 20.586 58.2764C21.0847 58.808 21.6144 59.3211 22.1551 59.8126C22.2927 59.9355 22.4663 59.997 22.6384 59.997C22.8375 59.997 23.0347 59.9171 23.1776 59.7573C23.4455 59.4593 23.4218 59.0046 23.1235 58.7342C22.6132 58.2734 22.1127 57.7849 21.6411 57.2841Z" fill="white"/>
<path d="M57.1506 58.4852C56.6443 58.9522 56.1149 59.407 55.5717 59.834C55.2586 60.0798 55.2046 60.5376 55.4507 60.851C55.5926 61.0323 55.8068 61.1306 56.0203 61.1306C56.1776 61.1306 56.3349 61.0752 56.4673 60.9739C57.0412 60.5222 57.6026 60.043 58.1353 59.5452C58.4278 59.2749 58.445 58.8171 58.175 58.5252C57.9003 58.2302 57.4425 58.2118 57.1506 58.4852Z" fill="white"/>
<path d="M18.8101 25.0117C18.9394 25.11 19.0924 25.1561 19.2439 25.1561C19.4648 25.1561 19.6817 25.0578 19.8242 24.8673C20.2381 24.3143 20.679 23.7735 21.1368 23.2604C21.4031 22.9593 21.3761 22.5046 21.0768 22.2373C20.7773 21.9731 20.3195 22.0008 20.0544 22.2988C19.5692 22.8426 19.1029 23.4141 18.665 23.9978C18.4257 24.3173 18.4893 24.7721 18.8101 25.0117Z" fill="white"/>
<path d="M17.9697 52.276C17.6332 51.6769 17.3183 51.0502 17.0341 50.4265C16.8679 50.0609 16.439 49.9011 16.0746 50.067C15.7105 50.2329 15.5502 50.66 15.7142 51.0225C16.0159 51.6862 16.3484 52.3467 16.7048 52.9827C16.8372 53.2193 17.0827 53.3514 17.3377 53.3514C17.4572 53.3514 17.5792 53.3237 17.6901 53.2623C18.0391 53.0656 18.1648 52.6232 17.9697 52.276Z" fill="white"/>
<path d="M16.2533 48.5033C16.0214 47.8581 15.8137 47.1914 15.637 46.5247C15.5328 46.1375 15.1344 45.9102 14.75 46.0146C14.3613 46.116 14.1334 46.5124 14.236 46.8995C14.4253 47.6031 14.6446 48.3066 14.891 48.9948C14.9973 49.2898 15.2748 49.4711 15.5725 49.4711C15.6545 49.4711 15.7356 49.4618 15.8164 49.4311C16.1934 49.2959 16.3897 48.8812 16.2533 48.5033Z" fill="white"/>
<path d="M26.4223 61.2503C25.8404 60.8786 25.2683 60.4761 24.7217 60.0582C24.4028 59.8155 23.9487 59.877 23.706 60.1965C23.4633 60.516 23.525 60.9677 23.8424 61.2104C24.4209 61.6528 25.0271 62.0768 25.6416 62.4701C25.7614 62.5469 25.8966 62.5838 26.0299 62.5838C26.2693 62.5838 26.5034 62.467 26.6426 62.2488C26.8567 61.914 26.7584 61.4654 26.4223 61.2503Z" fill="white"/>
<path d="M30.0864 63.1923C29.4531 62.9188 28.823 62.6177 28.2134 62.2951C27.8601 62.1077 27.422 62.2429 27.2349 62.5962C27.0472 62.9495 27.1817 63.3889 27.536 63.5763C28.1806 63.9173 28.8476 64.2338 29.5161 64.5226C29.6108 64.5625 29.7063 64.584 29.8019 64.584C30.0833 64.584 30.3509 64.4181 30.4686 64.1416C30.6265 63.776 30.4553 63.349 30.0864 63.1923Z" fill="white"/>
<path d="M34.0206 64.501C33.3521 64.3381 32.6823 64.1446 32.0273 63.9264C31.6478 63.8005 31.2371 64.0063 31.1114 64.3873C30.9848 64.7652 31.1897 65.1769 31.5692 65.3028C32.2623 65.5302 32.9714 65.736 33.6787 65.9112C33.7358 65.9204 33.7936 65.9296 33.8507 65.9296C34.177 65.9296 34.4729 65.7084 34.554 65.3766C34.6486 64.9895 34.4093 64.5962 34.0206 64.501Z" fill="white"/>
<path d="M63.1938 51.6554C62.8407 51.468 62.4011 51.597 62.2106 51.9503C61.8852 52.5556 61.5288 53.1547 61.1519 53.7323C60.9325 54.0672 61.0293 54.5189 61.3636 54.737C61.4861 54.8138 61.6222 54.8537 61.7577 54.8537C61.9952 54.8537 62.2272 54.737 62.3664 54.525C62.7645 53.9105 63.1415 53.2746 63.4872 52.6386C63.6767 52.2852 63.5452 51.8459 63.1938 51.6554Z" fill="white"/>
<path d="M66.6554 39.2001C66.644 38.8007 66.3104 38.4873 65.9107 38.4996C65.5106 38.5088 65.1954 38.8437 65.2071 39.2431C65.2142 39.492 65.2169 39.747 65.2169 39.9989C65.2169 40.6871 65.1899 41.3846 65.1337 42.0697C65.102 42.4691 65.3982 42.8193 65.7973 42.8501C65.8179 42.8531 65.8369 42.8531 65.8566 42.8531C66.2311 42.8531 66.5485 42.5674 66.5792 42.1865C66.6373 41.4645 66.668 40.7271 66.668 39.9989C66.668 39.7316 66.6643 39.4674 66.6554 39.2001Z" fill="white"/>
<path d="M65.3191 34.275C64.9268 34.3518 64.6709 34.7328 64.7471 35.123C64.8804 35.7989 64.9861 36.4902 65.0623 37.1753C65.1025 37.544 65.4168 37.8174 65.7809 37.8174C65.808 37.8174 65.835 37.8175 65.862 37.8144C66.2602 37.7714 66.5462 37.4119 66.5029 37.0125C66.4206 36.2905 66.3103 35.5593 66.1693 34.8465C66.0943 34.4532 65.7115 34.1951 65.3191 34.275Z" fill="white"/>
<path d="M65.7133 43.5322C65.3192 43.4676 64.9465 43.7318 64.8804 44.1282C64.7692 44.8072 64.6273 45.4923 64.4592 46.159C64.3624 46.5492 64.5984 46.9425 64.9861 47.0377C65.0457 47.0531 65.1047 47.0592 65.1628 47.0592C65.4872 47.0592 65.7819 46.8411 65.8664 46.5123C66.0427 45.8057 66.1926 45.0837 66.3103 44.3648C66.3764 43.9715 66.1097 43.5967 65.7133 43.5322Z" fill="white"/>
<path d="M50.2573 63.0415C49.6296 63.3211 48.9804 63.5792 48.3309 63.8065C47.9542 63.9386 47.7551 64.3503 47.8863 64.7282C47.9908 65.0263 48.271 65.2137 48.5705 65.2137C48.6498 65.2137 48.7306 65.2014 48.8099 65.1737C49.4962 64.931 50.1823 64.6606 50.8469 64.3626C51.2122 64.2028 51.3784 63.7727 51.214 63.4071C51.0518 63.0415 50.6229 62.8756 50.2573 63.0415Z" fill="white"/>
<path d="M58.1013 22.4372C58.2423 22.5846 58.4322 22.6584 58.6211 22.6584C58.803 22.6584 58.9852 22.5908 59.1256 22.4525C59.4126 22.173 59.419 21.7152 59.141 21.4294C58.6349 20.9102 58.0985 20.4002 57.5495 19.9178C57.2493 19.6536 56.7912 19.6843 56.5282 19.9854C56.2646 20.2896 56.2953 20.7443 56.5958 21.0085C57.1157 21.4632 57.6214 21.9425 58.1013 22.4372Z" fill="white"/>
<path d="M46.3478 64.4089C45.6792 64.584 44.9971 64.7284 44.32 64.8483C43.9246 64.9128 43.6607 65.2876 43.7273 65.6809C43.7894 66.0373 44.0945 66.283 44.4404 66.283C44.4831 66.283 44.5237 66.28 44.5661 66.2738C45.2832 66.1509 46.0049 65.9942 46.7112 65.813C47.0977 65.7116 47.3297 65.3183 47.2302 64.9281C47.1285 64.541 46.7333 64.3106 46.3478 64.4089Z" fill="white"/>
<path d="M38.1158 65.1432C37.4267 65.094 36.7339 65.0141 36.0549 64.9097C35.6591 64.8451 35.2883 65.1155 35.2266 65.5118C35.1648 65.9051 35.4355 66.2769 35.8297 66.3383C36.5464 66.452 37.2807 66.5349 38.0095 66.5902H38.0614C38.4381 66.5902 38.7564 66.3015 38.7844 65.9205C38.8145 65.5211 38.5155 65.1739 38.1158 65.1432Z" fill="white"/>
<path d="M42.2627 65.1154C41.5764 65.1738 40.8811 65.2076 40.1892 65.2137C39.7892 65.2168 39.4663 65.5425 39.4703 65.9419C39.473 66.3413 39.7965 66.6608 40.195 66.6608H40.1999C40.9315 66.6546 41.6673 66.6209 42.3902 66.5563C42.789 66.5225 43.0837 66.1692 43.0471 65.7698C43.0124 65.3735 42.6615 65.0785 42.2627 65.1154Z" fill="white"/>
<path d="M53.8892 61.0476C53.3162 61.4255 52.7183 61.785 52.1143 62.1198C51.7638 62.3103 51.6359 62.7527 51.8283 63.103C51.9598 63.3426 52.208 63.4778 52.4633 63.4778C52.5819 63.4778 52.7017 63.4471 52.8123 63.3887C53.4499 63.0416 54.0813 62.6575 54.6905 62.255C55.0229 62.0338 55.1157 61.5852 54.8945 61.2503C54.673 60.9185 54.2244 60.8264 53.8892 61.0476Z" fill="white"/>
<path d="M37.2883 14.9189C37.3147 14.9189 37.3396 14.9189 37.3657 14.9159C38.0481 14.8452 38.7446 14.7991 39.4352 14.7868C39.8356 14.7776 40.1523 14.4458 40.1434 14.0433C40.1351 13.647 39.8015 13.3213 39.4024 13.3336C38.673 13.352 37.9375 13.3981 37.2151 13.4749C36.817 13.5148 36.5282 13.8713 36.5693 14.2676C36.608 14.6424 36.9233 14.9189 37.2883 14.9189Z" fill="white"/>
<path d="M41.5111 14.8239C42.1981 14.8638 42.8925 14.9345 43.5761 15.0297C43.6096 15.0359 43.6446 15.0389 43.6775 15.0389C44.0329 15.0389 44.3429 14.7778 44.3943 14.4152C44.4505 14.0189 44.1749 13.6533 43.7776 13.5949C43.0581 13.4935 42.3226 13.4198 41.5962 13.3768C41.1941 13.3583 40.8543 13.6594 40.83 14.0588C40.8054 14.4552 41.1111 14.7993 41.5111 14.8239Z" fill="white"/>
<path d="M60.9657 55.2962C60.6483 55.0504 60.1945 55.1088 59.9491 55.4252C59.5266 55.9691 59.0771 56.5067 58.6126 57.0137C58.3422 57.3055 58.3625 57.7633 58.658 58.0368C58.7969 58.1658 58.9708 58.2242 59.1469 58.2242C59.342 58.2242 59.5392 58.1474 59.6814 57.9907C60.173 57.453 60.6483 56.8877 61.095 56.3132C61.3402 55.9967 61.2825 55.542 60.9657 55.2962Z" fill="white"/>
<path d="M33.0985 15.7087C33.1624 15.7087 33.2272 15.6994 33.2917 15.681C33.9557 15.4967 34.635 15.34 35.3124 15.214C35.706 15.1403 35.9647 14.7624 35.8891 14.366C35.8157 13.9758 35.4372 13.7147 35.0445 13.7915C34.3299 13.9236 33.61 14.0895 32.9074 14.2831C32.5212 14.3906 32.2947 14.79 32.4014 15.1741C32.4883 15.4967 32.7808 15.7087 33.0985 15.7087Z" fill="white"/>
<path d="M45.6144 15.4075C46.287 15.5581 46.9604 15.7393 47.6155 15.9482C47.6883 15.9698 47.7626 15.9851 47.8348 15.9851C48.143 15.9851 48.4275 15.7854 48.5258 15.4751C48.6456 15.0972 48.4349 14.6886 48.0542 14.5688C47.3592 14.3475 46.6477 14.1571 45.9364 13.9911C45.5459 13.902 45.1576 14.1478 45.0685 14.5411C44.9797 14.9282 45.2251 15.3184 45.6144 15.4075Z" fill="white"/>
<path d="M63.6168 31.1351C63.8602 31.7803 64.0768 32.4439 64.266 33.1075C64.356 33.424 64.6467 33.6329 64.9616 33.6329C65.0274 33.6329 65.0953 33.6268 65.1598 33.6083C65.5454 33.4977 65.7684 33.0983 65.6594 32.7143C65.4603 32.0107 65.2301 31.3102 64.9751 30.6281C64.8341 30.2533 64.416 30.0628 64.0408 30.2042C63.6672 30.3455 63.4774 30.7633 63.6168 31.1351Z" fill="white"/>
<path d="M59.4838 23.9857C59.9219 24.5172 60.3431 25.0764 60.7355 25.6387C60.8765 25.8414 61.1005 25.952 61.3303 25.952C61.4738 25.952 61.6166 25.909 61.7441 25.823C62.0726 25.5956 62.1537 25.1409 61.9257 24.8153C61.5103 24.2161 61.0658 23.6263 60.6018 23.064C60.3487 22.7568 59.8924 22.7107 59.5827 22.9657C59.2746 23.2207 59.23 23.6754 59.4838 23.9857Z" fill="white"/>
<path d="M61.8466 27.3929C62.1907 27.9858 62.5154 28.6065 62.8101 29.2271C62.9327 29.4913 63.1938 29.6418 63.466 29.6418C63.5683 29.6418 63.6749 29.6203 63.7751 29.5712C64.1364 29.4022 64.2913 28.969 64.1192 28.6064C63.8083 27.949 63.466 27.2976 63.1007 26.6647C62.9007 26.3206 62.4573 26.2008 62.1114 26.4036C61.7654 26.6033 61.6456 27.0426 61.8466 27.3929Z" fill="white"/>
<path d="M64.7916 47.6981C64.4128 47.566 64.0011 47.7688 63.8718 48.1497C63.6496 48.8011 63.3965 49.4524 63.1199 50.0823C62.9596 50.4479 63.127 50.8749 63.4948 51.0378C63.5879 51.0777 63.6862 51.0962 63.7839 51.0962C64.0632 51.0962 64.3289 50.9364 64.4478 50.6629C64.7394 49.9932 65.0082 49.3049 65.2426 48.6167C65.3723 48.2388 65.1701 47.8271 64.7916 47.6981Z" fill="white"/>
<path d="M49.5678 16.6581C50.2044 16.9161 50.8394 17.2111 51.4539 17.5214C51.5599 17.5767 51.6723 17.6013 51.782 17.6013C52.0459 17.6013 52.3 17.4569 52.4291 17.208C52.61 16.8516 52.4681 16.4154 52.1123 16.2341C51.4622 15.9023 50.7906 15.592 50.1174 15.3154C49.7484 15.1618 49.3241 15.34 49.1736 15.7118C49.0206 16.0835 49.1985 16.5045 49.5678 16.6581Z" fill="white"/>
<path d="M53.2614 18.5445C53.846 18.9071 54.4237 19.2973 54.9795 19.709C55.1088 19.8042 55.2606 19.8503 55.4102 19.8503C55.6311 19.8503 55.8498 19.7458 55.993 19.5553C56.2308 19.2358 56.1632 18.7811 55.8403 18.5445C55.2547 18.1082 54.6421 17.6935 54.0245 17.3125C53.6835 17.1005 53.238 17.205 53.0266 17.5429C52.8156 17.884 52.9216 18.3325 53.2614 18.5445Z" fill="white"/>
<path d="M53.1473 55.2624C52.7678 55.7324 52.2265 56.0305 51.6234 56.098C51.3899 56.1196 51.1542 56.1319 50.9259 56.1319C49.3317 56.1319 47.9365 55.5358 46.7788 54.353C44.3885 51.9196 43.2318 47.0253 43.2422 39.3997C43.2444 37.2644 43.3408 34.9878 43.5267 32.6374C43.5439 32.4377 43.4745 32.238 43.3372 32.0905C43.1998 31.9431 43.0063 31.857 42.8047 31.857H39.2961C39.0915 31.857 38.8942 31.9461 38.7572 32.0997C38.6198 32.2534 38.5541 32.4562 38.5771 32.662C38.7495 34.2043 38.8558 35.7159 38.8942 37.163C39.0604 43.2371 38.0364 47.7074 35.847 50.4418C34.2826 52.3989 32.1055 53.4773 29.5468 53.5511C29.5238 53.5541 29.5007 53.5542 29.4783 53.5542C28.2463 53.5542 27.2502 52.5863 27.2124 51.3543C27.194 50.7491 27.4137 50.1714 27.8269 49.7321C28.2444 49.2897 28.8048 49.0378 29.4116 49.0193C30.6464 48.9825 31.5641 48.5339 32.3027 47.6091C34.1615 45.2925 34.4494 40.7608 34.3628 37.3689C34.3222 35.8142 34.1975 34.1736 33.9879 32.493C33.9434 32.1305 33.634 31.857 33.269 31.857H31.0271C30.9767 31.857 30.9478 31.857 30.8842 31.8509C30.7758 31.8478 30.6658 31.8447 30.5518 31.8447C29.572 31.8447 27.5485 32.0752 26.8993 32.9416C26.4972 33.4792 26.7199 34.4655 26.9768 35.2029C27.1777 35.7743 27.143 36.3918 26.88 36.9357C26.6173 37.4825 26.1574 37.8942 25.585 38.0939C25.3417 38.18 25.0906 38.2199 24.8366 38.2199C23.8743 38.2199 23.0131 37.6116 22.6942 36.7021C21.5639 33.47 22.39 31.3839 23.2816 30.201C25.2569 27.5926 29.0079 27.3099 30.5284 27.3099C30.7198 27.3099 30.9036 27.3099 31.0735 27.3191H52.3537C53.6057 27.3191 54.6226 28.3392 54.6226 29.5896C54.6226 30.8401 53.6057 31.857 52.3537 31.857H48.8118C48.4358 31.857 48.1221 32.1458 48.0901 32.5207C47.9488 34.1982 47.7801 36.7605 47.7789 39.4673C47.7752 45.3662 48.613 49.7475 50.0177 51.1792C50.2227 51.3851 50.4881 51.597 50.9241 51.597C50.988 51.597 51.0534 51.5909 51.1373 51.5878C51.2196 51.5755 51.3026 51.5724 51.3859 51.5724C52.5435 51.5724 53.5116 52.442 53.6361 53.5972C53.7009 54.1994 53.5267 54.7892 53.1473 55.2624ZM51.3859 50.1254C51.266 50.1254 51.1471 50.1254 51.0282 50.1407C50.3471 49.4003 49.2235 46.3586 49.2275 39.4673C49.2291 37.1476 49.355 34.9294 49.4807 33.3072H52.3537C54.4042 33.3072 56.0721 31.6389 56.0721 29.5896C56.0721 27.5404 54.4042 25.872 52.3537 25.872H31.1257C30.9371 25.8628 30.7361 25.8567 30.5284 25.8567C28.7904 25.8567 24.4937 26.1977 22.1264 29.3284C21.0197 30.794 19.985 33.3441 21.3282 37.1815C21.849 38.6685 23.2586 39.6701 24.8366 39.6701C25.2529 39.6701 25.6664 39.6025 26.0646 39.4612C27.002 39.1324 27.7556 38.4626 28.1864 37.5655C28.6174 36.6684 28.6733 35.6637 28.3449 34.7236C28.1756 34.2412 28.1323 33.9186 28.1286 33.765C28.4432 33.5714 29.4387 33.2949 30.5518 33.2949C30.6406 33.2949 30.7278 33.2949 30.7991 33.301C30.8879 33.3041 30.9392 33.3072 31.0271 33.3072H32.6244C32.7839 34.7205 32.8803 36.0969 32.9132 37.4057C33.0254 41.7962 32.3918 45.185 31.1721 46.7058C30.7008 47.2926 30.177 47.5446 29.3674 47.5692C28.3741 47.5999 27.453 48.0146 26.7722 48.7367C26.0916 49.4617 25.734 50.405 25.7638 51.3973C25.8252 53.419 27.4579 55.0012 29.4783 55.0012C29.5179 55.0012 29.5563 55.0012 29.5923 54.9982C32.5866 54.9091 35.1407 53.6463 36.9792 51.3482C39.3879 48.3372 40.5198 43.5505 40.3438 37.1231C40.3109 35.8911 40.2285 34.6099 40.101 33.3072H42.0228C41.8741 35.4148 41.797 37.461 41.793 39.3966C41.7813 47.4217 43.0742 52.6447 45.7453 55.3699C47.1656 56.817 48.9568 57.582 50.9259 57.582C51.207 57.582 51.494 57.5667 51.78 57.5359C52.7678 57.4284 53.6548 56.943 54.277 56.1687C54.8988 55.3976 55.183 54.4267 55.077 53.4405C54.8724 51.551 53.2858 50.1254 51.3859 50.1254Z" fill="white"/>
</svg>
