<svg width="80" height="80" viewBox="0 0 80 80" fill="none" xmlns="http://www.w3.org/2000/svg">
<rect width="80" height="80" rx="24" fill="#2771F9"/>
<path d="M30.2866 56.5977H19.8897V45.0241H30.2866V56.5977ZM19.1646 43.5767C18.7652 43.5767 18.4426 43.9011 18.4426 44.2993V57.3243C18.4426 57.7225 18.7652 58.0469 19.1646 58.0469H31.0086C31.4111 58.0469 31.7368 57.7225 31.7368 57.3243V44.2993C31.7368 43.9011 31.4111 43.5767 31.0086 43.5767H19.1646Z" fill="white"/>
<path d="M44.1152 56.5978H33.7183V34.1173H44.1152V56.5978ZM32.2712 33.3943V57.3226C32.2712 57.7226 32.5938 58.0452 32.9932 58.0452H44.8372C45.2366 58.0452 45.5623 57.7226 45.5623 57.3226V33.3943C45.5623 32.9943 45.2366 32.6677 44.8372 32.6677H32.9932C32.5938 32.6677 32.2712 32.9943 32.2712 33.3943Z" fill="white"/>
<path d="M47.9526 26.4005H58.3465V56.9414H47.9526V26.4005ZM47.2276 58.3888H59.0716C59.471 58.3888 59.7966 58.0662 59.7966 57.6665V25.6779C59.7966 25.2757 59.471 24.9509 59.0716 24.9509H47.2276C46.8281 24.9509 46.5024 25.2757 46.5024 25.6779V57.6665C46.5024 58.0662 46.8281 58.3888 47.2276 58.3888Z" fill="white"/>
<path d="M17.9633 58.9362V22.5417H16.5132V59.6625C16.5132 60.0628 16.8388 60.3854 17.2382 60.3854H60.1286V58.9362H17.9633Z" fill="white"/>
<path d="M17.2381 18.0929L19.1092 21.0921H15.364L17.2381 18.0929ZM20.418 22.5417C20.6823 22.5417 20.925 22.3967 21.051 22.1687C21.18 21.9367 21.1708 21.6565 21.0325 21.4323L17.8526 16.342C17.7205 16.1312 17.49 16 17.2381 16C16.9892 16 16.7557 16.1312 16.6236 16.342L13.4407 21.4323C13.3055 21.6544 13.2963 21.9367 13.4222 22.1687C13.5513 22.3967 13.794 22.5417 14.0552 22.5417H20.418Z" fill="white"/>
<path d="M61.5757 61.5354V57.788L64.5744 59.6606L61.5757 61.5354ZM66.3256 59.0462L61.2347 55.8672C61.0135 55.728 60.7308 55.7206 60.4973 55.846C60.27 55.9756 60.1287 56.2168 60.1287 56.4816V62.8433C60.1287 63.1045 60.27 63.3481 60.4973 63.4774C60.6079 63.5352 60.7309 63.5662 60.8507 63.5662C60.9859 63.5662 61.118 63.5275 61.2347 63.4562L66.3256 60.2751C66.5376 60.1436 66.6667 59.9101 66.6667 59.6606C66.6667 59.4118 66.5376 59.1795 66.3256 59.0462Z" fill="white"/>
<path d="M26.9715 25.4753H30.4802C30.8796 25.4753 31.2052 25.1487 31.2052 24.7502C31.2052 24.3487 30.8796 24.0239 30.4802 24.0239H26.9715C26.5721 24.0239 26.2495 24.3487 26.2495 24.7502C26.2495 25.1487 26.5721 25.4753 26.9715 25.4753Z" fill="white"/>
<path d="M41.0061 25.4753H42.9294C43.3288 25.4753 43.6545 25.1487 43.6545 24.7502C43.6545 24.3487 43.3288 24.0239 42.9294 24.0239H41.0061C40.6036 24.0239 40.281 24.3487 40.281 24.7502C40.281 25.1487 40.6036 25.4753 41.0061 25.4753Z" fill="white"/>
<path d="M33.9887 25.4753H37.4974C37.8968 25.4753 38.2225 25.1487 38.2225 24.7502C38.2225 24.3487 37.8968 24.0239 37.4974 24.0239H33.9887C33.5893 24.0239 33.2637 24.3487 33.2637 24.7502C33.2637 25.1487 33.5893 25.4753 33.9887 25.4753Z" fill="white"/>
<path d="M19.2322 24.7502C19.2322 25.1487 19.5579 25.4753 19.9573 25.4753H23.4628C23.8653 25.4753 24.188 25.1487 24.188 24.7502C24.188 24.3487 23.8653 24.0239 23.4628 24.0239H19.9573C19.5579 24.0239 19.2322 24.3487 19.2322 24.7502Z" fill="white"/>
</svg>
