<svg width="80" height="80" viewBox="0 0 80 80" fill="none" xmlns="http://www.w3.org/2000/svg">
<rect width="80" height="80" rx="24" fill="#2771F9"/>
<path d="M54.9639 60.1959H17.4502V32.0191H16.7251C16.3257 32.0191 16 31.6965 16 31.2971V60.921C16 61.3173 16.3257 61.646 16.7251 61.646H55.8333C55.4186 61.2558 55.1113 60.7612 54.9639 60.1959Z" fill="white"/>
<path d="M16.7251 32.0194H50.088C50.6042 31.4817 51.1756 30.9963 51.7901 30.5692H17.4502V23.2139H27.3617C27.4446 22.9159 27.4907 22.5995 27.4907 22.2707C27.4907 22.0987 27.4784 21.9328 27.4569 21.7668H20.5502C20.5256 21.9328 20.5133 22.0987 20.5133 22.2707C20.5133 22.6701 20.1877 22.9958 19.7883 22.9958C19.3889 22.9958 19.0632 22.6701 19.0632 22.2707C19.0632 22.0987 19.0724 21.9328 19.0908 21.7668H16.7251C16.3257 21.7668 16 22.0925 16 22.4919V31.2974C16 31.6968 16.3257 32.0194 16.7251 32.0194Z" fill="white"/>
<path d="M45.9311 22.4213C45.9311 22.197 45.9065 21.9788 45.8666 21.7668H39.0152C38.9722 21.9788 38.9507 22.197 38.9507 22.4213C38.9507 22.8207 38.6281 23.1433 38.2287 23.1433C38.0351 23.1433 37.8631 23.0726 37.7309 22.9497C37.7248 23.0357 37.7125 23.1248 37.7002 23.2139H45.8389C45.8973 22.9589 45.9311 22.6978 45.9311 22.4213Z" fill="white"/>
<path d="M55.7502 23.2139H57.4216V28.6152C57.6613 28.5967 57.904 28.5875 58.1467 28.5875C58.3894 28.5875 58.6291 28.5998 58.8687 28.6152V22.4919C58.8687 22.0925 58.5461 21.7668 58.1467 21.7668H55.7502C55.7871 22.0034 55.8056 22.2431 55.8056 22.4919C55.8056 22.7377 55.7871 22.9773 55.7502 23.2139Z" fill="white"/>
<path d="M54.3556 22.4919C54.3556 22.2431 54.331 22.0003 54.2819 21.7668H47.455C47.4059 22.0003 47.3782 22.2431 47.3782 22.4919L47.3752 22.5134C47.3721 22.7562 47.3506 22.9866 47.3137 23.2139H54.2819C54.331 22.9835 54.3556 22.7377 54.3556 22.4919Z" fill="white"/>
<path d="M36.3053 22.4919C36.3053 22.2431 36.2807 22.0003 36.2285 21.7668H29.4047C29.3525 22.0003 29.3279 22.2431 29.3279 22.4919C29.3279 22.8022 29.1313 23.0634 28.8579 23.1679C28.8548 23.1832 28.8517 23.1986 28.8486 23.2139H36.2285C36.2807 22.9835 36.3053 22.7377 36.3053 22.4919Z" fill="white"/>
<path d="M19.7883 39.273H27.5061L28.6797 43.8079C28.7596 44.1059 29.0147 44.324 29.3188 44.3486C29.3403 44.3517 29.3618 44.3517 29.3833 44.3517C29.6629 44.3517 29.921 44.1888 30.0408 43.9308L33.7983 35.7183H42.361C42.7604 35.7183 43.0861 35.3957 43.0861 34.9932C43.0861 34.5938 42.7604 34.2712 42.361 34.2712H33.3313C33.0487 34.2712 32.7906 34.4371 32.6738 34.6922L29.5707 41.4729L28.7689 38.3667C28.6859 38.0472 28.394 37.8229 28.0653 37.8229H19.7883C19.3889 37.8229 19.0632 38.1486 19.0632 38.548C19.0632 38.9474 19.3889 39.273 19.7883 39.273Z" fill="white"/>
<path d="M35.5525 37.6785C35.2698 37.3959 34.812 37.3959 34.5294 37.6785C34.2467 37.9643 34.2467 38.4221 34.5294 38.7047L36.9135 41.0889L37.9366 40.0627L35.5525 37.6785Z" fill="white"/>
<path d="M40.3209 44.4961C40.4623 44.6374 40.6497 44.7081 40.834 44.7081C41.0184 44.7081 41.2058 44.6374 41.3471 44.4961C41.6298 44.2135 41.6298 43.7557 41.3471 43.473L38.9629 41.0889L37.9368 42.112L40.3209 44.4961Z" fill="white"/>
<path d="M41.347 37.6785C41.0643 37.3959 40.6035 37.3959 40.3208 37.6785L37.9366 40.0627L36.9135 41.0889L34.5294 43.473C34.2467 43.7557 34.2467 44.2135 34.5294 44.4961C34.6707 44.6375 34.8581 44.7081 35.0425 44.7081C35.2268 44.7081 35.4142 44.6375 35.5525 44.4961L37.9366 42.112L38.9628 41.0889L41.347 38.7047C41.6296 38.4221 41.6296 37.9643 41.347 37.6785Z" fill="white"/>
<path d="M47.3781 22.4212C47.3781 22.4519 47.375 22.4827 47.375 22.5134L47.3781 22.4919C47.3781 22.243 47.4058 22.0003 47.4549 21.7668C47.7898 20.1876 49.1908 19.0047 50.8683 19.0047C52.5428 19.0047 53.9469 20.1876 54.2818 21.7668C54.3309 22.0003 54.3555 22.243 54.3555 22.4919C54.3555 22.7377 54.3309 22.9835 54.2818 23.2139C53.9469 24.79 52.5428 25.979 50.8683 25.979C50.4689 25.979 50.1432 26.3047 50.1432 26.7041C50.1432 27.1035 50.4689 27.4292 50.8683 27.4292C53.3447 27.4292 55.4001 25.595 55.7503 23.2139C55.7872 22.9773 55.8056 22.7377 55.8056 22.4919C55.8056 22.243 55.7872 22.0034 55.7503 21.7668C55.4001 19.3857 53.3447 17.5515 50.8683 17.5515C49.0986 17.5515 47.5471 18.4855 46.6746 19.8834C47.1201 20.63 47.3781 21.4934 47.3781 22.4212Z" fill="white"/>
<path d="M37.7556 22.4918C37.7556 22.6455 37.7464 22.796 37.731 22.9496C37.8631 23.0725 38.0352 23.1432 38.2287 23.1432C38.6281 23.1432 38.9507 22.8206 38.9507 22.4212C38.9507 22.1969 38.9722 21.9788 39.0152 21.7668C39.3225 20.1538 40.7388 18.931 42.4409 18.931C44.14 18.931 45.5594 20.1538 45.8666 21.7668C45.9066 21.9788 45.9311 22.1969 45.9311 22.4212C45.9311 22.6977 45.8973 22.9588 45.839 23.2138C45.4764 24.7562 44.0908 25.9114 42.4409 25.9114C42.0415 25.9114 41.7159 26.234 41.7159 26.6334C41.7159 27.0359 42.0415 27.3585 42.4409 27.3585C44.8927 27.3585 46.9327 25.5611 47.3137 23.2138C47.3506 22.9865 47.3721 22.7561 47.3751 22.5134C47.3751 22.4826 47.3782 22.4519 47.3782 22.4212C47.3782 21.4933 47.1202 20.63 46.6747 19.8834C45.8113 18.4455 44.2383 17.4839 42.4409 17.4839C40.0844 17.4839 38.1119 19.143 37.6204 21.352C37.7064 21.7176 37.7556 22.0986 37.7556 22.4918Z" fill="white"/>
<path d="M28.9408 22.2707C28.9408 22.5779 28.9101 22.8759 28.8579 23.1678C29.1313 23.0634 29.3279 22.8022 29.3279 22.4919C29.3279 22.243 29.3525 22.0003 29.4047 21.7668C29.7365 20.1876 31.1406 19.0047 32.8151 19.0047C34.4926 19.0047 35.8936 20.1876 36.2285 21.7668C36.2807 22.0003 36.3053 22.243 36.3053 22.4919C36.3053 22.7377 36.2807 22.9835 36.2285 23.2139C35.8936 24.79 34.4926 25.979 32.8151 25.979C32.4157 25.979 32.0931 26.3047 32.0931 26.7041C32.0931 27.1035 32.4157 27.4292 32.8151 27.4292C35.2945 27.4292 37.3499 25.595 37.7001 23.2139C37.7124 23.1248 37.7247 23.0357 37.7309 22.9497C37.7463 22.796 37.7555 22.6455 37.7555 22.4919C37.7555 22.0986 37.7063 21.7177 37.6203 21.352C37.1041 19.1737 35.147 17.5515 32.8151 17.5515C30.9348 17.5515 29.3003 18.6084 28.4646 20.16C28.7688 20.8021 28.9408 21.5149 28.9408 22.2707Z" fill="white"/>
<path d="M19.7883 22.9956C20.1877 22.9956 20.5134 22.6699 20.5134 22.2705C20.5134 22.0985 20.5257 21.9326 20.5503 21.7667C20.796 20.083 22.2493 18.7803 24.0036 18.7803C25.7548 18.7803 27.2081 20.083 27.4569 21.7667C27.4784 21.9326 27.4907 22.0985 27.4907 22.2705C27.4907 22.5993 27.4447 22.9157 27.3617 23.2137C26.9469 24.6793 25.6012 25.7577 24.0036 25.7577C23.6011 25.7577 23.2785 26.0833 23.2785 26.4828C23.2785 26.8852 23.6011 27.2109 24.0036 27.2109C26.4031 27.2109 28.4063 25.4904 28.8487 23.2137C28.8518 23.1984 28.8549 23.183 28.858 23.1677C28.9102 22.8758 28.9409 22.5778 28.9409 22.2705C28.9409 21.5147 28.7689 20.8019 28.4647 20.1598C27.672 18.4915 25.9699 17.3333 24.0036 17.3333C21.4505 17.3333 19.3428 19.278 19.0909 21.7667C19.0724 21.9326 19.0632 22.0985 19.0632 22.2705C19.0632 22.6699 19.3889 22.9956 19.7883 22.9956Z" fill="white"/>
<path d="M40.8339 48.481H20.9433C20.5439 48.481 20.2183 48.8035 20.2183 49.203C20.2183 49.6054 20.5439 49.9311 20.9433 49.9311H40.8339C41.2333 49.9311 41.559 49.6054 41.559 49.203C41.559 48.8035 41.2333 48.481 40.8339 48.481Z" fill="white"/>
<path d="M40.8339 54.0728H20.9433C20.5439 54.0728 20.2183 54.3984 20.2183 54.7978C20.2183 55.1972 20.5439 55.5229 20.9433 55.5229H40.8339C41.2333 55.5229 41.559 55.1972 41.559 54.7978C41.559 54.3984 41.2333 54.0728 40.8339 54.0728Z" fill="white"/>
<path d="M59.4188 59.9165C59.2068 60.5525 58.6076 61.0102 57.9041 61.0102C57.1974 61.0102 56.5983 60.5525 56.3894 59.9165H54.9023C54.9177 60.0087 54.9362 60.1039 54.9638 60.1961C55.1113 60.7614 55.4185 61.2561 55.8333 61.6463C56.3802 62.1501 57.1052 62.4604 57.9041 62.4604C59.4126 62.4604 60.6631 61.3574 60.9027 59.9165H59.4188Z" fill="white"/>
<path d="M60.995 57.6736V58.4663H54.9117V57.6736H53.566C53.5291 57.6736 53.4984 57.6675 53.4646 57.6614V59.1914C53.4646 59.5908 53.7872 59.9165 54.1866 59.9165H61.7201C62.1195 59.9165 62.4451 59.5908 62.4451 59.1914V57.6614C62.4113 57.6675 62.3776 57.6736 62.3438 57.6736H60.995Z" fill="white"/>
<path d="M58.8689 28.615C58.6292 28.5997 58.3896 28.5874 58.1469 28.5874C57.9042 28.5874 57.6614 28.5966 57.4218 28.615C57.2037 28.6273 56.9886 28.6458 56.7735 28.6765C54.9301 28.9008 53.2341 29.5705 51.7901 30.5691C51.1756 30.9961 50.6042 31.4816 50.088 32.0192C48.1432 34.0408 46.9573 36.7875 46.9573 39.777C46.9573 42.4745 47.9312 45.0799 49.6917 47.1015C50.0143 47.4825 51.6672 49.5072 52.7948 51.9866C52.8101 52.0204 52.8255 52.0542 52.8409 52.0911V51.9344C52.8409 51.535 53.1665 51.2093 53.566 51.2093H54.033C52.8624 48.7084 51.2709 46.7267 50.7947 46.1614C49.2554 44.3917 48.4075 42.1243 48.4075 39.777C48.4075 34.8612 52.082 30.7073 56.9548 30.1144C57.3481 30.0621 57.7475 30.0406 58.1469 30.0406C63.5143 30.0406 67.8832 34.4065 67.8832 39.777C67.8832 42.4223 66.8386 44.8956 64.946 46.7451C64.9215 46.7666 64.8969 46.7943 64.8785 46.8219C64.1687 47.7406 63.1456 49.1999 62.3069 50.9235C62.2884 50.9604 62.2762 50.9942 62.2639 51.0311C62.2454 51.0894 62.2208 51.1509 62.1993 51.2093H62.3437C62.7432 51.2093 63.0688 51.535 63.0688 51.9344V52.7516C63.2993 52.3675 63.4897 51.9528 63.6311 51.5104C64.4422 49.8636 65.4468 48.4595 65.9937 47.7436C68.1444 45.6268 69.3334 42.7971 69.3334 39.777C69.3334 33.8504 64.7033 28.9899 58.8689 28.615Z" fill="white"/>
<path d="M61.6186 52.6563V53.9375C61.7446 54.0696 61.8214 54.2447 61.8214 54.4413C61.8214 54.6349 61.7446 54.8131 61.6186 54.9452V56.2233H54.291V54.9452C54.165 54.8131 54.0851 54.6349 54.0851 54.4413C54.0851 54.2447 54.165 54.0696 54.291 53.9375V52.6563H61.6186ZM62.3437 51.2092H58.6783V51.4796C58.6783 51.882 58.3527 52.2047 57.9533 52.2047C57.5538 52.2047 57.2282 51.882 57.2282 51.4796V51.2092H53.5659C53.1665 51.2092 52.8408 51.5349 52.8408 51.9343V56.9484C52.8408 57.314 53.1112 57.6121 53.4645 57.6612C53.4983 57.6674 53.529 57.6735 53.5659 57.6735H62.3437C62.3775 57.6735 62.4113 57.6674 62.4451 57.6612C62.7953 57.6121 63.0688 57.314 63.0688 56.9484V51.9343C63.0688 51.5349 62.7431 51.2092 62.3437 51.2092Z" fill="white"/>
<path d="M61.0994 53.7163H54.8103C54.6075 53.7163 54.4201 53.8023 54.291 53.9375C54.1651 54.0696 54.0852 54.2448 54.0852 54.4414C54.0852 54.6349 54.1651 54.8131 54.291 54.9453C54.4201 55.0804 54.6075 55.1665 54.8103 55.1665H61.0994C61.3022 55.1665 61.4866 55.0804 61.6187 54.9453C61.7446 54.8131 61.8214 54.6349 61.8214 54.4414C61.8214 54.2448 61.7446 54.0696 61.6187 53.9375C61.4866 53.8023 61.3022 53.7163 61.0994 53.7163Z" fill="white"/>
<path d="M57.9533 40.8738C57.5539 40.8738 57.2283 41.1964 57.2283 41.5989V51.4796C57.2283 51.8821 57.5539 52.2047 57.9533 52.2047C58.3528 52.2047 58.6784 51.8821 58.6784 51.4796V41.5989C58.6784 41.1964 58.3528 40.8738 57.9533 40.8738Z" fill="white"/>
</svg>
