<svg viewBox="0 0 61 27">
  <path d="M2.41 11.454l-.147.056a3.256 3.256 0 01-.453.114 5.222 5.222 0 01-.656.079H.94v-.52h.215c.355-.016.683-.072.985-.17.301-.099.513-.19.633-.272a2.89 2.89 0 00.317-.25c.015-.022.06-.033.136-.033.068 0 .132.023.192.068v3.383l.012 3.395a.449.449 0 00.135.102c.038.015.129.03.272.045.143.015.377.023.702.023h.294v.52h-.125c-.158-.022-.758-.034-1.799-.034-1.026 0-1.618.012-1.776.034H.996v-.52h.724c.12 0 .215-.004.283-.012.068-.007.128-.018.18-.034a.673.673 0 01.091-.022c.008 0 .03-.02.068-.057.038-.038.06-.053.068-.045v-5.85zm4.481 1.686a.618.618 0 01-.486-.204.723.723 0 01-.181-.498c0-.535.2-1 .6-1.392.4-.392.897-.588 1.493-.588.686 0 1.26.211 1.72.634.46.422.694.969.701 1.64 0 .325-.075.634-.226.928-.15.294-.332.551-.543.77-.211.219-.513.498-.905.837-.272.234-.649.581-1.132 1.041l-.667.634.86.011c1.184 0 1.814-.019 1.89-.056.052-.015.143-.351.27-1.007v-.035h.454v.034c-.008.023-.057.366-.148 1.03-.09.664-.147 1.011-.17 1.041v.034H6.225v-.351c0-.052.022-.109.067-.17.046-.06.159-.192.34-.395.219-.242.407-.453.566-.634l.384-.419c.189-.203.317-.343.385-.418.068-.076.177-.2.328-.374.151-.173.257-.302.317-.385.06-.083.147-.196.26-.339.114-.143.193-.264.238-.362.045-.098.102-.208.17-.328.068-.121.117-.242.147-.362.03-.121.056-.234.08-.34.022-.106.033-.23.033-.373 0-.476-.128-.887-.385-1.234-.256-.347-.622-.52-1.097-.52a1.14 1.14 0 00-.657.192c-.188.128-.32.253-.396.374-.075.12-.113.192-.113.215 0 .007.02.01.057.01a.71.71 0 01.418.16c.144.105.215.278.215.52 0 .188-.06.347-.18.475-.121.128-.291.196-.51.204zm5.307 4.175a.67.67 0 01.193-.475.64.64 0 01.486-.204c.181 0 .34.06.475.181a.684.684 0 01.023.973.64.64 0 01-.486.204.66.66 0 01-.487-.192.7.7 0 01-.204-.487zm3.7-4.56c-.203 0-.362-.064-.475-.192a.77.77 0 01-.18-.498c0-.415.18-.785.542-1.11.363-.323.8-.486 1.313-.486.264 0 .43.004.498.012.558.09.984.29 1.279.6.294.309.445.644.452 1.006 0 .393-.128.774-.385 1.143-.256.37-.61.638-1.063.804l-.034.022c0 .008.034.02.102.034.068.015.177.05.328.102.15.053.294.132.43.238.618.4.928.928.928 1.584 0 .596-.234 1.116-.702 1.562-.468.445-1.06.667-1.776.667-.604 0-1.125-.162-1.562-.486-.438-.325-.656-.736-.656-1.234 0-.211.068-.38.203-.509a.755.755 0 01.51-.204c.21 0 .384.068.52.204a.69.69 0 01.204.51.711.711 0 01-.034.226 1 1 0 01-.08.18.426.426 0 01-.124.136 2.1 2.1 0 01-.136.09.354.354 0 01-.113.046.253.253 0 00-.09.034l-.046.011c.385.34.853.51 1.404.51.415 0 .727-.2.939-.6.128-.25.192-.63.192-1.143v-.226c0-.717-.241-1.196-.724-1.438-.113-.045-.343-.071-.69-.079l-.476-.011-.034-.023c-.015-.022-.022-.083-.022-.18 0-.136.03-.204.09-.204.212 0 .43-.02.657-.057.256-.038.49-.196.701-.475.212-.28.317-.702.317-1.268v-.09c0-.43-.132-.728-.396-.894a.973.973 0 00-.532-.158c-.241 0-.464.041-.667.124-.204.083-.348.17-.43.26l-.125.136h.034a.785.785 0 00.09.023.267.267 0 01.114.056c.037.03.083.057.135.08.053.022.091.064.114.124.022.06.052.117.09.17.038.053.05.128.034.226a.675.675 0 01-.158.441c-.106.129-.276.197-.51.204zm9.45 5.24c-.137-.023-.623-.035-1.46-.035-.876 0-1.381.012-1.517.034h-.102v-.52h.657c.052 0 .117-.008.192-.023a.413.413 0 00.158-.056.314.314 0 00.08-.091c.007-.015.01-.219.01-.611v-.566h-2.93v-.52l1.709-2.614c1.154-1.75 1.739-2.63 1.754-2.637.015-.015.094-.022.237-.022h.204l.068.067v5.206h1.041v.52h-1.041v1.12c0 .053.023.098.068.136.06.053.275.083.645.09h.328v.521h-.102zm-1.913-2.388v-3.78l-2.478 3.768 1.233.012h1.245zm4.198.61c0 .182-.06.333-.181.453a.6.6 0 01-.441.181h-.08c.347.596.807.894 1.38.894.529 0 .914-.226 1.155-.679.143-.249.215-.731.215-1.448 0-.777-.102-1.301-.306-1.573-.196-.249-.414-.373-.656-.373h-.068c-.588 0-1.033.256-1.335.77-.03.052-.056.082-.08.09a.999.999 0 01-.169.022c-.128 0-.2-.022-.215-.068-.015-.03-.023-.69-.023-1.98v-1.46c0-.377.02-.565.057-.565.015-.015.03-.023.045-.023.008 0 .087.03.238.09.15.06.358.121.622.181s.547.091.849.091a3.85 3.85 0 001.539-.317c.06-.03.11-.045.147-.045.06 0 .09.068.09.204v.147c-.618.732-1.391 1.097-2.32 1.097-.233 0-.444-.022-.633-.068l-.113-.022v1.946c.143-.106.256-.189.34-.249.082-.06.218-.12.407-.18.188-.061.38-.091.577-.091.611 0 1.128.245 1.55.735.423.49.634 1.071.634 1.743a2.44 2.44 0 01-.724 1.776c-.483.49-1.072.74-1.766.747-.61 0-1.101-.203-1.47-.61-.37-.408-.555-.868-.555-1.381 0-.181.041-.325.124-.43a.576.576 0 01.26-.204.821.821 0 01.26-.045.639.639 0 01.645.645zm13.445 1.45c0 .15-.079.225-.238.225-.037 0-.12-.06-.248-.18-.129-.121-.483-.472-1.064-1.053l-1.177-1.177-1.188 1.188c-.8.785-1.21 1.185-1.233 1.2a.182.182 0 01-.08.022.217.217 0 01-.158-.067.266.266 0 01-.08-.159c0-.053.053-.136.16-.249.105-.113.46-.471 1.063-1.075l1.177-1.177-1.177-1.176c-.611-.612-.966-.97-1.064-1.075-.098-.106-.15-.19-.158-.25 0-.067.022-.12.068-.158a.256.256 0 01.17-.056c.037 0 .063.003.078.01.023.016.434.416 1.234 1.2l1.188 1.188 1.177-1.176c.58-.581.935-.932 1.064-1.053.128-.12.21-.18.248-.18.159 0 .238.075.238.226 0 .052-.038.12-.113.203a65.14 65.14 0 01-1.109 1.11l-1.177 1.187 1.177 1.188c.634.634.996 1 1.086 1.098.09.098.136.17.136.215zm6.6-6.213l-.148.056a3.257 3.257 0 01-.452.114 5.223 5.223 0 01-.657.079h-.215v-.52h.215c.355-.016.683-.072.985-.17.302-.099.513-.19.634-.272.12-.083.226-.166.316-.25.015-.022.06-.033.136-.033.068 0 .132.023.193.068v3.383l.01 3.395a.449.449 0 00.137.102c.037.015.128.03.271.045.144.015.377.023.702.023h.294v.52h-.124c-.159-.022-.759-.034-1.8-.034-1.026 0-1.618.012-1.776.034h-.136v-.52h.724c.12 0 .215-.004.283-.012.068-.007.128-.018.181-.034a.675.675 0 01.09-.022c.008 0 .03-.02.069-.057.037-.038.06-.053.068-.045v-5.85zm4.333-.08c.423-.61 1-.916 1.732-.916.362 0 .724.098 1.086.294.362.196.656.543.883 1.041.279.626.418 1.486.418 2.58 0 1.17-.162 2.063-.486 2.682a1.93 1.93 0 01-.623.758c-.264.189-.494.306-.69.35a3.112 3.112 0 01-.577.08c-.196 0-.392-.022-.588-.068-.197-.045-.427-.166-.69-.362a2.043 2.043 0 01-.623-.758c-.324-.619-.487-1.512-.487-2.682 0-1.312.215-2.312.645-2.998zm2.546-.135a1.066 1.066 0 00-.803-.362c-.317 0-.588.12-.815.362-.188.196-.313.467-.373.814-.06.347-.09 1.072-.09 2.173 0 1.192.03 1.976.09 2.354.06.377.196.675.407.894.211.226.472.34.781.34.302 0 .558-.114.77-.34.218-.227.354-.544.407-.95.053-.408.083-1.174.09-2.298 0-1.094-.03-1.814-.09-2.161s-.185-.623-.374-.826zM57.6 9.617a.425.425 0 01-.336-.136.544.544 0 01-.128-.352c0-.294.128-.555.384-.784.256-.23.565-.344.928-.344.187 0 .304.002.352.008.395.064.696.205.904.424.208.218.315.456.32.712a1.4 1.4 0 01-.272.808c-.181.261-.432.45-.752.568l-.024.016c0 .005.024.013.072.024.048.01.125.034.232.072.107.037.208.093.304.168.437.282.656.656.656 1.12 0 .421-.165.79-.496 1.104-.33.314-.75.472-1.256.472-.427 0-.795-.115-1.104-.344-.31-.23-.464-.52-.464-.872 0-.15.048-.27.144-.36a.534.534 0 01.728 0 .488.488 0 01.144.36.504.504 0 01-.024.16.715.715 0 01-.056.128.303.303 0 01-.088.096c-.037.026-.07.048-.096.064a.254.254 0 01-.08.032.177.177 0 00-.064.024l-.032.008c.272.24.603.36.992.36.293 0 .515-.142.664-.424.09-.176.136-.446.136-.808v-.16c0-.507-.17-.846-.512-1.016-.08-.032-.243-.05-.488-.056l-.336-.008-.024-.016c-.01-.016-.016-.059-.016-.128 0-.096.021-.144.064-.144.15 0 .304-.014.464-.04.181-.027.347-.139.496-.336.15-.198.224-.496.224-.896v-.064c0-.304-.093-.515-.28-.632a.688.688 0 00-.376-.112c-.17 0-.328.029-.472.088a.853.853 0 00-.392.28h.024a.55.55 0 00.064.016.189.189 0 01.08.04.41.41 0 00.096.056.146.146 0 01.08.088.518.518 0 00.064.12c.027.037.035.09.024.16a.477.477 0 01-.112.312c-.075.09-.195.138-.36.144z" />
</svg>
