<svg viewBox="0 0 20 27">
  <path d="M2.409 11.451l-.147.057a3.24 3.24 0 01-.453.113 5.197 5.197 0 01-.656.079H.94v-.52h.214c.355-.015.683-.072.984-.17.302-.098.513-.188.633-.271a2.91 2.91 0 00.317-.249c.015-.023.06-.034.136-.034.068 0 .132.023.192.068v3.381l.011 3.392a.448.448 0 00.136.102c.038.015.128.03.271.045.144.015.377.023.702.023h.294v.52h-.125c-.158-.022-.757-.034-1.798-.034-1.025 0-1.617.012-1.775.034H.995v-.52h.724c.12 0 .215-.004.283-.011a1.1 1.1 0 00.18-.034.672.672 0 01.09-.023c.008 0 .031-.019.069-.056.037-.038.06-.053.068-.046v-5.846zm4.127 5.858c0-.181.064-.34.192-.475a.64.64 0 01.486-.204c.181 0 .34.06.475.181.136.12.208.283.215.486 0 .189-.064.35-.192.487a.64.64 0 01-.486.203.66.66 0 01-.486-.192.7.7 0 01-.204-.486zm3.494-4.173a.618.618 0 01-.486-.204.722.722 0 01-.181-.497c0-.535.2-.999.6-1.39.399-.393.896-.589 1.492-.589.686 0 1.259.211 1.719.633.46.422.693.969.7 1.64 0 .324-.075.633-.225.927a3.2 3.2 0 01-.543.77c-.211.218-.513.497-.905.836-.271.234-.648.58-1.13 1.04l-.668.634.86.01c1.183 0 1.813-.018 1.888-.056.053-.015.143-.35.271-1.006v-.034h.453v.034c-.008.022-.057.366-.147 1.029-.09.663-.147 1.01-.17 1.04v.034H9.363v-.35c0-.053.023-.11.068-.17a8.41 8.41 0 01.34-.396c.218-.241.406-.452.564-.633.068-.075.196-.215.385-.418.188-.204.316-.343.384-.419.068-.075.178-.2.328-.373.151-.173.257-.301.317-.384.06-.083.147-.196.26-.34.113-.143.192-.264.237-.362.046-.098.102-.207.17-.327.068-.121.117-.242.147-.362.03-.121.057-.234.08-.34a1.8 1.8 0 00.033-.373c0-.475-.128-.886-.384-1.232-.257-.347-.622-.52-1.097-.52-.249 0-.468.064-.656.192s-.32.252-.396.373c-.075.12-.113.192-.113.215 0 .007.019.011.057.011a.71.71 0 01.418.158c.143.106.215.28.215.52 0 .189-.06.347-.181.475-.12.129-.29.197-.509.204zm5.858-.384c-.204 0-.362-.065-.475-.193a.769.769 0 01-.181-.497c0-.415.18-.784.543-1.108.361-.325.799-.487 1.311-.487.264 0 .43.004.498.012.558.09.984.29 1.278.599.294.31.444.645.452 1.006 0 .392-.128.773-.385 1.143a2.16 2.16 0 01-1.063.802l-.033.023c0 .008.034.019.101.034.068.015.177.049.328.102.151.052.294.132.43.237.618.4.927.927.927 1.583 0 .596-.233 1.116-.7 1.56-.468.445-1.06.668-1.776.668-.603 0-1.123-.162-1.56-.486-.438-.325-.656-.735-.656-1.233 0-.211.067-.38.203-.509a.755.755 0 01.509-.203c.21 0 .384.068.52.203a.69.69 0 01.204.51.712.712 0 01-.034.225 1.007 1.007 0 01-.08.181.426.426 0 01-.124.136 2.094 2.094 0 01-.136.09.358.358 0 01-.113.046.25.25 0 00-.09.034l-.045.01c.384.34.852.51 1.402.51.414 0 .727-.2.938-.6.128-.248.193-.63.193-1.142v-.226c0-.716-.242-1.195-.724-1.436-.113-.045-.343-.072-.69-.08l-.475-.01-.034-.023c-.015-.023-.022-.083-.022-.181 0-.136.03-.204.09-.204.211 0 .43-.018.656-.056.256-.038.49-.196.701-.475.211-.279.317-.701.317-1.267v-.09c0-.43-.132-.728-.396-.893a.973.973 0 00-.532-.159 1.75 1.75 0 00-.667.125c-.203.083-.347.17-.43.26l-.124.136h.034a.783.783 0 00.09.022.265.265 0 01.114.057c.037.03.083.056.135.079.053.023.09.064.113.124.023.06.053.117.09.17.039.053.05.128.035.226a.674.674 0 01-.159.441c-.105.128-.275.196-.508.204z" />
</svg>
