<svg viewBox="0 0 15 27">
  <path d="M1.234 12.323a.619.619 0 01-.487-.204.723.723 0 01-.18-.498c0-.535.2-1 .599-1.392.4-.392.898-.589 1.494-.589.687 0 1.26.212 1.72.634.461.423.695.97.702 1.642 0 .324-.075.633-.226.928-.15.294-.332.55-.543.77a14.51 14.51 0 01-.906.837 32.71 32.71 0 00-1.132 1.041l-.668.634.86.012c1.185 0 1.816-.02 1.891-.057.053-.015.143-.35.272-1.007v-.034h.452v.034c-.007.022-.056.366-.147 1.03-.09.664-.147 1.01-.17 1.041v.034H.567v-.351c0-.053.023-.11.068-.17.045-.06.158-.192.34-.396.218-.241.407-.453.566-.634.067-.075.196-.215.384-.418a31.947 31.947 0 00.713-.792c.151-.174.257-.303.317-.386.06-.083.148-.196.26-.34.114-.143.193-.263.239-.361.045-.099.101-.208.17-.329.067-.12.116-.241.146-.362.03-.12.057-.234.08-.34.022-.105.034-.23.034-.373 0-.475-.129-.887-.385-1.234-.257-.347-.623-.52-1.098-.52a1.14 1.14 0 00-.657.192c-.188.128-.32.253-.396.373-.075.121-.113.193-.113.216 0 .007.019.01.057.01a.71.71 0 01.418.16c.144.105.215.278.215.52 0 .189-.06.347-.18.475-.121.129-.291.197-.51.204zm8.354-8.037c-.204 0-.363-.064-.476-.192a.77.77 0 01-.181-.498c0-.415.181-.785.543-1.11.363-.324.8-.486 1.313-.486.264 0 .43.004.498.011.559.09.985.29 1.28.6.294.31.445.645.452 1.008 0 .392-.128.773-.385 1.143-.256.37-.61.638-1.064.804l-.034.022c0 .008.034.02.102.034.068.015.178.05.329.102.15.053.294.132.43.238.619.4.928.928.928 1.584 0 .597-.234 1.117-.702 1.562-.468.446-1.06.668-1.777.668-.604 0-1.124-.162-1.562-.486-.438-.325-.657-.736-.657-1.234 0-.211.068-.381.204-.51a.756.756 0 01.51-.203c.21 0 .384.068.52.203a.691.691 0 01.204.51.714.714 0 01-.034.226 1.01 1.01 0 01-.08.181.426.426 0 01-.124.136 2.104 2.104 0 01-.136.09.356.356 0 01-.113.046.253.253 0 00-.09.034l-.046.011c.385.34.853.51 1.404.51.415 0 .728-.2.94-.6.128-.25.192-.63.192-1.144V7.32c0-.717-.242-1.196-.725-1.438-.113-.045-.343-.071-.69-.079l-.475-.011-.034-.023c-.015-.022-.023-.083-.023-.18 0-.137.03-.205.09-.205.212 0 .43-.018.657-.056.257-.038.49-.196.702-.476.211-.279.317-.701.317-1.267v-.09c0-.431-.132-.73-.396-.895a.973.973 0 00-.532-.159c-.242 0-.465.042-.668.125-.204.083-.347.17-.43.26l-.125.136h.034a.784.784 0 00.09.023.267.267 0 01.114.056c.038.03.083.057.136.08.052.022.09.064.113.124.022.06.053.117.09.17.038.053.05.128.034.226a.675.675 0 01-.158.442c-.106.128-.276.196-.51.203zm3.792 20.658c-.136-.023-.623-.034-1.46-.034-.876 0-1.382.011-1.518.034h-.101v-.52H10.957c.053 0 .117-.008.193-.023a.414.414 0 00.158-.057.312.312 0 00.08-.09c.007-.016.01-.22.01-.612v-.566H8.468v-.52l1.71-2.615c1.154-1.75 1.739-2.63 1.754-2.637.015-.015.094-.023.237-.023h.204l.068.068v5.207h1.041v.52H12.44v1.121c0 .053.023.098.068.136.06.053.275.083.645.09h.328v.521h-.101zm-1.914-2.388v-3.78l-2.478 3.768 1.233.012h1.245zm3.476-7.867H7.017v-.68h7.923v.68z" />
</svg>