<svg viewBox="0 0 24 27">
  <path d="M2.724 5.884a.619.619 0 01-.486-.203.723.723 0 01-.181-.498c0-.536.2-1 .6-1.392.4-.392.897-.589 1.493-.589.686 0 1.26.212 1.72.634.46.423.694.97.702 1.64 0 .325-.076.635-.227.929-.15.294-.332.55-.543.77-.211.218-.513.497-.905.837-.272.234-.649.58-1.132 1.04l-.667.634.86.012c1.184 0 1.814-.02 1.89-.057.052-.015.143-.35.271-1.007V8.6h.453v.034c-.008.023-.057.366-.147 1.03-.091.664-.148 1.01-.17 1.04v.035H2.057v-.351a.29.29 0 01.067-.17 8.55 8.55 0 01.34-.396c.219-.241.407-.452.566-.633.068-.076.196-.215.384-.42.189-.203.317-.342.385-.418.068-.075.177-.2.328-.373.151-.174.257-.302.317-.385.06-.083.147-.196.26-.34.114-.143.193-.263.238-.362a4.67 4.67 0 01.17-.328c.068-.12.117-.241.147-.362.03-.12.057-.234.08-.34.022-.105.033-.23.033-.373 0-.475-.128-.886-.385-1.233-.256-.347-.622-.52-1.097-.52-.25 0-.468.063-.657.192-.188.128-.32.252-.396.373-.075.12-.113.192-.113.215 0 .008.019.011.057.011a.71.71 0 01.418.159c.144.105.215.279.215.52 0 .189-.06.347-.18.476-.121.128-.291.196-.51.203zM18.238 5.5c-.203 0-.362-.065-.475-.193a.77.77 0 01-.18-.498c0-.415.18-.784.542-1.109.362-.324.8-.486 1.313-.486.264 0 .43.004.498.011.558.09.984.29 1.279.6.294.31.445.645.452 1.007 0 .392-.128.773-.385 1.143-.256.37-.61.637-1.063.803l-.034.023c0 .007.034.019.102.034.068.015.177.049.328.102.15.052.294.132.43.237.618.4.928.928.928 1.585 0 .596-.234 1.116-.702 1.561-.468.445-1.06.668-1.777.668-.603 0-1.124-.162-1.561-.487-.438-.324-.657-.735-.657-1.233 0-.211.068-.381.204-.51a.756.756 0 01.51-.203c.21 0 .384.068.52.204a.69.69 0 01.204.509.714.714 0 01-.034.226 1.002 1.002 0 01-.08.181.426.426 0 01-.124.136 2.105 2.105 0 01-.136.09.355.355 0 01-.113.046.253.253 0 00-.09.034l-.046.011c.385.34.853.51 1.403.51.415 0 .728-.2.94-.6.128-.25.192-.63.192-1.143v-.227c0-.716-.241-1.195-.724-1.437-.113-.045-.343-.072-.69-.08l-.476-.01-.034-.023c-.015-.023-.022-.083-.022-.181 0-.136.03-.204.09-.204.212 0 .43-.019.657-.056.256-.038.49-.197.701-.476.211-.279.317-.701.317-1.267v-.09c0-.43-.132-.729-.396-.895a.973.973 0 00-.532-.158c-.241 0-.464.042-.668.125-.203.083-.347.17-.43.26l-.124.136h.034a.782.782 0 00.09.022.266.266 0 01.114.057c.037.03.083.056.135.079.053.023.09.064.114.125.022.06.052.116.09.17.038.052.05.127.034.226a.675.675 0 01-.158.44c-.106.13-.276.197-.51.205zM8.224 7.718c-.046 0-.098-.03-.159-.091-.06-.06-.094-.113-.102-.158-.007-.046.11-.159.351-.34a100.4 100.4 0 001.177-.894.077.077 0 01.057-.023h.011c.045 0 .098.065.158.193l.611 1.324c.144.324.26.584.351.78l.962 2.094c.008 0 .4-.803 1.177-2.41a986.831 986.831 0 002.331-4.855c.777-1.63 1.18-2.463 1.21-2.5.046-.106.122-.159.227-.159.053 0 .098.023.136.068.038.045.064.09.08.136V.95l-2.637 5.465-2.66 5.5c-.03.053-.102.079-.215.079-.067 0-.113-.011-.135-.034-.015-.015-.385-.815-1.11-2.399L8.96 7.186l-.18.124c-.114.09-.23.181-.352.272-.12.09-.188.136-.203.136zm14.235-6.36h-5.658V.679h5.658v.679zM10.583 20.912c-.204 0-.362-.064-.475-.192a.77.77 0 01-.181-.498c0-.415.18-.785.543-1.11.362-.324.8-.486 1.313-.486.264 0 .43.004.498.011.558.09.984.29 1.278.6.295.31.445.645.453 1.007 0 .393-.128.773-.385 1.143-.256.37-.61.638-1.064.804l-.034.022c0 .008.034.02.102.034.068.015.178.05.329.102.15.053.294.132.43.238.618.4.927.928.927 1.584 0 .596-.233 1.116-.701 1.562-.468.445-1.06.667-1.777.667-.603 0-1.124-.162-1.561-.486-.438-.325-.657-.736-.657-1.234 0-.211.068-.38.204-.51a.756.756 0 01.51-.203c.21 0 .384.068.52.204a.691.691 0 01.203.51.714.714 0 01-.034.226c-.022.067-.049.128-.079.18a.425.425 0 01-.124.136 2.1 2.1 0 01-.136.09.353.353 0 01-.113.046.253.253 0 00-.09.034l-.046.011c.385.34.853.51 1.403.51.415 0 .728-.2.94-.6.128-.25.192-.63.192-1.143v-.226c0-.717-.242-1.196-.724-1.438-.114-.045-.344-.071-.69-.079l-.476-.011-.034-.023c-.015-.022-.023-.083-.023-.18 0-.136.03-.204.091-.204.211 0 .43-.02.656-.057.257-.038.49-.196.702-.475.211-.28.317-.702.317-1.268v-.09c0-.43-.132-.728-.396-.894a.974.974 0 00-.532-.159c-.242 0-.464.042-.668.125-.204.083-.347.17-.43.26l-.124.136h.034a.804.804 0 00.09.023.266.266 0 01.113.056.59.59 0 00.136.08c.053.022.09.064.113.124.023.06.053.117.09.17.039.052.05.128.035.226a.674.674 0 01-.159.441c-.105.129-.275.196-.509.204zm13.008-5.013H.359v-.679h23.232v.679zM16.37 1.358h.43V.679h-.219l-.211.679z" />
</svg>
