<svg width="60" height="60" fill="none" xmlns="http://www.w3.org/2000/svg">
  <path id="pocket-jam" d="M18.75 12.35c0-1.918 2.18-4.85 5.971-4.85 1.97 0 3.404 1.043 3.404 2.679 0 2.368-3.165 4.821-6.509 4.821h-.89a17.473 17.473 0 007.095 12.256L30 28.84l2.18-1.585a17.473 17.473 0 007.195-14.131v-1.487l-3.087 3.087-1.326-1.325 5.35-5.35 5.35 5.35-1.325 1.325-3.087-3.087v1.487c0 6.19-2.962 12.006-7.968 15.647L31.594 30l1.688 1.228a19.348 19.348 0 017.968 15.647v.804c0 2.368-3.165 4.821-6.509 4.821-1.91 0-2.866-.846-2.866-2.65 0-1.918 2.18-4.85 5.971-4.85h1.428a17.474 17.474 0 00-7.095-12.256L30 31.16l-2.18 1.585a17.473 17.473 0 00-7.195 14.131v1.487l3.087-3.087 1.326 1.325-5.35 5.35-5.35-5.35 1.325-1.325 3.087 3.087v-1.487c0-6.19 2.962-12.007 7.968-15.647L28.406 30l-1.688-1.228a19.348 19.348 0 01-7.968-15.647v-.775z"/>
  <path id="technicalc" d="M22 25a2 2 0 114 0 2 2 0 01-4 0zm6 0a2 2 0 114 0 2 2 0 01-4 0zm6 0a2 2 0 114 0 2 2 0 01-4 0zm-12 6a2 2 0 114 0 2 2 0 01-4 0zm6 0a2 2 0 114 0 2 2 0 01-4 0zm-6 6a2 2 0 114 0 2 2 0 01-4 0zm6 0a2 2 0 114 0 2 2 0 01-4 0zm6.586-7.414a2 2 0 013.196.506C38 30.52 38 31.08 38 32.2v3.6c0 1.12 0 1.68-.218 2.108a2 2 0 01-3.564 0C34 37.48 34 36.92 34 35.8v-3.6c0-1.12 0-1.68.218-2.108.096-.188.22-.359.368-.506zM20.295 41C18.85 38.194 18 34.738 18 31c0-3.738.852-7.194 2.295-10h-1.618C16.993 23.806 16 27.262 16 31c0 3.738.993 7.194 2.677 10h1.618zm19.41-20C41.15 23.806 42 27.262 42 31c0 3.738-.852 7.194-2.295 10h1.618C43.007 38.194 44 34.738 44 31c0-3.738-.993-7.194-2.677-10h-1.618zm5.778 3h4.845v-1.275h-2.653v-.042l.783-.722c1.42-1.237 1.79-1.866 1.79-2.618 0-1.179-.962-1.978-2.448-1.978-1.448 0-2.416.834-2.413 2.167h1.499c0-.591.364-.933.907-.933.534 0 .92.329.92.869 0 .489-.306.821-.843 1.304l-2.387 2.09V24z"/>
  <path id="rail-app" d="M24 22h-6v-1h6v1zm15 0h-6v-1h6v1zm9 0h12v-1H48v1zM9 22v-1H0v1h9zm10 24h-3V12h-5v25H0v1h12V13h3v34h5v-9h7V13h3v34h5v-9h7V13h3v34h5v-9h10v-1H49v9h-3V12h-5v25h-7v9h-3V12h-5v25h-7v9z"/>
</svg>