<svg width="128" height="128" fill="none" xmlns="http://www.w3.org/2000/svg">
<path id="pocket-jam" fill-rule="evenodd" d="M40 26.3459C40 22.2556 44.6497 16 52.7389 16C56.9427 16 60 18.2256 60 21.7143C60 26.7669 53.2484 32 46.1146 32H44.2149C45.3363 42.3985 50.7933 51.9221 59.3511 58.146L64 61.527L68.6489 58.146C78.2937 51.1316 84 39.9258 84 28V24.8284L77.4142 31.4142L74.5858 28.5858L86 17.1716L97.4142 28.5858L94.5858 31.4142L88 24.8284V28C88 41.2055 81.6814 53.6138 71.0016 61.3809L67.4004 64L71.0016 66.6191C81.6814 74.3862 88 86.7945 88 100V101.714C88 106.767 81.2484 112 74.1146 112C70.0382 112 68 110.195 68 106.346C68 102.256 72.6497 96 80.7389 96H83.7851C82.6637 85.6015 77.2067 76.0779 68.6489 69.854L64 66.473L59.3511 69.854C49.7063 76.8684 44 88.0742 44 100V103.172L50.5858 96.5858L53.4142 99.4142L42 110.828L30.5858 99.4142L33.4142 96.5858L40 103.172V100C40 86.7945 46.3186 74.3862 56.9984 66.6191L60.5996 64L56.9984 61.3809C46.3186 53.6138 40 41.2055 40 28V26.3459Z"/>
<path id="sciline" fill-rule="evenodd" d="M29.8 83.028c-3.792 2.034-6.016 3.53-7.13 5.156a7.58 7.58 0 0 0-.842 1.593l9.41 4.704 10.734-5.367-5.102-2.551-4.951 2.476-1.363-.682 4.951-2.475-5.706-2.854z M43.335 89.795l-12.098 6.05-9.735-4.868c-.262 1.58.128 3.18 1.168 4.7 1.191 1.739 3.65 3.327 7.937 5.584l18.025-9.012a29.149 29.149 0 0 1-2.878-1.244l-2.419-1.21zM50.25 92.803l-18.307 9.153c1.493.768 3.18 1.614 5.078 2.563l20.076-10.038 26.517 13.258c1.628-.79 3.428-1.689 5.466-2.708l.678-.339c5.353-2.677 9.056-4.536 11.506-6.16L88.059 91.93l6.465-3.232-4.36-2.18-8.973 4.487a29.05 29.05 0 0 1-2.776 1.206l12.37 6.184-7.828 3.914-15.512-7.756a49.13 49.13 0 0 1-3.973.16c-4.513 0-9.113-.617-13.222-1.91z M69.697 94.316l13.26 6.63 5.102-2.55-11.254-5.628c-2.252.717-4.653 1.23-7.108 1.548zM91.527 85.837l5.723 2.861-6.465 3.232 11.608 5.804c.912-.696 1.587-1.365 2.061-2.058a7.58 7.58 0 0 0 .843-1.592l-4.704-2.352 1.363-.681 3.666 1.833c.262-1.58-.128-3.18-1.168-4.7-1.123-1.64-3.372-3.145-7.217-5.202l-5.71 2.855zM57.097 107.411l5.102-2.551-5.102-2.551-5.102 2.551 5.102 2.551z M65.47 112.96a45.1 45.1 0 0 1-9.4-.584c-4.94-.846-9.274-2.97-17.686-7.175l18.713-9.357 25.127 12.563c-2.042.97-3.81 1.752-5.457 2.374l-6.058-3.029-1.364.681 5.825 2.912c-1.393.456-2.73.794-4.116 1.031-1.045.179-2.11.319-3.184.421l-3.627-1.813-1.362.681 2.588 1.295zm-8.373-4.186l-7.828-3.914 7.828-3.914 7.828 3.914-7.828 3.914zM50.061 29.06l8.05-4.025-8.05-4.024 5.452-2.725 8.05 4.024 8.048-4.024 5.452 2.725-8.049 4.024 8.049 4.024-5.452 2.726-8.049-4.024-8.049 4.024-5.452-2.726zm-11.47 10.81v-6.692h7.71v6.692h13.384v3.854H46.3v6.692h-7.71v-6.692H25.205V39.87H38.59zm35.175 18.79l17.24 8.619 5.452-2.726-17.24-8.619-5.452 2.726zM62.195 72.065l-5.452 2.726 17.24 8.619 5.452-2.726-17.24-8.619zm-8.62 4.31L48.123 79.1l17.24 8.619 5.452-2.726-17.24-8.618zm31.32-11.843c.842 0 1.524.682 1.524 1.524v.03a1.524 1.524 0 0 1-3.047 0v-.03c0-.842.682-1.524 1.523-1.524zm0 4.572c.842 0 1.524.682 1.524 1.523v.016a1.524 1.524 0 0 1-3.047 0v-.016c0-.841.682-1.523 1.523-1.523zM43.753 53.119a1.524 1.524 0 1 0-3.048 0v.015a1.524 1.524 0 0 0 3.048 0v-.015zm0 4.366a1.524 1.524 0 1 0-3.048 0v.03a1.524 1.524 0 1 0 3.048 0v-.03zm0 4.381a1.524 1.524 0 1 0-3.048 0v.03a1.524 1.524 0 1 0 3.048 0v-.03zm0 4.381a1.524 1.524 0 0 0-3.048 0v.03a1.524 1.524 0 1 0 3.048 0v-.03zm0 4.381a1.524 1.524 0 1 0-3.048 0v.015a1.524 1.524 0 0 0 3.048 0v-.015zm19.81-39.604c.84 0 1.523.682 1.523 1.523v.017a1.524 1.524 0 1 1-3.048 0v-.017c0-.841.683-1.523 1.524-1.523zm0 4.86c.84 0 1.523.682 1.523 1.523v.033a1.524 1.524 0 1 1-3.048 0v-.032c0-.842.683-1.524 1.524-1.524zm0 4.876c.84 0 1.523.682 1.523 1.524v.032a1.524 1.524 0 0 1-3.048 0v-.032c0-.842.683-1.524 1.524-1.524zm0 4.876c.84 0 1.523.682 1.523 1.524v.032a1.524 1.524 0 0 1-3.048 0v-.032c0-.842.683-1.524 1.524-1.524zm0 4.876c.84 0 1.523.682 1.523 1.524v.032a1.524 1.524 0 1 1-3.048 0v-.032c0-.842.683-1.524 1.524-1.524zm0 4.876c.84 0 1.523.683 1.523 1.524v.017a1.524 1.524 0 1 1-3.048 0v-.017c0-.841.683-1.524 1.524-1.524zm-7.583-5.236c-5.072.868-9.504 3.084-18.367 7.515-8.864 4.432-13.296 6.648-15.033 9.184-1.662 2.428-1.662 5.064 0 7.492 1.737 2.536 6.169 4.752 15.032 9.183 8.864 4.432 13.296 6.648 18.368 7.516a45.323 45.323 0 0 0 14.985 0c5.072-.868 9.504-3.084 18.367-7.516 8.864-4.431 13.296-6.647 15.032-9.183 1.663-2.428 1.663-5.064 0-7.492-1.736-2.536-6.168-4.752-15.032-9.184-8.863-4.431-13.295-6.647-18.367-7.515a45.323 45.323 0 0 0-14.985 0z"/>
<path id="rail-app" fill-rule="evenodd" d="M51.2 46.933H38.4V44.8h12.8v2.133zM83.2 46.933H70.4V44.8h12.8v2.133zM102.4 46.933h26.667V44.8H102.4v2.133zM19.2 46.933V44.8H0v2.133h19.2z M40.533 98.133h-6.4V25.6H23.467v53.333H0v2.134h25.6V27.733H32v72.534h10.667v-19.2H57.6V27.733H64v72.534h10.667v-19.2H89.6V27.733H96v72.534h10.667v-19.2h22.4v-2.134h-24.534v19.2h-6.4V25.6H87.467v53.333H72.533v19.2h-6.4V25.6H55.467v53.333H40.533v19.2z"/>
</svg>
