<svg width="60" height="60" fill="none" xmlns="http://www.w3.org/2000/svg">
  <path id="pocket-jam" d="M18.75 12.35c0-1.918 2.18-4.85 5.971-4.85 1.97 0 3.404 1.043 3.404 2.679 0 2.368-3.165 4.821-6.509 4.821h-.89a17.473 17.473 0 007.095 12.256L30 28.84l2.18-1.585a17.473 17.473 0 007.195-14.131v-1.487l-3.087 3.087-1.326-1.325 5.35-5.35 5.35 5.35-1.325 1.325-3.087-3.087v1.487c0 6.19-2.962 12.006-7.968 15.647L31.594 30l1.688 1.228a19.348 19.348 0 017.968 15.647v.804c0 2.368-3.165 4.821-6.509 4.821-1.91 0-2.866-.846-2.866-2.65 0-1.918 2.18-4.85 5.971-4.85h1.428a17.474 17.474 0 00-7.095-12.256L30 31.16l-2.18 1.585a17.473 17.473 0 00-7.195 14.131v1.487l3.087-3.087 1.326 1.325-5.35 5.35-5.35-5.35 1.325-1.325 3.087 3.087v-1.487c0-6.19 2.962-12.007 7.968-15.647L28.406 30l-1.688-1.228a19.348 19.348 0 01-7.968-15.647v-.775z"/>
  <path id="key-lines" d="M40.45 25.976A15.002 15.002 0 0030.024 15.55 5.985 5.985 0 0132 20a4 4 0 004 4c1.765 0 3.352.762 4.45 1.976zm.505 3.354A5.001 5.001 0 0036 25a5 5 0 01-5-5 5.001 5.001 0 00-4.33-4.956C25.623 15 24.303 15 22.47 15c-.437 0-.655 0-.837.034a2 2 0 00-1.599 1.598c-.034.183-.034.401-.034.839V34h21v-.47c0-1.833 0-3.153-.044-4.2zM23 35h-3v6.8c0 1.12 0 1.68.218 2.108a2 2 0 00.874.874C21.52 45 22.08 45 23.2 45c.28 0 .42 0 .527-.054a.5.5 0 00.218-.219C24 44.62 24 44.48 24 44.2V40h-.2c-.28 0-.42 0-.527-.054a.5.5 0 01-.218-.219C23 39.62 23 39.48 23 39.2V35zm3 0v4.2c0 .28 0 .42-.055.527a.5.5 0 01-.218.219C25.62 40 25.48 40 25.2 40H25v4.2c0 .28 0 .42.055.527a.5.5 0 00.218.219c.107.054.247.054.527.054h3.4c.28 0 .42 0 .527-.054a.5.5 0 00.218-.219C30 44.62 30 44.48 30 44.2V40h-.2c-.28 0-.42 0-.527-.054a.5.5 0 01-.218-.219C29 39.62 29 39.48 29 39.2V35h-3zm6 0v4.2c0 .28 0 .42-.055.527a.5.5 0 01-.218.219C31.62 40 31.48 40 31.2 40H31v4.2c0 .28 0 .42.055.527a.5.5 0 00.218.219c.107.054.247.054.527.054h3.4c.28 0 .42 0 .527-.054a.5.5 0 00.219-.219C36 44.62 36 44.48 36 44.2V40h-.2c-.28 0-.42 0-.527-.054a.5.5 0 01-.219-.219C35 39.62 35 39.48 35 39.2V35h-3zm6 0v4.2c0 .28 0 .42-.054.527a.5.5 0 01-.219.219C37.62 40 37.48 40 37.2 40H37v4.2c0 .28 0 .42.054.527a.5.5 0 00.219.219c.107.054.247.054.527.054 1.12 0 1.68 0 2.108-.218a2 2 0 00.874-.874C41 43.48 41 42.92 41 41.8V35h-3z"/>
  <path id="technicalc" d="M22 25a2 2 0 114 0 2 2 0 01-4 0zm6 0a2 2 0 114 0 2 2 0 01-4 0zm6 0a2 2 0 114 0 2 2 0 01-4 0zm-12 6a2 2 0 114 0 2 2 0 01-4 0zm6 0a2 2 0 114 0 2 2 0 01-4 0zm-6 6a2 2 0 114 0 2 2 0 01-4 0zm6 0a2 2 0 114 0 2 2 0 01-4 0zm6.586-7.414a2 2 0 013.196.506C38 30.52 38 31.08 38 32.2v3.6c0 1.12 0 1.68-.218 2.108a2 2 0 01-3.564 0C34 37.48 34 36.92 34 35.8v-3.6c0-1.12 0-1.68.218-2.108.096-.188.22-.359.368-.506zM20.295 41C18.85 38.194 18 34.738 18 31c0-3.738.852-7.194 2.295-10h-1.618C16.993 23.806 16 27.262 16 31c0 3.738.993 7.194 2.677 10h1.618zm19.41-20C41.15 23.806 42 27.262 42 31c0 3.738-.852 7.194-2.295 10h1.618C43.007 38.194 44 34.738 44 31c0-3.738-.993-7.194-2.677-10h-1.618zm5.778 3h4.845v-1.275h-2.653v-.042l.783-.722c1.42-1.237 1.79-1.866 1.79-2.618 0-1.179-.962-1.978-2.448-1.978-1.448 0-2.416.834-2.413 2.167h1.499c0-.591.364-.933.907-.933.534 0 .92.329.92.869 0 .489-.306.821-.843 1.304l-2.387 2.09V24z"/>
  <path id="rail-app" d="M24 22h-6v-1h6v1zm15 0h-6v-1h6v1zm9 0h12v-1H48v1zM9 22v-1H0v1h9zm10 24h-3V12h-5v25H0v1h12V13h3v34h5v-9h7V13h3v34h5v-9h7V13h3v34h5v-9h10v-1H49v9h-3V12h-5v25h-7v9h-3V12h-5v25h-7v9z"/>
  <path id="za" d="M8.578 41.36H28.11v-.25l1.218-9.876-4.656 7.844h-9.719l13.25-20.156H10.83l-.626 9.187 4.126-7.093h7.312L8.578 41.359zm21.47 0h7.437l-2.687-2.063 1.812-4.469h7.75l1.563 4.187-3.032 2.344h10.407l-2.313-2-8.187-20.718H41.14l-8.468 20.187-2.625 2.531zM40.64 24.89l3.063 8.157h-6.375l3.312-8.156z"/>
  <path id="reason-ml" d="M32.917 52h-5.906l-2.91-5.535h-3.88V52H15V32h8.987c5.307 0 8.331 2.568 8.331 7.019 0 3.024-1.255 5.25-3.566 6.448L32.917 52zM20.221 36.166V42.3h3.795c2.111 0 3.338-1.085 3.338-3.11 0-1.969-1.227-3.024-3.338-3.024H20.22zM35.656 32h15.778v4.166H40.877v3.737h9.53v4.137l-9.53.029v3.765H51.72V52H35.656V32z"/>
</svg>