<svg width="128" height="128" fill="none" xmlns="http://www.w3.org/2000/svg">
<path id="pocket-jam" d="M37.692 46.403c-.098-1.319-.351-6.868 1.895-10.807 2.989-5.243 6.413-6.4 6.413-6.4s-.842 3.021-.884 5.174c-.037 1.91 1.368 3.711 3.049 4.595.385.203 1.371.756 2.617 1.461 3.05-.504 6.064-.634 8.686-.645h.433c2.552.01 5.476.134 8.442.606a224.663 224.663 0 0 0 3.69-2.333c1.832-1.216 2.508-3.063 2.437-4.772-.046-1.137-.207-1.75-.207-1.75s1.706.601 3.855 3.365c1.76 2.264 3.15 6.034 3.545 8.961.135.99.152 1.889.116 2.649 4.34 4.446 5.18 10.785 2.19 19.024-1.974 5.438-3.92 10.143-7.299 15.672 2.987.53 6.016.844 9.034.98a49.91 49.91 0 0 0 4.563.015c1.437-.066 2.871-.21 4.27-.552l.192-.056c-.686-.69-1.464-1.271-2.21-1.894-.471-.413-.47-.41-.929-.833-1.182-1.147-2.275-2.377-3.107-3.807a11.478 11.478 0 0 1-1.127-2.606 9.621 9.621 0 0 1-.315-3.812c.434-3.698 2.906-6.716 5.394-9.302.528-.548.678-.693 1.299-1.32 1.384-1.4 2.76-2.807 4.24-4.105a62.96 62.96 0 0 1 2.242-1.863l-7.07.54 16.807-8.085-9.19 17.539 1.165-8.286c-.215.213-.429.426-.642.64a55.373 55.373 0 0 0-2.924 3.227 201.46 201.46 0 0 0-3.221 4.05c-.374.491-.745.983-1.098 1.489-.27.386-.424.622-.676 1.02-1.153 1.813-2.178 4.108-1.47 6.275.153.465.37.906.633 1.318.475.745 1.086 1.397 1.745 1.982.56.498 1.16.95 1.78 1.37.626.423 1.271.81 1.89 1.243.304.22.6.444.892.678.797.668 1.545 1.397 2.106 2.28.386.607.679 1.275.826 1.98.107.515.136 1.042.083 1.564-.04.394-.127.78-.258 1.155-.816 2.338-3.13 3.648-5.333 4.432-.39.14-.8.27-1.196.384-1.539.446-3.12.745-4.704.972-2.034.292-4.085.46-6.137.55-4.493.201-9.031.065-13.494-.556-5.76 7.641-8.105 9.67-10.764 9.86a.48.48 0 0 1-.12.016c-.054 0-.108 0-.162-.002a6.199 6.199 0 0 1-.161.002.48.48 0 0 1-.12-.016c-2.787-.2-5.228-2.418-11.618-11-6.846-9.195-9.588-15.43-12.385-23.138-3.014-8.303-2.136-14.677 2.292-19.128z"/>
<g id="sciline">
<path d="M29.8 83.028c-3.792 2.034-6.016 3.53-7.13 5.156a7.58 7.58 0 0 0-.842 1.593l9.41 4.704 10.734-5.367-5.102-2.551-4.951 2.476-1.363-.682 4.951-2.475-5.706-2.854z"/><path d="M43.335 89.795l-12.098 6.05-9.735-4.868c-.262 1.58.128 3.18 1.168 4.7 1.191 1.739 3.65 3.327 7.937 5.584l18.025-9.012a29.149 29.149 0 0 1-2.878-1.244l-2.419-1.21zM50.25 92.803l-18.307 9.153c1.493.768 3.18 1.614 5.078 2.563l20.076-10.038 26.517 13.258c1.628-.79 3.428-1.689 5.466-2.708l.678-.339c5.353-2.677 9.056-4.536 11.506-6.16L88.059 91.93l6.465-3.232-4.36-2.18-8.973 4.487a29.05 29.05 0 0 1-2.776 1.206l12.37 6.184-7.828 3.914-15.512-7.756a49.13 49.13 0 0 1-3.973.16c-4.513 0-9.113-.617-13.222-1.91z"/><path d="M69.697 94.316l13.26 6.63 5.102-2.55-11.254-5.628c-2.252.717-4.653 1.23-7.108 1.548zM91.527 85.837l5.723 2.861-6.465 3.232 11.608 5.804c.912-.696 1.587-1.365 2.061-2.058a7.58 7.58 0 0 0 .843-1.592l-4.704-2.352 1.363-.681 3.666 1.833c.262-1.58-.128-3.18-1.168-4.7-1.123-1.64-3.372-3.145-7.217-5.202l-5.71 2.855zM57.097 107.411l5.102-2.551-5.102-2.551-5.102 2.551 5.102 2.551z"/><path fill-rule="evenodd" clip-rule="evenodd" d="M65.47 112.96a45.1 45.1 0 0 1-9.4-.584c-4.94-.846-9.274-2.97-17.686-7.175l18.713-9.357 25.127 12.563c-2.042.97-3.81 1.752-5.457 2.374l-6.058-3.029-1.364.681 5.825 2.912c-1.393.456-2.73.794-4.116 1.031-1.045.179-2.11.319-3.184.421l-3.627-1.813-1.362.681 2.588 1.295zm-8.373-4.186l-7.828-3.914 7.828-3.914 7.828 3.914-7.828 3.914zM50.061 29.06l8.05-4.025-8.05-4.024 5.452-2.725 8.05 4.024 8.048-4.024 5.452 2.725-8.049 4.024 8.049 4.024-5.452 2.726-8.049-4.024-8.049 4.024-5.452-2.726zm-11.47 10.81v-6.692h7.71v6.692h13.384v3.854H46.3v6.692h-7.71v-6.692H25.205V39.87H38.59zm35.175 18.79l17.24 8.619 5.452-2.726-17.24-8.619-5.452 2.726zM62.195 72.065l-5.452 2.726 17.24 8.619 5.452-2.726-17.24-8.619zm-8.62 4.31L48.123 79.1l17.24 8.619 5.452-2.726-17.24-8.618zm31.32-11.843c.842 0 1.524.682 1.524 1.524v.03a1.524 1.524 0 0 1-3.047 0v-.03c0-.842.682-1.524 1.523-1.524zm0 4.572c.842 0 1.524.682 1.524 1.523v.016a1.524 1.524 0 0 1-3.047 0v-.016c0-.841.682-1.523 1.523-1.523zM43.753 53.119a1.524 1.524 0 1 0-3.048 0v.015a1.524 1.524 0 0 0 3.048 0v-.015zm0 4.366a1.524 1.524 0 1 0-3.048 0v.03a1.524 1.524 0 1 0 3.048 0v-.03zm0 4.381a1.524 1.524 0 1 0-3.048 0v.03a1.524 1.524 0 1 0 3.048 0v-.03zm0 4.381a1.524 1.524 0 0 0-3.048 0v.03a1.524 1.524 0 1 0 3.048 0v-.03zm0 4.381a1.524 1.524 0 1 0-3.048 0v.015a1.524 1.524 0 0 0 3.048 0v-.015zm19.81-39.604c.84 0 1.523.682 1.523 1.523v.017a1.524 1.524 0 1 1-3.048 0v-.017c0-.841.683-1.523 1.524-1.523zm0 4.86c.84 0 1.523.682 1.523 1.523v.033a1.524 1.524 0 1 1-3.048 0v-.032c0-.842.683-1.524 1.524-1.524zm0 4.876c.84 0 1.523.682 1.523 1.524v.032a1.524 1.524 0 0 1-3.048 0v-.032c0-.842.683-1.524 1.524-1.524zm0 4.876c.84 0 1.523.682 1.523 1.524v.032a1.524 1.524 0 0 1-3.048 0v-.032c0-.842.683-1.524 1.524-1.524zm0 4.876c.84 0 1.523.682 1.523 1.524v.032a1.524 1.524 0 1 1-3.048 0v-.032c0-.842.683-1.524 1.524-1.524zm0 4.876c.84 0 1.523.683 1.523 1.524v.017a1.524 1.524 0 1 1-3.048 0v-.017c0-.841.683-1.524 1.524-1.524zm-7.583-5.236c-5.072.868-9.504 3.084-18.367 7.515-8.864 4.432-13.296 6.648-15.033 9.184-1.662 2.428-1.662 5.064 0 7.492 1.737 2.536 6.169 4.752 15.032 9.183 8.864 4.432 13.296 6.648 18.368 7.516a45.323 45.323 0 0 0 14.985 0c5.072-.868 9.504-3.084 18.367-7.516 8.864-4.431 13.296-6.647 15.032-9.183 1.663-2.428 1.663-5.064 0-7.492-1.736-2.536-6.168-4.752-15.032-9.184-8.863-4.431-13.295-6.647-18.367-7.515a45.323 45.323 0 0 0-14.985 0z"/>
</g>
<g id="rail-app">
<path d="M51.2 46.933H38.4V44.8h12.8v2.133zM83.2 46.933H70.4V44.8h12.8v2.133zM102.4 46.933h26.667V44.8H102.4v2.133zM19.2 46.933V44.8H0v2.133h19.2z"/><path d="M40.533 98.133h-6.4V25.6H23.467v53.333H0v2.134h25.6V27.733H32v72.534h10.667v-19.2H57.6V27.733H64v72.534h10.667v-19.2H89.6V27.733H96v72.534h10.667v-19.2h22.4v-2.134h-24.534v19.2h-6.4V25.6H87.467v53.333H72.533v19.2h-6.4V25.6H55.467v53.333H40.533v19.2z"/>
</g>
</svg>
